Jost-ThinItalic.ufo
<glyph name="exclam" format="2">
	<advance width="508"/>
	<unicode hex="0021"/>
	<outline>
		<contour>
			<point x="262" y="401" type="line"/>
			<point x="274" y="401" type="line"/>
			<point x="454" y="1399" type="line"/>
			<point x="426" y="1399" type="line"/>
		</contour>
		<contour>
			<point x="199" y="-20" type="curve" smooth="yes"/>
			<point x="211" y="-20"/>
			<point x="221" y="-12"/>
			<point x="221" y="2" type="curve" smooth="yes"/>
			<point x="221" y="16"/>
			<point x="211" y="24"/>
			<point x="199" y="24" type="curve" smooth="yes"/>
			<point x="187" y="24"/>
			<point x="177" y="16"/>
			<point x="177" y="2" type="curve" smooth="yes"/>
			<point x="177" y="-12"/>
			<point x="187" y="-20"/>
		</contour>
	</outline>
</glyph>
<glyph name="quotedbl" format="2">
	<advance width="782"/>
	<unicode hex="0022"/>
	<outline>
		<contour>
			<point x="617" y="841" type="line"/>
			<point x="631" y="841" type="line"/>
			<point x="830" y="1399" type="line"/>
			<point x="804" y="1399" type="line"/>
		</contour>
		<contour>
			<point x="268" y="841" type="line"/>
			<point x="282" y="841" type="line"/>
			<point x="480" y="1399" type="line"/>
			<point x="454" y="1399" type="line"/>
		</contour>
	</outline>
</glyph>
<glyph name="numbersign" format="2">
	<advance width="1108"/>
	<unicode hex="0023"/>
	<outline>
		<contour>
			<point x="526" y="0" type="line"/>
			<point x="548" y="0" type="line"/>
			<point x="1120" y="1399" type="line"/>
			<point x="1098" y="1399" type="line"/>
			<point x="902" y="924" type="line"/>
			<point x="899" y="916" type="line"/>
			<point x="728" y="492" type="line"/>
			<point x="725" y="488" type="line"/>
		</contour>
		<contour>
			<point x="95" y="480" type="line"/>
			<point x="991" y="480" type="line"/>
			<point x="994" y="502" type="line"/>
			<point x="747" y="502" type="line"/>
			<point x="735" y="502" type="line"/>
			<point x="341" y="502" type="line"/>
			<point x="331" y="502" type="line"/>
			<point x="99" y="502" type="line"/>
		</contour>
		<contour>
			<point x="119" y="0" type="line"/>
			<point x="141" y="1" type="line"/>
			<point x="340" y="486" type="line"/>
			<point x="340" y="488" type="line"/>
			<point x="514" y="916" type="line"/>
			<point x="517" y="924" type="line"/>
			<point x="712" y="1399" type="line"/>
			<point x="690" y="1399" type="line"/>
		</contour>
		<contour>
			<point x="246" y="908" type="line"/>
			<point x="500" y="908" type="line"/>
			<point x="506" y="908" type="line"/>
			<point x="909" y="908" type="line"/>
			<point x="917" y="908" type="line"/>
			<point x="1141" y="908" type="line"/>
			<point x="1145" y="930" type="line"/>
			<point x="250" y="930" type="line"/>
		</contour>
	</outline>
</glyph>
<glyph name="dollar" format="2">
	<advance width="1124"/>
	<unicode hex="0024"/>
	<outline>
		<contour>
			<point x="459" y="-15" type="curve" smooth="yes"/>
			<point x="707" y="-17"/>
			<point x="851" y="149"/>
			<point x="880" y="350" type="curve" smooth="yes"/>
			<point x="906" y="549"/>
			<point x="770" y="666"/>
			<point x="608" y="736" type="curve" smooth="yes"/>
			<point x="451" y="804"/>
			<point x="282" y="908"/>
			<point x="311" y="1100" type="curve" smooth="yes"/>
			<point x="337" y="1267"/>
			<point x="497" y="1394"/>
			<point x="672" y="1393" type="curve" smooth="yes"/>
			<point x="865" y="1392"/>
			<point x="945" y="1239"/>
			<point x="967" y="1096" type="curve"/>
			<point x="987" y="1100" type="line"/>
			<point x="967" y="1252"/>
			<point x="880" y="1414"/>
			<point x="674" y="1415" type="curve" smooth="yes"/>
			<point x="488" y="1416"/>
			<point x="315" y="1283"/>
			<point x="289" y="1100" type="curve" smooth="yes"/>
			<point x="260" y="897"/>
			<point x="439" y="786"/>
			<point x="595" y="718" type="curve" smooth="yes"/>
			<point x="744" y="652"/>
			<point x="884" y="540"/>
			<point x="859" y="350" type="curve" smooth="yes"/>
			<point x="831" y="155"/>
			<point x="694" y="5"/>
			<point x="461" y="7" type="curve" smooth="yes"/>
			<point x="232" y="9"/>
			<point x="153" y="211"/>
			<point x="124" y="394" type="curve"/>
			<point x="103" y="386" type="line"/>
			<point x="134" y="195"/>
			<point x="221" y="-13"/>
		</contour>
		<contour>
			<point x="415" y="-224" type="line"/>
			<point x="435" y="-224" type="line"/>
			<point x="471" y="-4" type="line"/>
			<point x="452" y="-4" type="line"/>
		</contour>
		<contour>
			<point x="661" y="1401" type="line"/>
			<point x="681" y="1401" type="line"/>
			<point x="720" y="1635" type="line"/>
			<point x="700" y="1635" type="line"/>
		</contour>
	</outline>
</glyph>
<glyph name="ampersand" format="2">
	<advance width="1310"/>
	<unicode hex="0026"/>
	<outline>
		<contour>
			<point x="439" y="-19" type="curve" smooth="yes"/>
			<point x="807" y="-20"/>
			<point x="1026" y="361"/>
			<point x="1249" y="620" type="curve"/>
			<point x="1234" y="631" type="line"/>
			<point x="1015" y="374"/>
			<point x="796" y="-1"/>
			<point x="440" y="1" type="curve" smooth="yes"/>
			<point x="230" y="2"/>
			<point x="86" y="136"/>
			<point x="116" y="346" type="curve" smooth="yes"/>
			<point x="154" y="609"/>
			<point x="421" y="700"/>
			<point x="596" y="800" type="curve" smooth="yes"/>
			<point x="762" y="896"/>
			<point x="905" y="996"/>
			<point x="931" y="1148" type="curve" smooth="yes"/>
			<point x="952" y="1280"/>
			<point x="874" y="1419"/>
			<point x="704" y="1421" type="curve" smooth="yes"/>
			<point x="522" y="1424"/>
			<point x="394" y="1303"/>
			<point x="369" y="1153" type="curve" smooth="yes"/>
			<point x="352" y="1030"/>
			<point x="396" y="939"/>
			<point x="452" y="854" type="curve" smooth="yes"/>
			<point x="1050" y="0" type="line"/>
			<point x="1075" y="0" type="line"/>
			<point x="468" y="870" type="line" smooth="yes"/>
			<point x="416" y="949"/>
			<point x="373" y="1033"/>
			<point x="389" y="1152" type="curve" smooth="yes"/>
			<point x="412" y="1288"/>
			<point x="533" y="1404"/>
			<point x="703" y="1401" type="curve" smooth="yes"/>
			<point x="862" y="1398"/>
			<point x="931" y="1267"/>
			<point x="911" y="1148" type="curve" smooth="yes"/>
			<point x="885" y="1006"/>
			<point x="742" y="904"/>
			<point x="583" y="814" type="curve" smooth="yes"/>
			<point x="409" y="718"/>
			<point x="134" y="619"/>
			<point x="96" y="346" type="curve" smooth="yes"/>
			<point x="65" y="124"/>
			<point x="219" y="-18"/>
		</contour>
	</outline>
</glyph>
<glyph name="quotesingle" format="2">
	<advance width="432"/>
	<unicode hex="0027"/>
	<outline>
		<contour>
			<point x="268" y="841" type="line"/>
			<point x="282" y="841" type="line"/>
			<point x="480" y="1399" type="line"/>
			<point x="454" y="1399" type="line"/>
		</contour>
	</outline>
</glyph>
<glyph name="parenleft" format="2">
	<advance width="464"/>
	<unicode hex="0028"/>
	<outline>
		<contour>
			<point x="302" y="-400" type="curve"/>
			<point x="312" y="-400" type="line"/>
			<point x="219" y="-74"/>
			<point x="200" y="251"/>
			<point x="249" y="580" type="curve" smooth="yes"/>
			<point x="303" y="927"/>
			<point x="428" y="1252"/>
			<point x="615" y="1559" type="curve"/>
			<point x="605" y="1559" type="line"/>
			<point x="407" y="1265"/>
			<point x="283" y="928"/>
			<point x="229" y="580" type="curve" smooth="yes"/>
			<point x="180" y="251"/>
			<point x="196" y="-85"/>
		</contour>
	</outline>
</glyph>
<glyph name="parenright" format="2">
	<advance width="464"/>
	<unicode hex="0029"/>
	<outline>
		<contour>
			<point x="-39" y="-399" type="curve"/>
			<point x="-29" y="-399" type="line"/>
			<point x="169" y="-105"/>
			<point x="293" y="232"/>
			<point x="347" y="580" type="curve" smooth="yes"/>
			<point x="396" y="909"/>
			<point x="380" y="1245"/>
			<point x="274" y="1560" type="curve"/>
			<point x="264" y="1560" type="line"/>
			<point x="357" y="1234"/>
			<point x="375" y="909"/>
			<point x="326" y="580" type="curve" smooth="yes"/>
			<point x="272" y="233"/>
			<point x="148" y="-92"/>
		</contour>
	</outline>
</glyph>
<glyph name="asterisk" format="2">
	<advance width="1148"/>
	<unicode hex="002A"/>
	<outline>
		<contour>
			<point x="459" y="762" type="line"/>
			<point x="702" y="1044" type="line"/>
			<point x="695" y="1054" type="line"/>
			<point x="441" y="776" type="line"/>
		</contour>
		<contour>
			<point x="698" y="1045" type="line"/>
			<point x="705" y="1056" type="line"/>
			<point x="399" y="1169" type="line"/>
			<point x="389" y="1146" type="line"/>
		</contour>
		<contour>
			<point x="841" y="760" type="line"/>
			<point x="862" y="774" type="line"/>
			<point x="703" y="1054" type="line"/>
			<point x="694" y="1044" type="line"/>
		</contour>
		<contour>
			<point x="692" y="1051" type="line"/>
			<point x="704" y="1051" type="line"/>
			<point x="773" y="1399" type="line"/>
			<point x="749" y="1399" type="line"/>
		</contour>
		<contour>
			<point x="700" y="1045" type="line"/>
			<point x="1042" y="1145" type="line"/>
			<point x="1040" y="1169" type="line"/>
			<point x="696" y="1057" type="line"/>
		</contour>
	</outline>
</glyph>
<glyph name="plus" format="2">
	<advance width="1066"/>
	<unicode hex="002B"/>
	<outline>
		<contour>
			<point x="469" y="61" type="line"/>
			<point x="489" y="61" type="line"/>
			<point x="645" y="959" type="line"/>
			<point x="625" y="959" type="line"/>
		</contour>
		<contour>
			<point x="157" y="500" type="line"/>
			<point x="953" y="500" type="line"/>
			<point x="957" y="520" type="line"/>
			<point x="160" y="520" type="line"/>
		</contour>
	</outline>
</glyph>
<glyph name="comma" format="2">
	<advance width="534"/>
	<unicode hex="002C"/>
	<outline>
		<contour>
			<point x="37" y="-320" type="line"/>
			<point x="339" y="176" type="line"/>
			<point x="319" y="186" type="line"/>
			<point x="25" y="-316" type="line"/>
		</contour>
	</outline>
</glyph>
<glyph name="hyphen" format="2">
	<advance width="406"/>
	<unicode hex="002D"/>
	<outline>
		<contour>
			<point x="46" y="530" type="line"/>
			<point x="434" y="530" type="line"/>
			<point x="438" y="550" type="line"/>
			<point x="49" y="550" type="line"/>
		</contour>
	</outline>
</glyph>
<glyph name="period" format="2">
	<advance width="504"/>
	<unicode hex="002E"/>
	<outline>
		<contour>
			<point x="198" y="-20" type="curve" smooth="yes"/>
			<point x="210" y="-20"/>
			<point x="220" y="-11"/>
			<point x="220" y="2" type="curve" smooth="yes"/>
			<point x="220" y="15"/>
			<point x="210" y="24"/>
			<point x="198" y="24" type="curve" smooth="yes"/>
			<point x="186" y="24"/>
			<point x="176" y="15"/>
			<point x="176" y="2" type="curve" smooth="yes"/>
			<point x="176" y="-11"/>
			<point x="186" y="-20"/>
		</contour>
	</outline>
</glyph>
<glyph name="slash" format="2">
	<advance width="920"/>
	<unicode hex="002F"/>
	<outline>
		<contour>
			<point x="-54" y="-299" type="line"/>
			<point x="1079" y="1398" type="line"/>
			<point x="1055" y="1399" type="line"/>
			<point x="-78" y="-298" type="line"/>
		</contour>
	</outline>
</glyph>
<glyph name="zero" format="2">
	<advance width="1066"/>
	<unicode hex="0030"/>
	<outline>
		<contour>
			<point x="477" y="-19" type="curve" smooth="yes"/>
			<point x="790" y="-21"/>
			<point x="979" y="362"/>
			<point x="1026" y="700" type="curve" smooth="yes"/>
			<point x="1061" y="1003"/>
			<point x="1038" y="1417"/>
			<point x="721" y="1419" type="curve" smooth="yes"/>
			<point x="408" y="1421"/>
			<point x="219" y="1038"/>
			<point x="172" y="700" type="curve" smooth="yes"/>
			<point x="137" y="397"/>
			<point x="160" y="-17"/>
		</contour>
		<contour>
			<point x="478" y="0" type="curve" smooth="yes"/>
			<point x="177" y="2"/>
			<point x="161" y="417"/>
			<point x="194" y="700" type="curve" smooth="yes"/>
			<point x="239" y="1020"/>
			<point x="421" y="1401"/>
			<point x="720" y="1399" type="curve" smooth="yes"/>
			<point x="1021" y="1397"/>
			<point x="1037" y="983"/>
			<point x="1004" y="700" type="curve" smooth="yes"/>
			<point x="959" y="380"/>
			<point x="777" y="-2"/>
		</contour>
	</outline>
</glyph>
<glyph name="one" format="2">
	<advance width="794"/>
	<unicode hex="0031"/>
	<outline>
		<contour>
			<point x="459" y="0" type="line"/>
			<point x="478" y="0" type="line"/>
			<point x="721" y="1410" type="line"/>
			<point x="357" y="1331" type="line"/>
			<point x="353" y="1309" type="line"/>
			<point x="696" y="1381" type="line"/>
		</contour>
	</outline>
</glyph>
<glyph name="two" format="2">
	<advance width="996"/>
	<unicode hex="0032"/>
	<outline>
		<contour>
			<point x="14" y="0" type="line"/>
			<point x="896" y="0" type="line"/>
			<point x="899" y="20" type="line"/>
			<point x="67" y="21" type="line"/>
			<point x="755" y="656" type="line" smooth="yes"/>
			<point x="866" y="760"/>
			<point x="977" y="877"/>
			<point x="1001" y="1038" type="curve" smooth="yes"/>
			<point x="1029" y="1215"/>
			<point x="932" y="1419"/>
			<point x="692" y="1421" type="curve" smooth="yes"/>
			<point x="427" y="1423"/>
			<point x="258" y="1185"/>
			<point x="212" y="921" type="curve"/>
			<point x="232" y="921" type="line"/>
			<point x="277" y="1171"/>
			<point x="437" y="1403"/>
			<point x="691" y="1401" type="curve" smooth="yes"/>
			<point x="922" y="1400"/>
			<point x="1008" y="1204"/>
			<point x="980" y="1038" type="curve" smooth="yes"/>
			<point x="956" y="876"/>
			<point x="846" y="770"/>
			<point x="737" y="668" type="curve" smooth="yes"/>
		</contour>
	</outline>
</glyph>
<glyph name="three" format="2">
	<advance width="1068"/>
	<unicode hex="0033"/>
	<outline>
		<contour>
			<point x="503" y="-19" type="curve" smooth="yes"/>
			<point x="738" y="-19"/>
			<point x="933" y="134"/>
			<point x="964" y="350" type="curve" smooth="yes"/>
			<point x="999" y="597"/>
			<point x="769" y="724"/>
			<point x="559" y="735" type="curve"/>
			<point x="557" y="719" type="line"/>
			<point x="746" y="707"/>
			<point x="977" y="588"/>
			<point x="944" y="350" type="curve" smooth="yes"/>
			<point x="914" y="148"/>
			<point x="728" y="0"/>
			<point x="504" y="1" type="curve" smooth="yes"/>
			<point x="260" y="2"/>
			<point x="149" y="162"/>
			<point x="169" y="370" type="curve"/>
			<point x="150" y="370" type="line"/>
			<point x="129" y="155"/>
			<point x="250" y="-19"/>
		</contour>
		<contour>
			<point x="558" y="725" type="line"/>
			<point x="770" y="735"/>
			<point x="1000" y="847"/>
			<point x="1035" y="1067" type="curve" smooth="yes"/>
			<point x="1064" y="1246"/>
			<point x="948" y="1418"/>
			<point x="731" y="1419" type="curve" smooth="yes"/>
			<point x="503" y="1420"/>
			<point x="352" y="1258"/>
			<point x="310" y="1053" type="curve"/>
			<point x="330" y="1053" type="line"/>
			<point x="372" y="1243"/>
			<point x="514" y="1401"/>
			<point x="730" y="1399" type="curve" smooth="yes"/>
			<point x="933" y="1397"/>
			<point x="1042" y="1233"/>
			<point x="1015" y="1066" type="curve" smooth="yes"/>
			<point x="981" y="858"/>
			<point x="750" y="752"/>
			<point x="560" y="741" type="curve"/>
		</contour>
	</outline>
</glyph>
<glyph name="four" format="2">
	<advance width="1072"/>
	<unicode hex="0034"/>
	<outline>
		<contour>
			<point x="717" y="0" type="line"/>
			<point x="738" y="0" type="line"/>
			<point x="980" y="1399" type="line"/>
			<point x="977" y="1399" type="line"/>
			<point x="42" y="281" type="line"/>
			<point x="999" y="280" type="line"/>
			<point x="1002" y="300" type="line"/>
			<point x="782" y="300" type="line"/>
			<point x="776" y="300" type="line"/>
			<point x="83" y="301" type="line"/>
			<point x="946" y="1329" type="line"/>
			<point x="768" y="294" type="line"/>
			<point x="767" y="284" type="line"/>
		</contour>
	</outline>
</glyph>
<glyph name="five" format="2">
	<advance width="1080"/>
	<unicode hex="0035"/>
	<outline>
		<contour>
			<point x="476" y="-19" type="curve" smooth="yes"/>
			<point x="737" y="-20"/>
			<point x="950" y="176"/>
			<point x="986" y="460" type="curve" smooth="yes"/>
			<point x="1015" y="687"/>
			<point x="893" y="888"/>
			<point x="665" y="891" type="curve" smooth="yes"/>
			<point x="499" y="893"/>
			<point x="361" y="812"/>
			<point x="274" y="719" type="curve"/>
			<point x="536" y="1379" type="line"/>
			<point x="1162" y="1380" type="line"/>
			<point x="1165" y="1400" type="line"/>
			<point x="525" y="1400" type="line"/>
			<point x="230" y="656" type="line"/>
			<point x="345" y="780"/>
			<point x="489" y="873"/>
			<point x="664" y="871" type="curve" smooth="yes"/>
			<point x="880" y="868"/>
			<point x="995" y="673"/>
			<point x="967" y="460" type="curve" smooth="yes"/>
			<point x="931" y="190"/>
			<point x="727" y="0"/>
			<point x="477" y="1" type="curve" smooth="yes"/>
			<point x="282" y="2"/>
			<point x="183" y="114"/>
			<point x="133" y="284" type="curve"/>
			<point x="115" y="274" type="line"/>
			<point x="165" y="98"/>
			<point x="274" y="-19"/>
		</contour>
	</outline>
</glyph>
<glyph name="six" format="2">
	<advance width="1040"/>
	<unicode hex="0036"/>
	<outline>
		<contour>
			<point x="484" y="-19" type="curve" smooth="yes"/>
			<point x="749" y="-20"/>
			<point x="943" y="187"/>
			<point x="977" y="440" type="curve" smooth="yes"/>
			<point x="1006" y="659"/>
			<point x="870" y="871"/>
			<point x="640" y="874" type="curve" smooth="yes"/>
			<point x="491" y="876"/>
			<point x="365" y="807"/>
			<point x="267" y="711" type="curve"/>
			<point x="269" y="709" type="line"/>
			<point x="847" y="1398" type="line"/>
			<point x="822" y="1398" type="line"/>
			<point x="287" y="758" type="line" smooth="yes"/>
			<point x="217" y="675"/>
			<point x="149" y="557"/>
			<point x="130" y="440" type="curve" smooth="yes"/>
			<point x="96" y="197"/>
			<point x="220" y="-18"/>
		</contour>
		<contour>
			<point x="485" y="1" type="curve" smooth="yes"/>
			<point x="239" y="2"/>
			<point x="118" y="213"/>
			<point x="150" y="440" type="curve" smooth="yes"/>
			<point x="186" y="657"/>
			<point x="379" y="856"/>
			<point x="640" y="853" type="curve" smooth="yes"/>
			<point x="855" y="850"/>
			<point x="986" y="649"/>
			<point x="958" y="440" type="curve" smooth="yes"/>
			<point x="924" y="201"/>
			<point x="733" y="0"/>
		</contour>
	</outline>
</glyph>
<glyph name="seven" format="2">
	<advance width="998"/>
	<unicode hex="0037"/>
	<outline>
		<contour>
			<point x="205" y="0" type="line"/>
			<point x="227" y="0" type="line"/>
			<point x="1163" y="1399" type="line"/>
			<point x="249" y="1400" type="line"/>
			<point x="246" y="1380" type="line"/>
			<point x="1127" y="1379" type="line"/>
		</contour>
	</outline>
</glyph>
<glyph name="eight" format="2">
	<advance width="1000"/>
	<unicode hex="0038"/>
	<outline>
		<contour>
			<point x="444" y="-19" type="curve" smooth="yes"/>
			<point x="681" y="-20"/>
			<point x="852" y="157"/>
			<point x="885" y="370" type="curve" smooth="yes"/>
			<point x="914" y="570"/>
			<point x="774" y="742"/>
			<point x="572" y="743" type="curve" smooth="yes"/>
			<point x="366" y="744"/>
			<point x="168" y="576"/>
			<point x="134" y="370" type="curve" smooth="yes"/>
			<point x="101" y="166"/>
			<point x="208" y="-18"/>
		</contour>
		<contour>
			<point x="445" y="1" type="curve" smooth="yes"/>
			<point x="225" y="2"/>
			<point x="122" y="175"/>
			<point x="154" y="370" type="curve" smooth="yes"/>
			<point x="187" y="568"/>
			<point x="381" y="730"/>
			<point x="572" y="729" type="curve" smooth="yes"/>
			<point x="759" y="728"/>
			<point x="893" y="560"/>
			<point x="865" y="370" type="curve" smooth="yes"/>
			<point x="833" y="166"/>
			<point x="666" y="0"/>
		</contour>
		<contour>
			<point x="573" y="737" type="curve" smooth="yes"/>
			<point x="753" y="736"/>
			<point x="939" y="895"/>
			<point x="968" y="1081" type="curve" smooth="yes"/>
			<point x="995" y="1251"/>
			<point x="880" y="1418"/>
			<point x="688" y="1419" type="curve" smooth="yes"/>
			<point x="493" y="1420"/>
			<point x="324" y="1259"/>
			<point x="295" y="1082" type="curve" smooth="yes"/>
			<point x="269" y="903"/>
			<point x="396" y="738"/>
		</contour>
		<contour>
			<point x="573" y="751" type="curve" smooth="yes"/>
			<point x="418" y="753"/>
			<point x="290" y="914"/>
			<point x="314" y="1082" type="curve" smooth="yes"/>
			<point x="342" y="1251"/>
			<point x="502" y="1400"/>
			<point x="687" y="1399" type="curve" smooth="yes"/>
			<point x="869" y="1398"/>
			<point x="975" y="1244"/>
			<point x="948" y="1082" type="curve" smooth="yes"/>
			<point x="920" y="906"/>
			<point x="732" y="749"/>
		</contour>
	</outline>
</glyph>
<glyph name="nine" format="2">
	<advance width="1040"/>
	<unicode hex="0039"/>
	<outline>
		<contour>
			<point x="341" y="0" type="line"/>
			<point x="365" y="0" type="line"/>
			<point x="900" y="642" type="line" smooth="yes"/>
			<point x="970" y="725"/>
			<point x="1038" y="843"/>
			<point x="1057" y="960" type="curve" smooth="yes"/>
			<point x="1091" y="1203"/>
			<point x="967" y="1418"/>
			<point x="703" y="1419" type="curve" smooth="yes"/>
			<point x="438" y="1420"/>
			<point x="244" y="1213"/>
			<point x="210" y="960" type="curve" smooth="yes"/>
			<point x="181" y="741"/>
			<point x="317" y="529"/>
			<point x="547" y="526" type="curve" smooth="yes"/>
			<point x="696" y="524"/>
			<point x="822" y="593"/>
			<point x="920" y="689" type="curve"/>
			<point x="917" y="690" type="line"/>
		</contour>
		<contour>
			<point x="548" y="547" type="curve" smooth="yes"/>
			<point x="333" y="550"/>
			<point x="202" y="751"/>
			<point x="230" y="960" type="curve" smooth="yes"/>
			<point x="264" y="1199"/>
			<point x="454" y="1400"/>
			<point x="702" y="1399" type="curve" smooth="yes"/>
			<point x="948" y="1398"/>
			<point x="1070" y="1187"/>
			<point x="1038" y="960" type="curve" smooth="yes"/>
			<point x="1002" y="743"/>
			<point x="809" y="544"/>
		</contour>
	</outline>
</glyph>
<glyph name="colon" format="2">
	<advance width="582"/>
	<unicode hex="003A"/>
	<outline>
		<contour>
			<point x="317" y="676" type="curve" smooth="yes"/>
			<point x="329" y="676"/>
			<point x="339" y="685"/>
			<point x="339" y="698" type="curve" smooth="yes"/>
			<point x="339" y="711"/>
			<point x="329" y="720"/>
			<point x="317" y="720" type="curve" smooth="yes"/>
			<point x="305" y="720"/>
			<point x="295" y="711"/>
			<point x="295" y="698" type="curve" smooth="yes"/>
			<point x="295" y="685"/>
			<point x="305" y="676"/>
		</contour>
		<contour>
			<point x="198" y="-20" type="curve" smooth="yes"/>
			<point x="210" y="-20"/>
			<point x="220" y="-11"/>
			<point x="220" y="2" type="curve" smooth="yes"/>
			<point x="220" y="15"/>
			<point x="210" y="24"/>
			<point x="198" y="24" type="curve" smooth="yes"/>
			<point x="186" y="24"/>
			<point x="176" y="15"/>
			<point x="176" y="2" type="curve" smooth="yes"/>
			<point x="176" y="-11"/>
			<point x="186" y="-20"/>
		</contour>
	</outline>
</glyph>
<glyph name="semicolon" format="2">
	<advance width="534"/>
	<unicode hex="003B"/>
	<outline>
		<contour>
			<point x="37" y="-320" type="line"/>
			<point x="339" y="176" type="line"/>
			<point x="319" y="186" type="line"/>
			<point x="25" y="-316" type="line"/>
		</contour>
		<contour>
			<point x="375" y="676" type="curve" smooth="yes"/>
			<point x="387" y="676"/>
			<point x="397" y="685"/>
			<point x="397" y="698" type="curve" smooth="yes"/>
			<point x="397" y="711"/>
			<point x="387" y="720"/>
			<point x="375" y="720" type="curve" smooth="yes"/>
			<point x="363" y="720"/>
			<point x="353" y="711"/>
			<point x="353" y="698" type="curve" smooth="yes"/>
			<point x="353" y="685"/>
			<point x="363" y="676"/>
		</contour>
	</outline>
</glyph>
<glyph name="less" format="2">
	<advance width="1242"/>
	<unicode hex="003C"/>
	<outline>
		<contour>
			<point x="1078" y="91" type="line"/>
			<point x="1081" y="110" type="line"/>
			<point x="193" y="513" type="line"/>
			<point x="1219" y="919" type="line"/>
			<point x="1222" y="939" type="line"/>
			<point x="160" y="520" type="line"/>
			<point x="158" y="508" type="line"/>
		</contour>
	</outline>
</glyph>
<glyph name="equal" format="2">
	<advance width="1192"/>
	<unicode hex="003D"/>
	<outline>
		<contour>
			<point x="178" y="620" type="line"/>
			<point x="1119" y="620" type="line"/>
			<point x="1123" y="640" type="line"/>
			<point x="181" y="640" type="line"/>
		</contour>
		<contour>
			<point x="135" y="370" type="line"/>
			<point x="1077" y="370" type="line"/>
			<point x="1080" y="390" type="line"/>
			<point x="138" y="390" type="line"/>
		</contour>
	</outline>
</glyph>
<glyph name="greater" format="2">
	<advance width="1242"/>
	<unicode hex="003E"/>
	<outline>
		<contour>
			<point x="87" y="91" type="line"/>
			<point x="1149" y="510" type="line"/>
			<point x="1151" y="522" type="line"/>
			<point x="232" y="939" type="line"/>
			<point x="228" y="920" type="line"/>
			<point x="1117" y="516" type="line"/>
			<point x="90" y="111" type="line"/>
		</contour>
	</outline>
</glyph>
<glyph name="question" format="2">
	<advance width="1050"/>
	<unicode hex="003F"/>
	<outline>
		<contour>
			<point x="443" y="341" type="line"/>
			<point x="459" y="341" type="line"/>
			<point x="516" y="674" type="line"/>
			<point x="757" y="690"/>
			<point x="981" y="827"/>
			<point x="1021" y="1040" type="curve" smooth="yes"/>
			<point x="1055" y="1247"/>
			<point x="932" y="1417"/>
			<point x="699" y="1419" type="curve" smooth="yes"/>
			<point x="510" y="1420"/>
			<point x="382" y="1316"/>
			<point x="273" y="1188" type="curve"/>
			<point x="289" y="1176" type="line"/>
			<point x="394" y="1301"/>
			<point x="519" y="1400"/>
			<point x="698" y="1399" type="curve" smooth="yes"/>
			<point x="920" y="1398"/>
			<point x="1034" y="1233"/>
			<point x="1001" y="1040" type="curve" smooth="yes"/>
			<point x="960" y="830"/>
			<point x="738" y="702"/>
			<point x="496" y="690" type="curve"/>
			<point x="494" y="690" type="line"/>
		</contour>
		<contour>
			<point x="382" y="-20" type="curve" smooth="yes"/>
			<point x="394" y="-20"/>
			<point x="404" y="-11"/>
			<point x="404" y="2" type="curve" smooth="yes"/>
			<point x="404" y="15"/>
			<point x="395" y="24"/>
			<point x="383" y="24" type="curve" smooth="yes"/>
			<point x="371" y="24"/>
			<point x="361" y="14"/>
			<point x="361" y="2" type="curve" smooth="yes"/>
			<point x="361" y="-12"/>
			<point x="370" y="-20"/>
		</contour>
	</outline>
</glyph>
<glyph name="at" format="2">
	<advance width="1494"/>
	<unicode hex="0040"/>
	<outline>
		<contour>
			<point x="633" y="-15" type="curve" smooth="yes"/>
			<point x="834" y="-16"/>
			<point x="994" y="40"/>
			<point x="1134" y="101" type="curve"/>
			<point x="1125" y="121" type="line"/>
			<point x="991" y="60"/>
			<point x="830" y="5"/>
			<point x="635" y="7" type="curve" smooth="yes"/>
			<point x="255" y="10"/>
			<point x="91" y="291"/>
			<point x="144" y="640" type="curve" smooth="yes"/>
			<point x="211" y="1052"/>
			<point x="554" y="1398"/>
			<point x="990" y="1394" type="curve" smooth="yes"/>
			<point x="1358" y="1391"/>
			<point x="1536" y="1080"/>
			<point x="1484" y="780" type="curve" smooth="yes"/>
			<point x="1454" y="549"/>
			<point x="1262" y="309"/>
			<point x="1079" y="327" type="curve" smooth="yes"/>
			<point x="972" y="335"/>
			<point x="970" y="438"/>
			<point x="981" y="508" type="curve" smooth="yes"/>
			<point x="985" y="528"/>
			<point x="991" y="560"/>
			<point x="997" y="578" type="curve" smooth="yes"/>
			<point x="1158" y="1039" type="line"/>
			<point x="1134" y="1039" type="line"/>
			<point x="976" y="581" type="line"/>
			<point x="980" y="580" type="line"/>
			<point x="947" y="448"/>
			<point x="939" y="313"/>
			<point x="1077" y="305" type="curve" smooth="yes"/>
			<point x="1270" y="292"/>
			<point x="1474" y="525"/>
			<point x="1506" y="780" type="curve" smooth="yes"/>
			<point x="1559" y="1092"/>
			<point x="1371" y="1414"/>
			<point x="992" y="1416" type="curve" smooth="yes"/>
			<point x="546" y="1419"/>
			<point x="190" y="1060"/>
			<point x="122" y="640" type="curve" smooth="yes"/>
			<point x="67" y="279"/>
			<point x="239" y="-12"/>
		</contour>
		<contour>
			<point x="662" y="327" type="curve" smooth="yes"/>
			<point x="850" y="326"/>
			<point x="1013" y="538"/>
			<point x="1042" y="734" type="curve" smooth="yes"/>
			<point x="1062" y="883"/>
			<point x="1018" y="1050"/>
			<point x="859" y="1055" type="curve" smooth="yes"/>
			<point x="664" y="1061"/>
			<point x="482" y="873"/>
			<point x="452" y="640" type="curve" smooth="yes"/>
			<point x="431" y="475"/>
			<point x="500" y="328"/>
		</contour>
		<contour>
			<point x="660" y="349" type="curve" smooth="yes"/>
			<point x="512" y="352"/>
			<point x="455" y="495"/>
			<point x="474" y="640" type="curve" smooth="yes"/>
			<point x="502" y="858"/>
			<point x="674" y="1041"/>
			<point x="857" y="1033" type="curve" smooth="yes"/>
			<point x="1002" y="1027"/>
			<point x="1042" y="870"/>
			<point x="1024" y="740" type="curve" smooth="yes"/>
			<point x="996" y="551"/>
			<point x="844" y="345"/>
		</contour>
	</outline>
</glyph>
<glyph name="D" format="2">
	<advance width="1232"/>
	<unicode hex="0044"/>
	<outline>
		<contour>
			<point x="130" y="0" type="line"/>
			<point x="432" y="0" type="line" smooth="yes"/>
			<point x="840" y="0"/>
			<point x="1138" y="304"/>
			<point x="1201" y="700" type="curve" smooth="yes"/>
			<point x="1258" y="1077"/>
			<point x="1071" y="1400"/>
			<point x="669" y="1400" type="curve" smooth="yes"/>
			<point x="369" y="1400" type="line"/>
			<point x="365" y="1378" type="line"/>
			<point x="667" y="1378" type="line" smooth="yes"/>
			<point x="1059" y="1378"/>
			<point x="1235" y="1066"/>
			<point x="1179" y="700" type="curve" smooth="yes"/>
			<point x="1117" y="314"/>
			<point x="832" y="22"/>
			<point x="434" y="22" type="curve" smooth="yes"/>
			<point x="134" y="22" type="line"/>
		</contour>
		<contour>
			<point x="119" y="0" type="line"/>
			<point x="141" y="0" type="line"/>
			<point x="382" y="1399" type="line"/>
			<point x="360" y="1399" type="line"/>
		</contour>
	</outline>
</glyph>
<glyph name="F" format="2">
	<advance width="872"/>
	<unicode hex="0046"/>
	<outline>
		<contour>
			<point x="119" y="0" type="line"/>
			<point x="141" y="0" type="line"/>
			<point x="382" y="1399" type="line"/>
			<point x="360" y="1399" type="line"/>
		</contour>
		<contour>
			<point x="253" y="746" type="line"/>
			<point x="811" y="746" type="line"/>
			<point x="814" y="766" type="line"/>
			<point x="257" y="766" type="line"/>
		</contour>
		<contour>
			<point x="361" y="1378" type="line"/>
			<point x="938" y="1378" type="line"/>
			<point x="942" y="1400" type="line"/>
			<point x="365" y="1400" type="line"/>
		</contour>
	</outline>
</glyph>
<glyph name="I" format="2">
	<advance width="348"/>
	<unicode hex="0049"/>
	<outline>
		<contour>
			<point x="109" y="0" type="line"/>
			<point x="129" y="0" type="line"/>
			<point x="371" y="1399" type="line"/>
			<point x="351" y="1399" type="line"/>
		</contour>
	</outline>
</glyph>
<glyph name="J" format="2">
	<advance width="382"/>
	<unicode hex="004A"/>
	<outline>
		<contour>
			<point x="-159" y="-439" type="curve" smooth="yes"/>
			<point x="28" y="-442"/>
			<point x="106" y="-306"/>
			<point x="134" y="-120" type="curve" smooth="yes"/>
			<point x="394" y="1399" type="line"/>
			<point x="372" y="1399" type="line"/>
			<point x="115" y="-100" type="line" smooth="yes"/>
			<point x="88" y="-290"/>
			<point x="20" y="-420"/>
			<point x="-160" y="-417" type="curve" smooth="yes"/>
			<point x="-244" y="-416"/>
			<point x="-309" y="-368"/>
			<point x="-356" y="-317" type="curve"/>
			<point x="-371" y="-330" type="line"/>
			<point x="-332" y="-381"/>
			<point x="-254" y="-438"/>
		</contour>
	</outline>
</glyph>
<glyph name="K" format="2">
	<advance width="880"/>
	<unicode hex="004B"/>
	<outline>
		<contour>
			<point x="766" y="0" type="line"/>
			<point x="796" y="0" type="line"/>
			<point x="282" y="743" type="line"/>
			<point x="1009" y="1398" type="line"/>
			<point x="977" y="1398" type="line"/>
			<point x="255" y="745" type="line"/>
		</contour>
		<contour>
			<point x="109" y="0" type="line"/>
			<point x="131" y="0" type="line"/>
			<point x="372" y="1399" type="line"/>
			<point x="351" y="1399" type="line"/>
		</contour>
	</outline>
</glyph>
<glyph name="L" format="2">
	<advance width="834"/>
	<unicode hex="004C"/>
	<outline>
		<contour>
			<point x="120" y="0" type="line"/>
			<point x="742" y="0" type="line"/>
			<point x="745" y="20" type="line"/>
			<point x="143" y="20" type="line"/>
			<point x="380" y="1399" type="line"/>
			<point x="360" y="1399" type="line"/>
		</contour>
	</outline>
</glyph>
<glyph name="M" format="2">
	<advance width="1610"/>
	<unicode hex="004D"/>
	<outline>
		<contour>
			<point x="61" y="0" type="line"/>
			<point x="82" y="0" type="line"/>
			<point x="453" y="1349" type="line"/>
			<point x="787" y="209" type="line"/>
			<point x="1513" y="1347" type="line"/>
			<point x="1418" y="0" type="line"/>
			<point x="1439" y="0" type="line"/>
			<point x="1541" y="1431" type="line"/>
			<point x="795" y="263" type="line"/>
			<point x="453" y="1430" type="line"/>
		</contour>
	</outline>
</glyph>
<glyph name="N" format="2">
	<advance width="1290"/>
	<unicode hex="004E"/>
	<outline>
		<contour>
			<point x="1095" y="-30" type="line"/>
			<point x="1341" y="1399" type="line"/>
			<point x="1319" y="1399" type="line"/>
			<point x="1084" y="34" type="line"/>
			<point x="287" y="1430" type="line"/>
			<point x="41" y="0" type="line"/>
			<point x="63" y="0" type="line"/>
			<point x="297" y="1356" type="line"/>
		</contour>
	</outline>
</glyph>
<glyph name="R" format="2">
	<advance width="908"/>
	<unicode hex="0052"/>
	<outline>
		<contour>
			<point x="231" y="628" type="line"/>
			<point x="452" y="628" type="line"/>
			<point x="711" y="632"/>
			<point x="934" y="762"/>
			<point x="975" y="1014" type="curve" smooth="yes"/>
			<point x="1015" y="1262"/>
			<point x="830" y="1400"/>
			<point x="582" y="1400" type="curve" smooth="yes"/>
			<point x="363" y="1400" type="line"/>
			<point x="359" y="1378" type="line"/>
			<point x="580" y="1378" type="line"/>
			<point x="819" y="1373"/>
			<point x="993" y="1251"/>
			<point x="954" y="1014" type="curve" smooth="yes"/>
			<point x="914" y="774"/>
			<point x="703" y="652"/>
			<point x="453" y="648" type="curve"/>
			<point x="235" y="648" type="line"/>
		</contour>
		<contour>
			<point x="760" y="0" type="line"/>
			<point x="786" y="0" type="line"/>
			<point x="463" y="634" type="line"/>
			<point x="440" y="634" type="line"/>
		</contour>
		<contour>
			<point x="119" y="0" type="line"/>
			<point x="141" y="0" type="line"/>
			<point x="382" y="1399" type="line"/>
			<point x="360" y="1399" type="line"/>
		</contour>
	</outline>
</glyph>
<glyph name="S" format="2">
	<advance width="946"/>
	<unicode hex="0053"/>
	<outline>
		<contour>
			<point x="439" y="-15" type="curve" smooth="yes"/>
			<point x="688" y="-17"/>
			<point x="834" y="149"/>
			<point x="866" y="350" type="curve" smooth="yes"/>
			<point x="894" y="548"/>
			<point x="760" y="666"/>
			<point x="600" y="736" type="curve" smooth="yes"/>
			<point x="443" y="805"/>
			<point x="278" y="909"/>
			<point x="310" y="1100" type="curve" smooth="yes"/>
			<point x="338" y="1267"/>
			<point x="500" y="1394"/>
			<point x="676" y="1393" type="curve" smooth="yes"/>
			<point x="869" y="1392"/>
			<point x="946" y="1238"/>
			<point x="965" y="1096" type="curve"/>
			<point x="985" y="1100" type="line"/>
			<point x="967" y="1252"/>
			<point x="883" y="1414"/>
			<point x="677" y="1415" type="curve" smooth="yes"/>
			<point x="491" y="1416"/>
			<point x="317" y="1283"/>
			<point x="288" y="1100" type="curve" smooth="yes"/>
			<point x="257" y="897"/>
			<point x="431" y="787"/>
			<point x="587" y="718" type="curve" smooth="yes"/>
			<point x="736" y="651"/>
			<point x="871" y="539"/>
			<point x="844" y="350" type="curve" smooth="yes"/>
			<point x="813" y="155"/>
			<point x="674" y="5"/>
			<point x="440" y="7" type="curve" smooth="yes"/>
			<point x="211" y="9"/>
			<point x="136" y="219"/>
			<point x="110" y="394" type="curve"/>
			<point x="90" y="386" type="line"/>
			<point x="118" y="196"/>
			<point x="201" y="-13"/>
		</contour>
	</outline>
</glyph>
<glyph name="V" format="2">
	<advance width="1164"/>
	<unicode hex="0056"/>
	<outline>
		<contour>
			<point x="542" y="-30" type="line"/>
			<point x="1318" y="1399" type="line"/>
			<point x="1292" y="1399" type="line"/>
			<point x="551" y="30" type="line"/>
			<point x="236" y="1400" type="line"/>
			<point x="211" y="1400" type="line"/>
		</contour>
	</outline>
</glyph>
<glyph name="X" format="2">
	<advance width="970"/>
	<unicode hex="0058"/>
	<outline>
		<contour>
			<point x="3" y="0" type="line"/>
			<point x="31" y="0" type="line"/>
			<point x="566" y="711" type="line"/>
			<point x="871" y="0" type="line"/>
			<point x="898" y="0" type="line"/>
			<point x="581" y="733" type="line"/>
			<point x="1085" y="1398" type="line"/>
			<point x="1057" y="1398" type="line"/>
			<point x="572" y="755" type="line"/>
			<point x="295" y="1400" type="line"/>
			<point x="268" y="1400" type="line"/>
			<point x="557" y="735" type="line"/>
		</contour>
	</outline>
</glyph>
<glyph name="Y" format="2">
	<advance width="984"/>
	<unicode hex="0059"/>
	<outline>
		<contour>
			<point x="416" y="0" type="line"/>
			<point x="438" y="0" type="line"/>
			<point x="530" y="533" type="line"/>
			<point x="1141" y="1398" type="line"/>
			<point x="1115" y="1398" type="line"/>
			<point x="522" y="563" type="line"/>
			<point x="239" y="1400" type="line"/>
			<point x="214" y="1400" type="line"/>
			<point x="509" y="533" type="line"/>
		</contour>
	</outline>
</glyph>
<glyph name="Z" format="2">
	<advance width="1038"/>
	<unicode hex="005A"/>
	<outline>
		<contour>
			<point x="-17" y="0" type="line"/>
			<point x="936" y="0" type="line"/>
			<point x="940" y="23" type="line"/>
			<point x="32" y="23" type="line"/>
			<point x="1195" y="1400" type="line"/>
			<point x="262" y="1400" type="line"/>
			<point x="258" y="1378" type="line"/>
			<point x="1147" y="1378" type="line"/>
		</contour>
	</outline>
</glyph>
<glyph name="bracketleft" format="2">
	<advance width="504"/>
	<unicode hex="005B"/>
	<outline>
		<contour>
			<point x="91" y="-440" type="line"/>
			<point x="364" y="-440" type="line"/>
			<point x="367" y="-418" type="line"/>
			<point x="117" y="-418" type="line"/>
			<point x="419" y="1538" type="line"/>
			<point x="669" y="1538" type="line"/>
			<point x="672" y="1560" type="line"/>
			<point x="400" y="1560" type="line"/>
		</contour>
	</outline>
</glyph>
<glyph name="backslash" format="2">
	<advance width="844"/>
	<unicode hex="005C"/>
	<outline>
		<contour>
			<point x="736" y="0" type="line"/>
			<point x="761" y="0" type="line"/>
			<point x="239" y="1400" type="line"/>
			<point x="214" y="1400" type="line"/>
		</contour>
	</outline>
</glyph>
<glyph name="bracketright" format="2">
	<advance width="504"/>
	<unicode hex="005D"/>
	<outline>
		<contour>
			<point x="-63" y="-440" type="line"/>
			<point x="208" y="-440" type="line"/>
			<point x="517" y="1560" type="line"/>
			<point x="245" y="1560" type="line"/>
			<point x="241" y="1538" type="line"/>
			<point x="491" y="1538" type="line"/>
			<point x="190" y="-418" type="line"/>
			<point x="-60" y="-418" type="line"/>
		</contour>
	</outline>
</glyph>
<glyph name="asciicircum" format="2">
	<advance width="988"/>
	<unicode hex="005E"/>
	<outline>
		<contour>
			<point x="941" y="920" type="line"/>
			<point x="968" y="920" type="line"/>
			<point x="681" y="1418" type="line"/>
			<point x="682" y="1418" type="line"/>
			<point x="227" y="922" type="line"/>
			<point x="257" y="922" type="line"/>
			<point x="677" y="1383" type="line"/>
		</contour>
	</outline>
</glyph>
<glyph name="underscore" format="2">
	<advance width="970"/>
	<unicode hex="005F"/>
	<outline>
		<contour>
			<point x="-92" y="-218" type="line"/>
			<point x="879" y="-218" type="line"/>
			<point x="883" y="-196" type="line"/>
			<point x="-88" y="-196" type="line"/>
		</contour>
	</outline>
</glyph>
<glyph name="grave" format="2">
	<advance width="684"/>
	<unicode hex="0060"/>
	<outline>
		<contour>
			<point x="662" y="1071" type="line"/>
			<point x="672" y="1080" type="line"/>
			<point x="389" y="1399" type="line"/>
			<point x="372" y="1384" type="line"/>
		</contour>
	</outline>
</glyph>
<glyph name="c" format="2">
	<advance width="946"/>
	<unicode hex="0063"/>
	<outline>
		<contour>
			<point x="494" y="-19" type="curve" smooth="yes"/>
			<point x="627" y="-19"/>
			<point x="741" y="38"/>
			<point x="812" y="95" type="curve"/>
			<point x="816" y="120" type="line"/>
			<point x="745" y="64"/>
			<point x="630" y="1"/>
			<point x="495" y="1" type="curve" smooth="yes"/>
			<point x="244" y="2"/>
			<point x="100" y="219"/>
			<point x="133" y="460" type="curve" smooth="yes"/>
			<point x="170" y="712"/>
			<point x="384" y="919"/>
			<point x="638" y="919" type="curve" smooth="yes"/>
			<point x="764" y="919"/>
			<point x="866" y="862"/>
			<point x="920" y="799" type="curve"/>
			<point x="924" y="824" type="line"/>
			<point x="867" y="885"/>
			<point x="764" y="939"/>
			<point x="639" y="939" type="curve" smooth="yes"/>
			<point x="372" y="940"/>
			<point x="151" y="723"/>
			<point x="114" y="460" type="curve" smooth="yes"/>
			<point x="80" y="208"/>
			<point x="230" y="-19"/>
		</contour>
	</outline>
</glyph>
<glyph name="f" format="2">
	<advance width="538"/>
	<unicode hex="0066"/>
	<outline>
		<contour>
			<point x="129" y="0" type="line"/>
			<point x="149" y="0" type="line"/>
			<point x="372" y="1300" type="line" smooth="yes"/>
			<point x="394" y="1412"/>
			<point x="457" y="1559"/>
			<point x="607" y="1555" type="curve" smooth="yes"/>
			<point x="673" y="1553"/>
			<point x="713" y="1508"/>
			<point x="743" y="1466" type="curve"/>
			<point x="758" y="1480" type="line"/>
			<point x="727" y="1525"/>
			<point x="683" y="1573"/>
			<point x="608" y="1575" type="curve" smooth="yes"/>
			<point x="448" y="1580"/>
			<point x="374" y="1430"/>
			<point x="351" y="1300" type="curve" smooth="yes"/>
		</contour>
		<contour>
			<point x="196" y="900" type="line"/>
			<point x="575" y="900" type="line"/>
			<point x="578" y="920" type="line"/>
			<point x="200" y="920" type="line"/>
		</contour>
	</outline>
</glyph>
<glyph name="i" format="2">
	<advance width="368"/>
	<unicode hex="0069"/>
	<outline>
		<contour>
			<point x="119" y="0" type="line"/>
			<point x="139" y="0" type="line"/>
			<point x="299" y="919" type="line"/>
			<point x="279" y="919" type="line"/>
		</contour>
		<contour>
			<point x="368" y="1370" type="curve" smooth="yes"/>
			<point x="381" y="1370"/>
			<point x="388" y="1378"/>
			<point x="388" y="1390" type="curve" smooth="yes"/>
			<point x="388" y="1402"/>
			<point x="381" y="1410"/>
			<point x="368" y="1410" type="curve" smooth="yes"/>
			<point x="355" y="1410"/>
			<point x="348" y="1402"/>
			<point x="348" y="1390" type="curve" smooth="yes"/>
			<point x="348" y="1378"/>
			<point x="355" y="1370"/>
		</contour>
	</outline>
</glyph>
<glyph name="j" format="2">
	<advance width="348"/>
	<unicode hex="006A"/>
	<outline>
		<contour>
			<point x="-164" y="-439" type="curve" smooth="yes"/>
			<point x="-4" y="-439"/>
			<point x="70" y="-294"/>
			<point x="93" y="-164" type="curve" smooth="yes"/>
			<point x="279" y="919" type="line"/>
			<point x="259" y="919" type="line"/>
			<point x="73" y="-164" type="line" smooth="yes"/>
			<point x="53" y="-272"/>
			<point x="-12" y="-419"/>
			<point x="-164" y="-419" type="curve" smooth="yes"/>
			<point x="-229" y="-419"/>
			<point x="-271" y="-369"/>
			<point x="-298" y="-330" type="curve"/>
			<point x="-314" y="-344" type="line"/>
			<point x="-283" y="-389"/>
			<point x="-239" y="-439"/>
		</contour>
		<contour>
			<point x="348" y="1370" type="curve" smooth="yes"/>
			<point x="361" y="1370"/>
			<point x="368" y="1378"/>
			<point x="368" y="1390" type="curve" smooth="yes"/>
			<point x="368" y="1402"/>
			<point x="361" y="1410"/>
			<point x="348" y="1410" type="curve" smooth="yes"/>
			<point x="335" y="1410"/>
			<point x="328" y="1402"/>
			<point x="328" y="1390" type="curve" smooth="yes"/>
			<point x="328" y="1378"/>
			<point x="335" y="1370"/>
		</contour>
	</outline>
</glyph>
<glyph name="k" format="2">
	<advance width="722"/>
	<unicode hex="006B"/>
	<outline>
		<contour>
			<point x="623" y="0" type="line"/>
			<point x="648" y="0" type="line"/>
			<point x="234" y="539" type="line"/>
			<point x="771" y="918" type="line"/>
			<point x="739" y="918" type="line"/>
			<point x="209" y="541" type="line"/>
		</contour>
		<contour>
			<point x="100" y="0" type="line"/>
			<point x="119" y="0" type="line"/>
			<point x="388" y="1559" type="line"/>
			<point x="368" y="1559" type="line"/>
		</contour>
	</outline>
</glyph>
<glyph name="l" format="2">
	<advance width="348"/>
	<unicode hex="006C"/>
	<outline>
		<contour>
			<point x="109" y="0" type="line"/>
			<point x="129" y="0" type="line"/>
			<point x="398" y="1559" type="line"/>
			<point x="378" y="1559" type="line"/>
		</contour>
	</outline>
</glyph>
<glyph name="m" format="2">
	<advance width="1338"/>
	<unicode hex="006D"/>
	<outline>
		<contour>
			<point x="1099" y="0" type="line"/>
			<point x="1119" y="0" type="line"/>
			<point x="1230" y="640" type="line" smooth="yes"/>
			<point x="1248" y="787"/>
			<point x="1218" y="936"/>
			<point x="1060" y="939" type="curve" smooth="yes"/>
			<point x="885" y="943"/>
			<point x="742" y="749"/>
			<point x="705" y="562" type="curve"/>
			<point x="719" y="562" type="line"/>
			<point x="755" y="729"/>
			<point x="894" y="923"/>
			<point x="1059" y="919" type="curve" smooth="yes"/>
			<point x="1205" y="916"/>
			<point x="1226" y="773"/>
			<point x="1210" y="640" type="curve" smooth="yes"/>
		</contour>
		<contour>
			<point x="109" y="0" type="line"/>
			<point x="129" y="0" type="line"/>
			<point x="289" y="919" type="line"/>
			<point x="269" y="919" type="line"/>
		</contour>
		<contour>
			<point x="604" y="0" type="line"/>
			<point x="624" y="0" type="line"/>
			<point x="735" y="640" type="line" smooth="yes"/>
			<point x="753" y="787"/>
			<point x="723" y="936"/>
			<point x="565" y="939" type="curve" smooth="yes"/>
			<point x="390" y="943"/>
			<point x="250" y="748"/>
			<point x="214" y="562" type="curve"/>
			<point x="224" y="562" type="line"/>
			<point x="260" y="730"/>
			<point x="400" y="923"/>
			<point x="564" y="919" type="curve" smooth="yes"/>
			<point x="710" y="916"/>
			<point x="731" y="773"/>
			<point x="715" y="640" type="curve" smooth="yes"/>
		</contour>
	</outline>
</glyph>
<glyph name="n" format="2">
	<advance width="920"/>
	<unicode hex="006E"/>
	<outline>
		<contour>
			<point x="682" y="0" type="line"/>
			<point x="701" y="0" type="line"/>
			<point x="813" y="640" type="line" smooth="yes"/>
			<point x="834" y="798"/>
			<point x="788" y="938"/>
			<point x="604" y="939" type="curve" smooth="yes"/>
			<point x="401" y="940"/>
			<point x="255" y="758"/>
			<point x="214" y="562" type="curve"/>
			<point x="224" y="562" type="line"/>
			<point x="265" y="738"/>
			<point x="410" y="921"/>
			<point x="603" y="919" type="curve" smooth="yes"/>
			<point x="776" y="917"/>
			<point x="812" y="785"/>
			<point x="793" y="640" type="curve" smooth="yes"/>
		</contour>
		<contour>
			<point x="109" y="0" type="line"/>
			<point x="129" y="0" type="line"/>
			<point x="289" y="919" type="line"/>
			<point x="269" y="919" type="line"/>
		</contour>
	</outline>
</glyph>
<glyph name="o" format="2">
	<advance width="1078"/>
	<unicode hex="006F"/>
	<outline>
		<contour>
			<point x="503" y="-19" type="curve" smooth="yes"/>
			<point x="770" y="-20"/>
			<point x="992" y="197"/>
			<point x="1029" y="460" type="curve" smooth="yes"/>
			<point x="1063" y="712"/>
			<point x="913" y="938"/>
			<point x="649" y="939" type="curve" smooth="yes"/>
			<point x="382" y="940"/>
			<point x="160" y="723"/>
			<point x="123" y="460" type="curve" smooth="yes"/>
			<point x="89" y="208"/>
			<point x="239" y="-18"/>
		</contour>
		<contour>
			<point x="504" y="1" type="curve" smooth="yes"/>
			<point x="253" y="2"/>
			<point x="110" y="219"/>
			<point x="143" y="460" type="curve" smooth="yes"/>
			<point x="179" y="712"/>
			<point x="394" y="920"/>
			<point x="648" y="919" type="curve" smooth="yes"/>
			<point x="899" y="918"/>
			<point x="1042" y="701"/>
			<point x="1009" y="460" type="curve" smooth="yes"/>
			<point x="973" y="208"/>
			<point x="758" y="0"/>
		</contour>
	</outline>
</glyph>
<glyph name="r" format="2">
	<advance width="562"/>
	<unicode hex="0072"/>
	<outline>
		<contour>
			<point x="109" y="0" type="line"/>
			<point x="129" y="0" type="line"/>
			<point x="289" y="919" type="line"/>
			<point x="269" y="919" type="line"/>
		</contour>
		<contour>
			<point x="214" y="561" type="curve"/>
			<point x="224" y="561" type="line"/>
			<point x="254" y="725"/>
			<point x="345" y="924"/>
			<point x="516" y="919" type="curve" smooth="yes"/>
			<point x="554" y="918"/>
			<point x="588" y="901"/>
			<point x="620" y="880" type="curve"/>
			<point x="633" y="895" type="line"/>
			<point x="599" y="917"/>
			<point x="560" y="938"/>
			<point x="517" y="939" type="curve" smooth="yes"/>
			<point x="335" y="946"/>
			<point x="245" y="743"/>
		</contour>
	</outline>
</glyph>
<glyph name="s" format="2">
	<advance width="782"/>
	<unicode hex="0073"/>
	<outline>
		<contour>
			<point x="348" y="-19" type="curve" smooth="yes"/>
			<point x="500" y="-19"/>
			<point x="628" y="85"/>
			<point x="647" y="234" type="curve" smooth="yes"/>
			<point x="665" y="372"/>
			<point x="554" y="439"/>
			<point x="433" y="480" type="curve" smooth="yes"/>
			<point x="308" y="522"/>
			<point x="203" y="569"/>
			<point x="226" y="718" type="curve" smooth="yes"/>
			<point x="245" y="841"/>
			<point x="364" y="916"/>
			<point x="490" y="915" type="curve" smooth="yes"/>
			<point x="622" y="914"/>
			<point x="677" y="831"/>
			<point x="702" y="730" type="curve"/>
			<point x="722" y="736" type="line"/>
			<point x="695" y="843"/>
			<point x="634" y="934"/>
			<point x="491" y="935" type="curve" smooth="yes"/>
			<point x="353" y="936"/>
			<point x="227" y="853"/>
			<point x="206" y="718" type="curve" smooth="yes"/>
			<point x="183" y="559"/>
			<point x="288" y="507"/>
			<point x="420" y="462" type="curve" smooth="yes"/>
			<point x="539" y="421"/>
			<point x="645" y="363"/>
			<point x="627" y="234" type="curve" smooth="yes"/>
			<point x="609" y="98"/>
			<point x="488" y="-1"/>
			<point x="349" y="0" type="curve" smooth="yes"/>
			<point x="167" y="1"/>
			<point x="118" y="155"/>
			<point x="108" y="294" type="curve"/>
			<point x="88" y="288" type="line"/>
			<point x="98" y="139"/>
			<point x="153" y="-19"/>
		</contour>
	</outline>
</glyph>
<glyph name="t" format="2">
	<advance width="368"/>
	<unicode hex="0074"/>
	<outline>
		<contour>
			<point x="119" y="0" type="line"/>
			<point x="139" y="0" type="line"/>
			<point x="353" y="1239" type="line"/>
			<point x="333" y="1239" type="line"/>
		</contour>
		<contour>
			<point x="132" y="900" type="line"/>
			<point x="443" y="900" type="line"/>
			<point x="447" y="920" type="line"/>
			<point x="136" y="920" type="line"/>
		</contour>
	</outline>
</glyph>
<glyph name="v" format="2">
	<advance width="814"/>
	<unicode hex="0076"/>
	<outline>
		<contour>
			<point x="368" y="-30" type="line"/>
			<point x="905" y="919" type="line"/>
			<point x="881" y="919" type="line"/>
			<point x="375" y="21" type="line"/>
			<point x="150" y="920" type="line"/>
			<point x="127" y="920" type="line"/>
		</contour>
	</outline>
</glyph>
<glyph name="w" format="2">
	<advance width="1202"/>
	<unicode hex="0077"/>
	<outline>
		<contour>
			<point x="253" y="-31" type="line"/>
			<point x="690" y="881" type="line"/>
			<point x="828" y="-31" type="line"/>
			<point x="1279" y="919" type="line"/>
			<point x="1259" y="919" type="line"/>
			<point x="839" y="37" type="line"/>
			<point x="701" y="951" type="line"/>
			<point x="265" y="38" type="line"/>
			<point x="152" y="920" type="line"/>
			<point x="133" y="920" type="line"/>
		</contour>
	</outline>
</glyph>
<glyph name="x" format="2">
	<advance width="736"/>
	<unicode hex="0078"/>
	<outline>
		<contour>
			<point x="-16" y="0" type="line"/>
			<point x="14" y="0" type="line"/>
			<point x="406" y="458" type="line"/>
			<point x="657" y="0" type="line"/>
			<point x="684" y="0" type="line"/>
			<point x="421" y="473" type="line"/>
			<point x="806" y="918" type="line"/>
			<point x="778" y="918" type="line"/>
			<point x="410" y="490" type="line"/>
			<point x="173" y="920" type="line"/>
			<point x="146" y="920" type="line"/>
			<point x="395" y="475" type="line"/>
		</contour>
	</outline>
</glyph>
<glyph name="y" format="2">
	<advance width="824"/>
	<unicode hex="0079"/>
	<outline>
		<contour>
			<point x="93" y="-439" type="line"/>
			<point x="910" y="919" type="line"/>
			<point x="888" y="919" type="line"/>
			<point x="359" y="41" type="line"/>
			<point x="382" y="40" type="line"/>
			<point x="144" y="920" type="line"/>
			<point x="122" y="920" type="line"/>
			<point x="361" y="41" type="line"/>
			<point x="71" y="-438" type="line"/>
		</contour>
	</outline>
</glyph>
<glyph name="z" format="2">
	<advance width="834"/>
	<unicode hex="007A"/>
	<outline>
		<contour>
			<point x="-17" y="0" type="line"/>
			<point x="742" y="0" type="line"/>
			<point x="745" y="21" type="line"/>
			<point x="29" y="21" type="line"/>
			<point x="880" y="919" type="line"/>
			<point x="180" y="919" type="line"/>
			<point x="177" y="899" type="line"/>
			<point x="834" y="899" type="line"/>
		</contour>
	</outline>
</glyph>
<glyph name="braceleft" format="2">
	<advance width="544"/>
	<unicode hex="007B"/>
	<outline>
		<contour>
			<point x="353" y="-400" type="curve" smooth="yes"/>
			<point x="392" y="-400" type="line"/>
			<point x="395" y="-380" type="line"/>
			<point x="355" y="-380" type="line" smooth="yes"/>
			<point x="217" y="-380"/>
			<point x="219" y="-268"/>
			<point x="234" y="-120" type="curve" smooth="yes"/>
			<point x="299" y="300" type="line" smooth="yes"/>
			<point x="314" y="441"/>
			<point x="288" y="549"/>
			<point x="211" y="584" type="curve"/>
			<point x="209" y="577" type="line"/>
			<point x="298" y="604"/>
			<point x="366" y="711"/>
			<point x="386" y="860" type="curve" smooth="yes"/>
			<point x="450" y="1280" type="line" smooth="yes"/>
			<point x="470" y="1437"/>
			<point x="515" y="1540"/>
			<point x="652" y="1540" type="curve" smooth="yes"/>
			<point x="691" y="1540" type="line"/>
			<point x="694" y="1559" type="line"/>
			<point x="654" y="1559" type="line" smooth="yes"/>
			<point x="502" y="1559"/>
			<point x="452" y="1446"/>
			<point x="430" y="1280" type="curve" smooth="yes"/>
			<point x="366" y="860" type="line" smooth="yes"/>
			<point x="347" y="728"/>
			<point x="291" y="633"/>
			<point x="211" y="590" type="curve"/>
			<point x="208" y="570" type="line"/>
			<point x="273" y="519"/>
			<point x="294" y="425"/>
			<point x="280" y="300" type="curve" smooth="yes"/>
			<point x="215" y="-120" type="line" smooth="yes"/>
			<point x="198" y="-276"/>
			<point x="199" y="-400"/>
		</contour>
	</outline>
</glyph>
<glyph name="bar" format="2">
	<advance width="406"/>
	<unicode hex="007C"/>
	<outline>
		<contour>
			<point x="92" y="-430" type="line"/>
			<point x="112" y="-430" type="line"/>
			<point x="422" y="1570" type="line"/>
			<point x="402" y="1570" type="line"/>
		</contour>
	</outline>
</glyph>
<glyph name="braceright" format="2">
	<advance width="544"/>
	<unicode hex="007D"/>
	<outline>
		<contour>
			<point x="-38" y="-400" type="line"/>
			<point x="1" y="-400" type="line" smooth="yes"/>
			<point x="153" y="-400"/>
			<point x="204" y="-286"/>
			<point x="226" y="-120" type="curve" smooth="yes"/>
			<point x="290" y="300" type="line" smooth="yes"/>
			<point x="309" y="432"/>
			<point x="365" y="527"/>
			<point x="445" y="570" type="curve"/>
			<point x="448" y="590" type="line"/>
			<point x="383" y="641"/>
			<point x="361" y="735"/>
			<point x="375" y="860" type="curve" smooth="yes"/>
			<point x="440" y="1280" type="line" smooth="yes"/>
			<point x="457" y="1436"/>
			<point x="456" y="1560"/>
			<point x="302" y="1560" type="curve" smooth="yes"/>
			<point x="264" y="1560" type="line"/>
			<point x="261" y="1540" type="line"/>
			<point x="300" y="1540" type="line" smooth="yes"/>
			<point x="438" y="1540"/>
			<point x="436" y="1428"/>
			<point x="421" y="1280" type="curve" smooth="yes"/>
			<point x="356" y="860" type="line" smooth="yes"/>
			<point x="341" y="719"/>
			<point x="368" y="611"/>
			<point x="445" y="576" type="curve"/>
			<point x="446" y="583" type="line"/>
			<point x="357" y="556"/>
			<point x="290" y="449"/>
			<point x="269" y="300" type="curve" smooth="yes"/>
			<point x="205" y="-120" type="line" smooth="yes"/>
			<point x="185" y="-277"/>
			<point x="140" y="-381"/>
			<point x="3" y="-381" type="curve" smooth="yes"/>
			<point x="-35" y="-381" type="line"/>
		</contour>
	</outline>
</glyph>
<glyph name="asciitilde" format="2">
	<advance width="1116"/>
	<unicode hex="007E"/>
	<outline>
		<contour>
			<point x="804" y="345" type="curve" smooth="yes"/>
			<point x="865" y="344"/>
			<point x="922" y="373"/>
			<point x="958" y="414" type="curve" smooth="yes"/>
			<point x="996" y="456"/>
			<point x="1018" y="518"/>
			<point x="1027" y="579" type="curve" smooth="yes"/>
			<point x="1030" y="598"/>
			<point x="1029" y="618"/>
			<point x="1028" y="635" type="curve"/>
			<point x="1009" y="641" type="line"/>
			<point x="1012" y="621"/>
			<point x="1012" y="597"/>
			<point x="1009" y="579" type="curve" smooth="yes"/>
			<point x="993" y="468"/>
			<point x="921" y="363"/>
			<point x="805" y="365" type="curve" smooth="yes"/>
			<point x="717" y="366"/>
			<point x="668" y="440"/>
			<point x="628" y="500" type="curve" smooth="yes"/>
			<point x="582" y="569"/>
			<point x="529" y="652"/>
			<point x="423" y="653" type="curve" smooth="yes"/>
			<point x="356" y="653"/>
			<point x="293" y="624"/>
			<point x="251" y="580" type="curve" smooth="yes"/>
			<point x="209" y="536"/>
			<point x="183" y="475"/>
			<point x="173" y="411" type="curve" smooth="yes"/>
			<point x="171" y="394"/>
			<point x="171" y="378"/>
			<point x="172" y="363" type="curve"/>
			<point x="191" y="357" type="line"/>
			<point x="189" y="372"/>
			<point x="188" y="387"/>
			<point x="190" y="401" type="curve" smooth="yes"/>
			<point x="207" y="523"/>
			<point x="289" y="634"/>
			<point x="422" y="633" type="curve" smooth="yes"/>
			<point x="521" y="632"/>
			<point x="569" y="548"/>
			<point x="612" y="486" type="curve" smooth="yes"/>
			<point x="658" y="420"/>
			<point x="707" y="346"/>
		</contour>
	</outline>
</glyph>
<glyph name="exclamdown" format="2">
	<advance width="582"/>
	<unicode hex="00A1"/>
	<outline>
		<contour>
			<point x="175" y="-489" type="line"/>
			<point x="203" y="-489" type="line"/>
			<point x="368" y="509" type="line"/>
			<point x="356" y="509" type="line"/>
		</contour>
		<contour>
			<point x="425" y="886" type="curve" smooth="yes"/>
			<point x="436" y="886"/>
			<point x="449" y="897"/>
			<point x="450" y="908" type="curve" smooth="yes"/>
			<point x="451" y="920"/>
			<point x="443" y="930"/>
			<point x="432" y="930" type="curve" smooth="yes"/>
			<point x="421" y="930"/>
			<point x="408" y="919"/>
			<point x="407" y="908" type="curve" smooth="yes"/>
			<point x="406" y="896"/>
			<point x="414" y="886"/>
		</contour>
	</outline>
</glyph>
<glyph name="cent" format="2">
	<advance width="1124"/>
	<unicode hex="00A2"/>
	<outline>
		<contour>
			<point x="563" y="-19" type="curve" smooth="yes"/>
			<point x="696" y="-19"/>
			<point x="811" y="38"/>
			<point x="883" y="95" type="curve"/>
			<point x="887" y="120" type="line"/>
			<point x="815" y="63"/>
			<point x="700" y="1"/>
			<point x="564" y="1" type="curve" smooth="yes"/>
			<point x="311" y="2"/>
			<point x="174" y="224"/>
			<point x="210" y="460" type="curve" smooth="yes"/>
			<point x="251" y="709"/>
			<point x="466" y="919"/>
			<point x="723" y="919" type="curve" smooth="yes"/>
			<point x="848" y="919"/>
			<point x="951" y="864"/>
			<point x="1003" y="799" type="curve"/>
			<point x="1007" y="824" type="line"/>
			<point x="952" y="886"/>
			<point x="848" y="939"/>
			<point x="724" y="939" type="curve" smooth="yes"/>
			<point x="456" y="939"/>
			<point x="233" y="723"/>
			<point x="191" y="460" type="curve" smooth="yes"/>
			<point x="154" y="210"/>
			<point x="298" y="-19"/>
		</contour>
		<contour>
			<point x="510" y="-223" type="line"/>
			<point x="537" y="-223" type="line"/>
			<point x="567" y="-9" type="line"/>
			<point x="559" y="-9" type="line"/>
		</contour>
		<contour>
			<point x="716" y="927" type="line"/>
			<point x="724" y="927" type="line"/>
			<point x="776" y="1155" type="line"/>
			<point x="748" y="1155" type="line"/>
		</contour>
	</outline>
</glyph>
<glyph name="sterling" format="2">
	<advance width="1124"/>
	<unicode hex="00A3"/>
	<outline>
		<contour>
			<point x="128" y="0" type="curve"/>
			<point x="911" y="0" type="line"/>
			<point x="914" y="20" type="line"/>
			<point x="151" y="21" type="line"/>
			<point x="155" y="1" type="line"/>
			<point x="261" y="128"/>
			<point x="520" y="308"/>
			<point x="557" y="528" type="curve" smooth="yes"/>
			<point x="587" y="730"/>
			<point x="380" y="858"/>
			<point x="412" y="1076" type="curve" smooth="yes"/>
			<point x="441" y="1241"/>
			<point x="595" y="1401"/>
			<point x="790" y="1399" type="curve" smooth="yes"/>
			<point x="1022" y="1397"/>
			<point x="1064" y="1155"/>
			<point x="1048" y="996" type="curve"/>
			<point x="1068" y="996" type="line"/>
			<point x="1083" y="1162"/>
			<point x="1042" y="1418"/>
			<point x="791" y="1419" type="curve" smooth="yes"/>
			<point x="584" y="1420"/>
			<point x="422" y="1255"/>
			<point x="392" y="1076" type="curve" smooth="yes"/>
			<point x="361" y="855"/>
			<point x="567" y="725"/>
			<point x="537" y="528" type="curve" smooth="yes"/>
			<point x="500" y="325"/>
			<point x="290" y="180"/>
		</contour>
		<contour>
			<point x="215" y="590" type="line"/>
			<point x="817" y="590" type="line"/>
			<point x="821" y="610" type="line"/>
			<point x="218" y="610" type="line"/>
		</contour>
	</outline>
</glyph>
<glyph name="currency" format="2">
	<advance width="1086"/>
	<unicode hex="00A4"/>
	<outline>
		<contour>
			<point x="511" y="121" type="curve" smooth="yes"/>
			<point x="770" y="120"/>
			<point x="995" y="340"/>
			<point x="1035" y="600" type="curve" smooth="yes"/>
			<point x="1071" y="847"/>
			<point x="928" y="1078"/>
			<point x="672" y="1079" type="curve" smooth="yes"/>
			<point x="413" y="1080"/>
			<point x="188" y="860"/>
			<point x="148" y="600" type="curve" smooth="yes"/>
			<point x="112" y="353"/>
			<point x="255" y="122"/>
		</contour>
		<contour>
			<point x="98" y="135" type="line"/>
			<point x="244" y="260" type="line"/>
			<point x="229" y="279" type="line"/>
			<point x="82" y="156" type="line"/>
		</contour>
		<contour>
			<point x="946" y="134" type="line"/>
			<point x="966" y="154" type="line"/>
			<point x="864" y="280" type="line"/>
			<point x="842" y="262" type="line"/>
		</contour>
		<contour>
			<point x="512" y="141" type="curve" smooth="yes"/>
			<point x="267" y="142"/>
			<point x="133" y="367"/>
			<point x="168" y="600" type="curve" smooth="yes"/>
			<point x="207" y="846"/>
			<point x="423" y="1060"/>
			<point x="671" y="1059" type="curve" smooth="yes"/>
			<point x="916" y="1058"/>
			<point x="1050" y="833"/>
			<point x="1015" y="600" type="curve" smooth="yes"/>
			<point x="976" y="354"/>
			<point x="760" y="140"/>
		</contour>
		<contour>
			<point x="338" y="920" type="line"/>
			<point x="359" y="938" type="line"/>
			<point x="257" y="1066" type="line"/>
			<point x="234" y="1046" type="line"/>
		</contour>
		<contour>
			<point x="974" y="921" type="line"/>
			<point x="1119" y="1044" type="line"/>
			<point x="1104" y="1065" type="line"/>
			<point x="957" y="940" type="line"/>
		</contour>
	</outline>
</glyph>
<glyph name="yen" format="2">
	<advance width="1096"/>
	<unicode hex="00A5"/>
	<outline>
		<contour>
			<point x="445" y="0" type="line"/>
			<point x="467" y="0" type="line"/>
			<point x="558" y="529" type="line"/>
			<point x="1170" y="1398" type="line"/>
			<point x="1144" y="1398" type="line"/>
			<point x="553" y="563" type="line"/>
			<point x="268" y="1400" type="line"/>
			<point x="243" y="1400" type="line"/>
			<point x="539" y="535" type="line"/>
		</contour>
		<contour>
			<point x="53" y="290" type="line"/>
			<point x="980" y="290" type="line"/>
			<point x="983" y="310" type="line"/>
			<point x="57" y="310" type="line"/>
		</contour>
		<contour>
			<point x="96" y="540" type="line"/>
			<point x="1022" y="540" type="line"/>
			<point x="1025" y="560" type="line"/>
			<point x="99" y="560" type="line"/>
		</contour>
	</outline>
</glyph>
<glyph name="brokenbar" format="2">
	<advance width="406"/>
	<unicode hex="00A6"/>
	<outline>
		<contour>
			<point x="293" y="911" type="line"/>
			<point x="313" y="911" type="line"/>
			<point x="399" y="1389" type="line"/>
			<point x="379" y="1389" type="line"/>
		</contour>
		<contour>
			<point x="139" y="11" type="line"/>
			<point x="159" y="11" type="line"/>
			<point x="245" y="489" type="line"/>
			<point x="225" y="489" type="line"/>
		</contour>
	</outline>
</glyph>
<glyph name="section" format="2">
	<advance width="772"/>
	<unicode hex="00A7"/>
	<outline>
		<contour>
			<point x="361" y="-19" type="curve" smooth="yes"/>
			<point x="512" y="-20"/>
			<point x="671" y="48"/>
			<point x="695" y="200" type="curve" smooth="yes"/>
			<point x="720" y="362"/>
			<point x="569" y="426"/>
			<point x="447" y="482" type="curve" smooth="yes"/>
			<point x="350" y="526"/>
			<point x="185" y="590"/>
			<point x="202" y="717" type="curve" smooth="yes"/>
			<point x="223" y="846"/>
			<point x="375" y="925"/>
			<point x="543" y="959" type="curve"/>
			<point x="542" y="959" type="line"/>
			<point x="353" y="950"/>
			<point x="208" y="864"/>
			<point x="182" y="719" type="curve" smooth="yes"/>
			<point x="162" y="584"/>
			<point x="321" y="519"/>
			<point x="432" y="466" type="curve" smooth="yes"/>
			<point x="548" y="412"/>
			<point x="700" y="351"/>
			<point x="675" y="200" type="curve" smooth="yes"/>
			<point x="651" y="53"/>
			<point x="488" y="-2"/>
			<point x="362" y="0" type="curve" smooth="yes"/>
			<point x="198" y="2"/>
			<point x="79" y="114"/>
			<point x="63" y="254" type="curve"/>
			<point x="46" y="246" type="line"/>
			<point x="62" y="93"/>
			<point x="195" y="-18"/>
		</contour>
		<contour>
			<point x="425" y="481" type="curve"/>
			<point x="426" y="481" type="line"/>
			<point x="601" y="488"/>
			<point x="759" y="550"/>
			<point x="784" y="719" type="curve" smooth="yes"/>
			<point x="803" y="853"/>
			<point x="658" y="915"/>
			<point x="543" y="966" type="curve" smooth="yes"/>
			<point x="445" y="1010"/>
			<point x="264" y="1061"/>
			<point x="284" y="1198" type="curve" smooth="yes"/>
			<point x="303" y="1333"/>
			<point x="459" y="1399"/>
			<point x="580" y="1399" type="curve" smooth="yes"/>
			<point x="702" y="1399"/>
			<point x="812" y="1335"/>
			<point x="850" y="1232" type="curve"/>
			<point x="864" y="1240" type="line"/>
			<point x="829" y="1350"/>
			<point x="716" y="1419"/>
			<point x="581" y="1419" type="curve" smooth="yes"/>
			<point x="438" y="1419"/>
			<point x="286" y="1344"/>
			<point x="264" y="1198" type="curve" smooth="yes"/>
			<point x="241" y="1048"/>
			<point x="413" y="999"/>
			<point x="528" y="950" type="curve" smooth="yes"/>
			<point x="626" y="908"/>
			<point x="780" y="842"/>
			<point x="764" y="721" type="curve" smooth="yes"/>
			<point x="743" y="572"/>
			<point x="584" y="521"/>
		</contour>
	</outline>
</glyph>
<glyph name="dieresis" format="2">
	<advance width="818"/>
	<unicode hex="00A8"/>
	<outline>
		<contour>
			<point x="778" y="1356" type="curve" smooth="yes"/>
			<point x="789" y="1356"/>
			<point x="802" y="1367"/>
			<point x="803" y="1378" type="curve" smooth="yes"/>
			<point x="804" y="1390"/>
			<point x="795" y="1400"/>
			<point x="784" y="1400" type="curve" smooth="yes"/>
			<point x="773" y="1400"/>
			<point x="761" y="1389"/>
			<point x="760" y="1378" type="curve" smooth="yes"/>
			<point x="759" y="1366"/>
			<point x="767" y="1356"/>
		</contour>
		<contour>
			<point x="390" y="1356" type="curve" smooth="yes"/>
			<point x="401" y="1356"/>
			<point x="414" y="1367"/>
			<point x="415" y="1378" type="curve" smooth="yes"/>
			<point x="416" y="1390"/>
			<point x="407" y="1400"/>
			<point x="396" y="1400" type="curve" smooth="yes"/>
			<point x="385" y="1400"/>
			<point x="373" y="1389"/>
			<point x="372" y="1378" type="curve" smooth="yes"/>
			<point x="371" y="1366"/>
			<point x="379" y="1356"/>
		</contour>
	</outline>
</glyph>
<glyph name="copyright" format="2">
	<advance width="1552"/>
	<unicode hex="00A9"/>
	<outline>
		<contour>
			<point x="740" y="-20" type="curve" smooth="yes"/>
			<point x="1150" y="-21"/>
			<point x="1491" y="301"/>
			<point x="1549" y="700" type="curve" smooth="yes"/>
			<point x="1602" y="1083"/>
			<point x="1362" y="1419"/>
			<point x="959" y="1420" type="curve" smooth="yes"/>
			<point x="549" y="1421"/>
			<point x="209" y="1099"/>
			<point x="151" y="700" type="curve" smooth="yes"/>
			<point x="98" y="317"/>
			<point x="337" y="-19"/>
		</contour>
		<contour>
			<point x="763" y="271" type="curve" smooth="yes"/>
			<point x="876" y="270"/>
			<point x="961" y="309"/>
			<point x="1040" y="365" type="curve"/>
			<point x="1043" y="384" type="line"/>
			<point x="964" y="324"/>
			<point x="876" y="284"/>
			<point x="764" y="285" type="curve" smooth="yes"/>
			<point x="538" y="287"/>
			<point x="429" y="487"/>
			<point x="458" y="700" type="curve" smooth="yes"/>
			<point x="490" y="927"/>
			<point x="666" y="1114"/>
			<point x="894" y="1115" type="curve" smooth="yes"/>
			<point x="996" y="1115"/>
			<point x="1075" y="1083"/>
			<point x="1140" y="1017" type="curve"/>
			<point x="1143" y="1035" type="line"/>
			<point x="1075" y="1096"/>
			<point x="1001" y="1130"/>
			<point x="894" y="1129" type="curve" smooth="yes"/>
			<point x="659" y="1128"/>
			<point x="476" y="934"/>
			<point x="443" y="700" type="curve" smooth="yes"/>
			<point x="413" y="477"/>
			<point x="529" y="273"/>
		</contour>
		<contour>
			<point x="741" y="0" type="curve" smooth="yes"/>
			<point x="356" y="1"/>
			<point x="119" y="330"/>
			<point x="171" y="700" type="curve" smooth="yes"/>
			<point x="228" y="1086"/>
			<point x="567" y="1401"/>
			<point x="959" y="1400" type="curve" smooth="yes"/>
			<point x="1344" y="1399"/>
			<point x="1581" y="1070"/>
			<point x="1529" y="700" type="curve" smooth="yes"/>
			<point x="1472" y="314"/>
			<point x="1133" y="-1"/>
		</contour>
	</outline>
</glyph>
<glyph name="ordfeminine" format="2">
	<advance width="460"/>
	<unicode hex="00AA"/>
	<outline>
		<contour>
			<point x="456" y="921" type="line"/>
			<point x="466" y="921" type="line"/>
			<point x="525" y="1250" type="line"/>
			<point x="533" y="1328"/>
			<point x="507" y="1394"/>
			<point x="421" y="1399" type="curve" smooth="yes"/>
			<point x="355" y="1402"/>
			<point x="298" y="1363"/>
			<point x="258" y="1333" type="curve"/>
			<point x="265" y="1325" type="line"/>
			<point x="306" y="1357"/>
			<point x="359" y="1392"/>
			<point x="421" y="1389" type="curve" smooth="yes"/>
			<point x="502" y="1385"/>
			<point x="523" y="1324"/>
			<point x="515" y="1250" type="curve"/>
		</contour>
		<contour>
			<point x="299" y="911" type="curve" smooth="yes"/>
			<point x="401" y="909"/>
			<point x="469" y="996"/>
			<point x="493" y="1078" type="curve"/>
			<point x="486" y="1079" type="line"/>
			<point x="462" y="1001"/>
			<point x="392" y="919"/>
			<point x="299" y="921" type="curve" smooth="yes"/>
			<point x="228" y="923"/>
			<point x="173" y="973"/>
			<point x="184" y="1056" type="curve" smooth="yes"/>
			<point x="197" y="1142"/>
			<point x="293" y="1193"/>
			<point x="375" y="1191" type="curve" smooth="yes"/>
			<point x="431" y="1190"/>
			<point x="469" y="1167"/>
			<point x="499" y="1144" type="curve"/>
			<point x="501" y="1156" type="line"/>
			<point x="472" y="1176"/>
			<point x="437" y="1198"/>
			<point x="376" y="1199" type="curve" smooth="yes"/>
			<point x="288" y="1200"/>
			<point x="190" y="1147"/>
			<point x="176" y="1057" type="curve" smooth="yes"/>
			<point x="163" y="968"/>
			<point x="221" y="913"/>
		</contour>
	</outline>
</glyph>
<glyph name="guillemotleft" format="2">
	<advance width="940"/>
	<unicode hex="00AB"/>
	<outline>
		<contour>
			<point x="745" y="40" type="line"/>
			<point x="761" y="54" type="line"/>
			<point x="440" y="510" type="line"/>
			<point x="917" y="964" type="line"/>
			<point x="905" y="978" type="line"/>
			<point x="420" y="512" type="line"/>
		</contour>
		<contour>
			<point x="435" y="40" type="line"/>
			<point x="450" y="54" type="line"/>
			<point x="129" y="510" type="line"/>
			<point x="607" y="964" type="line"/>
			<point x="595" y="978" type="line"/>
			<point x="110" y="512" type="line"/>
		</contour>
	</outline>
</glyph>
<glyph name="logicalnot" format="2">
	<advance width="1202"/>
	<unicode hex="00AC"/>
	<outline>
		<contour>
			<point x="1061" y="351" type="line"/>
			<point x="1081" y="351" type="line"/>
			<point x="1152" y="750" type="line"/>
			<point x="200" y="750" type="line"/>
			<point x="196" y="730" type="line"/>
			<point x="1129" y="730" type="line"/>
		</contour>
	</outline>
</glyph>
<glyph name="registered" format="2">
	<advance width="1552"/>
	<unicode hex="00AE"/>
	<outline>
		<contour>
			<point x="740" y="-20" type="curve" smooth="yes"/>
			<point x="1150" y="-21"/>
			<point x="1491" y="301"/>
			<point x="1549" y="700" type="curve" smooth="yes"/>
			<point x="1602" y="1083"/>
			<point x="1362" y="1419"/>
			<point x="959" y="1420" type="curve" smooth="yes"/>
			<point x="549" y="1421"/>
			<point x="209" y="1099"/>
			<point x="151" y="700" type="curve" smooth="yes"/>
			<point x="98" y="317"/>
			<point x="337" y="-19"/>
		</contour>
		<contour>
			<point x="977" y="300" type="line"/>
			<point x="995" y="300" type="line"/>
			<point x="794" y="680" type="line"/>
			<point x="778" y="680" type="line"/>
		</contour>
		<contour>
			<point x="593" y="300" type="line"/>
			<point x="607" y="300" type="line"/>
			<point x="739" y="1140" type="line"/>
			<point x="725" y="1140" type="line"/>
		</contour>
		<contour>
			<point x="741" y="0" type="curve" smooth="yes"/>
			<point x="356" y="1"/>
			<point x="119" y="330"/>
			<point x="171" y="700" type="curve" smooth="yes"/>
			<point x="228" y="1086"/>
			<point x="567" y="1401"/>
			<point x="959" y="1400" type="curve" smooth="yes"/>
			<point x="1344" y="1399"/>
			<point x="1581" y="1070"/>
			<point x="1529" y="700" type="curve" smooth="yes"/>
			<point x="1472" y="314"/>
			<point x="1133" y="-1"/>
		</contour>
		<contour>
			<point x="654" y="676" type="line"/>
			<point x="786" y="677" type="line"/>
			<point x="939" y="681"/>
			<point x="1076" y="756"/>
			<point x="1098" y="907" type="curve" smooth="yes"/>
			<point x="1120" y="1057"/>
			<point x="1005" y="1136"/>
			<point x="857" y="1140" type="curve"/>
			<point x="725" y="1140" type="line"/>
			<point x="723" y="1126" type="line"/>
			<point x="856" y="1125" type="line"/>
			<point x="998" y="1121"/>
			<point x="1105" y="1051"/>
			<point x="1084" y="908" type="curve" smooth="yes"/>
			<point x="1063" y="763"/>
			<point x="935" y="692"/>
			<point x="787" y="688" type="curve"/>
			<point x="655" y="688" type="line"/>
		</contour>
	</outline>
</glyph>
<glyph name="macron" format="2">
	<advance width="988"/>
	<unicode hex="00AF"/>
	<outline>
		<contour>
			<point x="326" y="1330" type="line"/>
			<point x="1005" y="1330" type="line"/>
			<point x="1008" y="1350" type="line"/>
			<point x="329" y="1350" type="line"/>
		</contour>
	</outline>
</glyph>
<glyph name="degree" format="2">
	<advance width="538"/>
	<unicode hex="00B0"/>
	<outline>
		<contour>
			<point x="380" y="961" type="curve" smooth="yes"/>
			<point x="515" y="960"/>
			<point x="632" y="1068"/>
			<point x="652" y="1199" type="curve" smooth="yes"/>
			<point x="671" y="1326"/>
			<point x="595" y="1438"/>
			<point x="461" y="1439" type="curve" smooth="yes"/>
			<point x="326" y="1440"/>
			<point x="208" y="1332"/>
			<point x="188" y="1201" type="curve" smooth="yes"/>
			<point x="169" y="1074"/>
			<point x="246" y="962"/>
		</contour>
		<contour>
			<point x="381" y="981" type="curve" smooth="yes"/>
			<point x="261" y="983"/>
			<point x="190" y="1084"/>
			<point x="208" y="1200" type="curve" smooth="yes"/>
			<point x="227" y="1320"/>
			<point x="338" y="1421"/>
			<point x="459" y="1419" type="curve" smooth="yes"/>
			<point x="579" y="1417"/>
			<point x="650" y="1316"/>
			<point x="632" y="1200" type="curve" smooth="yes"/>
			<point x="613" y="1080"/>
			<point x="502" y="979"/>
		</contour>
	</outline>
</glyph>
<glyph name="plusminus" format="2">
	<advance width="1182"/>
	<unicode hex="00B1"/>
	<outline>
		<contour>
			<point x="593" y="300" type="line"/>
			<point x="613" y="300" type="line"/>
			<point x="760" y="1240" type="line"/>
			<point x="740" y="1240" type="line"/>
		</contour>
		<contour>
			<point x="92" y="0" type="line"/>
			<point x="1024" y="0" type="line"/>
			<point x="1027" y="20" type="line"/>
			<point x="95" y="20" type="line"/>
		</contour>
		<contour>
			<point x="209" y="760" type="line"/>
			<point x="1141" y="760" type="line"/>
			<point x="1144" y="780" type="line"/>
			<point x="212" y="780" type="line"/>
		</contour>
	</outline>
</glyph>
<glyph name="uni00B2" format="2">
	<advance width="644"/>
	<unicode hex="00B2"/>
	<outline>
		<contour>
			<point x="628" y="564" type="line"/>
			<point x="630" y="576" type="line"/>
			<point x="132" y="577" type="line"/>
			<point x="551" y="958" type="line" smooth="yes"/>
			<point x="618" y="1020"/>
			<point x="687" y="1092"/>
			<point x="702" y="1188" type="curve" smooth="yes"/>
			<point x="720" y="1293"/>
			<point x="664" y="1415"/>
			<point x="521" y="1417" type="curve" smooth="yes"/>
			<point x="361" y="1420"/>
			<point x="259" y="1273"/>
			<point x="227" y="1118" type="curve"/>
			<point x="239" y="1118" type="line"/>
			<point x="270" y="1266"/>
			<point x="368" y="1408"/>
			<point x="521" y="1405" type="curve" smooth="yes"/>
			<point x="659" y="1403"/>
			<point x="708" y="1286"/>
			<point x="690" y="1188" type="curve" smooth="yes"/>
			<point x="674" y="1092"/>
			<point x="605" y="1027"/>
			<point x="540" y="966" type="curve" smooth="yes"/>
			<point x="100" y="565" type="line"/>
		</contour>
	</outline>
</glyph>
<glyph name="uni00B3" format="2">
	<advance width="596"/>
	<unicode hex="00B3"/>
	<outline>
		<contour>
			<point x="347" y="549" type="curve" smooth="yes"/>
			<point x="487" y="548"/>
			<point x="607" y="641"/>
			<point x="627" y="769" type="curve" smooth="yes"/>
			<point x="650" y="919"/>
			<point x="513" y="990"/>
			<point x="388" y="1001" type="curve"/>
			<point x="387" y="991" type="line"/>
			<point x="499" y="980"/>
			<point x="637" y="914"/>
			<point x="615" y="770" type="curve" smooth="yes"/>
			<point x="596" y="649"/>
			<point x="481" y="560"/>
			<point x="347" y="561" type="curve" smooth="yes"/>
			<point x="198" y="562"/>
			<point x="141" y="658"/>
			<point x="150" y="782" type="curve"/>
			<point x="138" y="782" type="line"/>
			<point x="128" y="654"/>
			<point x="193" y="550"/>
		</contour>
		<contour>
			<point x="386" y="995" type="line"/>
			<point x="513" y="1004"/>
			<point x="653" y="1067"/>
			<point x="677" y="1199" type="curve" smooth="yes"/>
			<point x="696" y="1305"/>
			<point x="629" y="1409"/>
			<point x="499" y="1411" type="curve" smooth="yes"/>
			<point x="361" y="1413"/>
			<point x="272" y="1314"/>
			<point x="241" y="1194" type="curve"/>
			<point x="253" y="1194" type="line"/>
			<point x="283" y="1306"/>
			<point x="369" y="1401"/>
			<point x="499" y="1399" type="curve" smooth="yes"/>
			<point x="619" y="1397"/>
			<point x="683" y="1299"/>
			<point x="665" y="1200" type="curve" smooth="yes"/>
			<point x="642" y="1075"/>
			<point x="502" y="1015"/>
			<point x="388" y="1005" type="curve"/>
		</contour>
	</outline>
</glyph>
<glyph name="acute" format="2">
	<advance width="684"/>
	<unicode hex="00B4"/>
	<outline>
		<contour>
			<point x="285" y="1072" type="line"/>
			<point x="671" y="1382" type="line"/>
			<point x="657" y="1398" type="line"/>
			<point x="276" y="1082" type="line"/>
		</contour>
	</outline>
</glyph>
<glyph name="mu" format="2">
	<advance width="920"/>
	<unicode hex="00B5"/>
	<outline>
		<contour>
			<point x="366" y="-19" type="curve" smooth="yes"/>
			<point x="569" y="-21"/>
			<point x="716" y="162"/>
			<point x="757" y="358" type="curve"/>
			<point x="746" y="358" type="line"/>
			<point x="705" y="181"/>
			<point x="561" y="-1"/>
			<point x="368" y="1" type="curve" smooth="yes"/>
			<point x="190" y="2"/>
			<point x="161" y="145"/>
			<point x="181" y="300" type="curve" smooth="yes"/>
			<point x="289" y="919" type="line"/>
			<point x="269" y="919" type="line"/>
			<point x="161" y="300" type="line" smooth="yes"/>
			<point x="139" y="131"/>
			<point x="176" y="-18"/>
		</contour>
		<contour>
			<point x="0" y="-639" type="line"/>
			<point x="20" y="-639" type="line"/>
			<point x="289" y="919" type="line"/>
			<point x="269" y="919" type="line"/>
		</contour>
		<contour>
			<point x="682" y="0" type="line"/>
			<point x="702" y="0" type="line"/>
			<point x="861" y="919" type="line"/>
			<point x="841" y="919" type="line"/>
		</contour>
	</outline>
</glyph>
<glyph name="paragraph" format="2">
	<advance width="868"/>
	<unicode hex="00B6"/>
	<outline>
		<contour>
			<point x="428" y="-439" type="line"/>
			<point x="448" y="-439" type="line"/>
			<point x="765" y="1399" type="line"/>
			<point x="743" y="1400" type="line"/>
		</contour>
		<contour>
			<point x="603" y="-439" type="line"/>
			<point x="623" y="-439" type="line"/>
			<point x="939" y="1399" type="line"/>
			<point x="919" y="1399" type="line"/>
		</contour>
		<contour>
			<point x="597" y="540" type="curve"/>
			<point x="743" y="1400" type="line"/>
			<point x="488" y="1401"/>
			<point x="270" y="1237"/>
			<point x="227" y="970" type="curve" smooth="yes"/>
			<point x="187" y="712"/>
			<point x="352" y="554"/>
		</contour>
		<contour>
			<point x="740" y="1380" type="line"/>
			<point x="935" y="1380" type="line"/>
			<point x="938" y="1400" type="line"/>
			<point x="743" y="1400" type="line"/>
		</contour>
	</outline>
</glyph>
<glyph name="periodcentered" format="2">
	<advance width="468"/>
	<unicode hex="00B7"/>
	<outline>
		<contour>
			<point x="253" y="420" type="curve" smooth="yes"/>
			<point x="264" y="420"/>
			<point x="277" y="431"/>
			<point x="278" y="442" type="curve" smooth="yes"/>
			<point x="279" y="454"/>
			<point x="270" y="464"/>
			<point x="259" y="464" type="curve" smooth="yes"/>
			<point x="248" y="464"/>
			<point x="235" y="453"/>
			<point x="234" y="442" type="curve" smooth="yes"/>
			<point x="233" y="430"/>
			<point x="242" y="420"/>
		</contour>
	</outline>
</glyph>
<glyph name="cedilla" format="2">
	<advance width="678"/>
	<unicode hex="00B8"/>
	<outline>
		<contour>
			<point x="197" y="-439" type="curve" smooth="yes"/>
			<point x="305" y="-440"/>
			<point x="423" y="-367"/>
			<point x="437" y="-253" type="curve" smooth="yes"/>
			<point x="447" y="-168"/>
			<point x="391" y="-109"/>
			<point x="319" y="-105" type="curve" smooth="yes"/>
			<point x="261" y="-102"/>
			<point x="223" y="-125"/>
			<point x="175" y="-151" type="curve"/>
			<point x="312" y="0" type="line"/>
			<point x="288" y="0" type="line"/>
			<point x="150" y="-175" type="line"/>
			<point x="199" y="-148"/>
			<point x="258" y="-121"/>
			<point x="317" y="-125" type="curve" smooth="yes"/>
			<point x="379" y="-129"/>
			<point x="427" y="-178"/>
			<point x="418" y="-252" type="curve" smooth="yes"/>
			<point x="404" y="-356"/>
			<point x="294" y="-419"/>
			<point x="199" y="-419" type="curve" smooth="yes"/>
			<point x="138" y="-419"/>
			<point x="98" y="-394"/>
			<point x="51" y="-352" type="curve"/>
			<point x="36" y="-364" type="line"/>
			<point x="85" y="-413"/>
			<point x="128" y="-439"/>
		</contour>
	</outline>
</glyph>
<glyph name="uni00B9" format="2">
	<advance width="912"/>
	<unicode hex="00B9"/>
	<outline>
		<contour>
			<point x="513" y="549" type="line"/>
			<point x="525" y="549" type="line"/>
			<point x="673" y="1394" type="line"/>
			<point x="453" y="1347" type="line"/>
			<point x="451" y="1333" type="line"/>
			<point x="656" y="1377" type="line"/>
		</contour>
	</outline>
</glyph>
<glyph name="ordmasculine" format="2">
	<advance width="538"/>
	<unicode hex="00BA"/>
	<outline>
		<contour>
			<point x="373" y="921" type="curve" smooth="yes"/>
			<point x="508" y="920"/>
			<point x="625" y="1028"/>
			<point x="645" y="1159" type="curve" smooth="yes"/>
			<point x="664" y="1286"/>
			<point x="588" y="1398"/>
			<point x="454" y="1399" type="curve" smooth="yes"/>
			<point x="319" y="1400"/>
			<point x="202" y="1292"/>
			<point x="182" y="1161" type="curve" smooth="yes"/>
			<point x="163" y="1034"/>
			<point x="239" y="922"/>
		</contour>
		<contour>
			<point x="374" y="941" type="curve" smooth="yes"/>
			<point x="254" y="943"/>
			<point x="183" y="1044"/>
			<point x="201" y="1160" type="curve" smooth="yes"/>
			<point x="220" y="1280"/>
			<point x="332" y="1381"/>
			<point x="453" y="1379" type="curve" smooth="yes"/>
			<point x="573" y="1377"/>
			<point x="644" y="1276"/>
			<point x="626" y="1160" type="curve" smooth="yes"/>
			<point x="607" y="1040"/>
			<point x="495" y="939"/>
		</contour>
	</outline>
</glyph>
<glyph name="guillemotright" format="2">
	<advance width="940"/>
	<unicode hex="00BB"/>
	<outline>
		<contour>
			<point x="412" y="42" type="line"/>
			<point x="897" y="508" type="line"/>
			<point x="572" y="980" type="line"/>
			<point x="557" y="966" type="line"/>
			<point x="878" y="510" type="line"/>
			<point x="400" y="56" type="line"/>
		</contour>
		<contour>
			<point x="101" y="42" type="line"/>
			<point x="587" y="508" type="line"/>
			<point x="261" y="980" type="line"/>
			<point x="246" y="966" type="line"/>
			<point x="567" y="510" type="line"/>
			<point x="90" y="56" type="line"/>
		</contour>
	</outline>
</glyph>
<glyph name="onequarter" format="2">
	<advance width="1462"/>
	<unicode hex="00BC"/>
	<outline>
		<contour>
			<point x="135" y="0" type="line"/>
			<point x="159" y="0" type="line"/>
			<point x="1511" y="1398" type="line"/>
			<point x="1487" y="1398" type="line"/>
		</contour>
		<contour>
			<point x="753" y="168" type="line"/>
			<point x="1328" y="168" type="line"/>
			<point x="1329" y="180" type="line"/>
			<point x="1197" y="180" type="line"/>
			<point x="1193" y="180" type="line"/>
			<point x="766" y="180" type="line"/>
		</contour>
		<contour>
			<point x="276" y="549" type="line"/>
			<point x="288" y="549" type="line"/>
			<point x="436" y="1394" type="line"/>
			<point x="216" y="1347" type="line"/>
			<point x="214" y="1333" type="line"/>
			<point x="419" y="1377" type="line"/>
		</contour>
		<contour>
			<point x="1158" y="0" type="line"/>
			<point x="1170" y="0" type="line"/>
			<point x="1313" y="839" type="line"/>
			<point x="1314" y="837" type="line"/>
			<point x="751" y="170" type="line"/>
			<point x="765" y="170" type="line"/>
			<point x="1296" y="797" type="line"/>
			<point x="1188" y="176" type="line"/>
			<point x="1188" y="170" type="line"/>
		</contour>
	</outline>
</glyph>
<glyph name="onehalf" format="2">
	<advance width="1588"/>
	<unicode hex="00BD"/>
	<outline>
		<contour>
			<point x="135" y="0" type="line"/>
			<point x="159" y="0" type="line"/>
			<point x="1511" y="1398" type="line"/>
			<point x="1487" y="1398" type="line"/>
		</contour>
		<contour>
			<point x="276" y="549" type="line"/>
			<point x="288" y="549" type="line"/>
			<point x="436" y="1394" type="line"/>
			<point x="216" y="1347" type="line"/>
			<point x="214" y="1333" type="line"/>
			<point x="419" y="1377" type="line"/>
		</contour>
		<contour>
			<point x="1437" y="4" type="line"/>
			<point x="1439" y="16" type="line"/>
			<point x="941" y="17" type="line"/>
			<point x="1359" y="398" type="line" smooth="yes"/>
			<point x="1426" y="460"/>
			<point x="1498" y="530"/>
			<point x="1513" y="626" type="curve" smooth="yes"/>
			<point x="1531" y="731"/>
			<point x="1473" y="854"/>
			<point x="1330" y="857" type="curve" smooth="yes"/>
			<point x="1170" y="860"/>
			<point x="1068" y="713"/>
			<point x="1036" y="558" type="curve"/>
			<point x="1048" y="558" type="line"/>
			<point x="1079" y="706"/>
			<point x="1177" y="848"/>
			<point x="1330" y="845" type="curve" smooth="yes"/>
			<point x="1468" y="842"/>
			<point x="1517" y="724"/>
			<point x="1499" y="626" type="curve" smooth="yes"/>
			<point x="1483" y="530"/>
			<point x="1414" y="465"/>
			<point x="1349" y="404" type="curve" smooth="yes"/>
			<point x="909" y="5" type="line"/>
		</contour>
	</outline>
</glyph>
<glyph name="threequarters" format="2">
	<advance width="1590"/>
	<unicode hex="00BE"/>
	<outline>
		<contour>
			<point x="265" y="0" type="line"/>
			<point x="289" y="0" type="line"/>
			<point x="1642" y="1398" type="line"/>
			<point x="1617" y="1398" type="line"/>
		</contour>
		<contour>
			<point x="356" y="549" type="curve" smooth="yes"/>
			<point x="496" y="548"/>
			<point x="617" y="641"/>
			<point x="637" y="769" type="curve" smooth="yes"/>
			<point x="660" y="919"/>
			<point x="523" y="990"/>
			<point x="398" y="1001" type="curve"/>
			<point x="396" y="991" type="line"/>
			<point x="508" y="980"/>
			<point x="647" y="914"/>
			<point x="625" y="770" type="curve" smooth="yes"/>
			<point x="606" y="649"/>
			<point x="490" y="560"/>
			<point x="356" y="561" type="curve" smooth="yes"/>
			<point x="207" y="562"/>
			<point x="150" y="658"/>
			<point x="159" y="782" type="curve"/>
			<point x="147" y="782" type="line"/>
			<point x="137" y="654"/>
			<point x="202" y="550"/>
		</contour>
		<contour>
			<point x="883" y="168" type="line"/>
			<point x="1458" y="168" type="line"/>
			<point x="1459" y="180" type="line"/>
			<point x="1327" y="180" type="line"/>
			<point x="1323" y="180" type="line"/>
			<point x="896" y="180" type="line"/>
		</contour>
		<contour>
			<point x="1288" y="0" type="line"/>
			<point x="1300" y="0" type="line"/>
			<point x="1443" y="839" type="line"/>
			<point x="1444" y="837" type="line"/>
			<point x="881" y="170" type="line"/>
			<point x="896" y="170" type="line"/>
			<point x="1426" y="797" type="line"/>
			<point x="1319" y="176" type="line"/>
			<point x="1318" y="170" type="line"/>
		</contour>
		<contour>
			<point x="396" y="995" type="line"/>
			<point x="523" y="1004"/>
			<point x="663" y="1067"/>
			<point x="687" y="1199" type="curve" smooth="yes"/>
			<point x="706" y="1305"/>
			<point x="639" y="1409"/>
			<point x="509" y="1411" type="curve" smooth="yes"/>
			<point x="371" y="1413"/>
			<point x="281" y="1314"/>
			<point x="250" y="1194" type="curve"/>
			<point x="262" y="1194" type="line"/>
			<point x="292" y="1306"/>
			<point x="378" y="1401"/>
			<point x="508" y="1399" type="curve" smooth="yes"/>
			<point x="628" y="1397"/>
			<point x="693" y="1299"/>
			<point x="675" y="1200" type="curve" smooth="yes"/>
			<point x="652" y="1075"/>
			<point x="512" y="1015"/>
			<point x="398" y="1005" type="curve"/>
		</contour>
	</outline>
</glyph>
<glyph name="questiondown" format="2">
	<advance width="1050"/>
	<unicode hex="00BF"/>
	<outline>
		<contour>
			<point x="483" y="-19" type="curve" smooth="yes"/>
			<point x="672" y="-20"/>
			<point x="801" y="84"/>
			<point x="910" y="212" type="curve"/>
			<point x="893" y="224" type="line"/>
			<point x="788" y="99"/>
			<point x="663" y="0"/>
			<point x="484" y="1" type="curve" smooth="yes"/>
			<point x="266" y="2"/>
			<point x="144" y="167"/>
			<point x="182" y="359" type="curve" smooth="yes"/>
			<point x="208" y="517"/>
			<point x="375" y="689"/>
			<point x="690" y="711" type="curve"/>
			<point x="690" y="710" type="line"/>
			<point x="738" y="1060" type="line"/>
			<point x="723" y="1060" type="line"/>
			<point x="665" y="726" type="line"/>
			<point x="425" y="710"/>
			<point x="202" y="573"/>
			<point x="162" y="360" type="curve" smooth="yes"/>
			<point x="128" y="153"/>
			<point x="250" y="-17"/>
		</contour>
		<contour>
			<point x="796" y="1376" type="curve" smooth="yes"/>
			<point x="807" y="1376"/>
			<point x="820" y="1387"/>
			<point x="821" y="1398" type="curve" smooth="yes"/>
			<point x="822" y="1410"/>
			<point x="814" y="1420"/>
			<point x="803" y="1420" type="curve" smooth="yes"/>
			<point x="792" y="1420"/>
			<point x="779" y="1409"/>
			<point x="778" y="1398" type="curve" smooth="yes"/>
			<point x="777" y="1386"/>
			<point x="785" y="1376"/>
		</contour>
	</outline>
</glyph>
<glyph name="Agrave" format="2">
	<advance width="1164"/>
	<unicode hex="00C0"/>
	<outline>
		<contour>
			<point x="-27" y="0" type="line"/>
			<point x="-3" y="0" type="line"/>
			<point x="302" y="546" type="line"/>
			<point x="305" y="554" type="line"/>
			<point x="765" y="1376" type="line"/>
			<point x="943" y="552" type="line"/>
			<point x="944" y="546" type="line"/>
			<point x="1057" y="0" type="line"/>
			<point x="1081" y="0" type="line"/>
			<point x="773" y="1430" type="line"/>
		</contour>
		<contour>
			<point x="285" y="544" type="line"/>
			<point x="955" y="544" type="line"/>
			<point x="958" y="564" type="line"/>
			<point x="288" y="564" type="line"/>
		</contour>
		<contour>
			<point x="868" y="1551" type="line"/>
			<point x="877" y="1560" type="line"/>
			<point x="599" y="1879" type="line"/>
			<point x="581" y="1864" type="line"/>
		</contour>
	</outline>
</glyph>
<glyph name="Aacute" format="2">
	<advance width="1164"/>
	<unicode hex="00C1"/>
	<outline>
		<contour>
			<point x="-27" y="0" type="line"/>
			<point x="-3" y="0" type="line"/>
			<point x="302" y="546" type="line"/>
			<point x="305" y="554" type="line"/>
			<point x="765" y="1376" type="line"/>
			<point x="943" y="552" type="line"/>
			<point x="944" y="546" type="line"/>
			<point x="1057" y="0" type="line"/>
			<point x="1081" y="0" type="line"/>
			<point x="773" y="1430" type="line"/>
		</contour>
		<contour>
			<point x="285" y="544" type="line"/>
			<point x="955" y="544" type="line"/>
			<point x="958" y="564" type="line"/>
			<point x="288" y="564" type="line"/>
		</contour>
		<contour>
			<point x="718" y="1552" type="line"/>
			<point x="1111" y="1862" type="line"/>
			<point x="1098" y="1878" type="line"/>
			<point x="712" y="1562" type="line"/>
		</contour>
	</outline>
</glyph>
<glyph name="Acircumflex" format="2">
	<advance width="1164"/>
	<unicode hex="00C2"/>
	<outline>
		<contour>
			<point x="-27" y="0" type="line"/>
			<point x="-3" y="0" type="line"/>
			<point x="302" y="546" type="line"/>
			<point x="305" y="554" type="line"/>
			<point x="765" y="1376" type="line"/>
			<point x="943" y="552" type="line"/>
			<point x="944" y="546" type="line"/>
			<point x="1057" y="0" type="line"/>
			<point x="1081" y="0" type="line"/>
			<point x="773" y="1430" type="line"/>
		</contour>
		<contour>
			<point x="285" y="544" type="line"/>
			<point x="955" y="544" type="line"/>
			<point x="958" y="564" type="line"/>
			<point x="288" y="564" type="line"/>
		</contour>
		<contour>
			<point x="1091" y="1550" type="line"/>
			<point x="1106" y="1564" type="line"/>
			<point x="842" y="1843" type="line"/>
			<point x="483" y="1566" type="line"/>
			<point x="495" y="1552" type="line"/>
			<point x="840" y="1819" type="line"/>
		</contour>
	</outline>
</glyph>
<glyph name="Atilde" format="2">
	<advance width="1164"/>
	<unicode hex="00C3"/>
	<outline>
		<contour>
			<point x="-27" y="0" type="line"/>
			<point x="-3" y="0" type="line"/>
			<point x="302" y="546" type="line"/>
			<point x="305" y="554" type="line"/>
			<point x="765" y="1376" type="line"/>
			<point x="943" y="552" type="line"/>
			<point x="944" y="546" type="line"/>
			<point x="1057" y="0" type="line"/>
			<point x="1081" y="0" type="line"/>
			<point x="773" y="1430" type="line"/>
		</contour>
		<contour>
			<point x="285" y="544" type="line"/>
			<point x="955" y="544" type="line"/>
			<point x="958" y="564" type="line"/>
			<point x="288" y="564" type="line"/>
		</contour>
		<contour>
			<point x="574" y="1591" type="line"/>
			<point x="592" y="1639"/>
			<point x="624" y="1690"/>
			<point x="697" y="1691" type="curve" smooth="yes"/>
			<point x="781" y="1692"/>
			<point x="814" y="1599"/>
			<point x="918" y="1599" type="curve" smooth="yes"/>
			<point x="981" y="1599"/>
			<point x="1028" y="1644"/>
			<point x="1065" y="1703" type="curve"/>
			<point x="1045" y="1709" type="line"/>
			<point x="1011" y="1658"/>
			<point x="977" y="1616"/>
			<point x="919" y="1615" type="curve" smooth="yes"/>
			<point x="825" y="1613"/>
			<point x="799" y="1707"/>
			<point x="694" y="1707" type="curve" smooth="yes"/>
			<point x="612" y="1707"/>
			<point x="573" y="1649"/>
			<point x="554" y="1593" type="curve"/>
		</contour>
	</outline>
</glyph>
<glyph name="Adieresis" format="2">
	<advance width="1164"/>
	<unicode hex="00C4"/>
	<outline>
		<contour>
			<point x="-27" y="0" type="line"/>
			<point x="-3" y="0" type="line"/>
			<point x="302" y="546" type="line"/>
			<point x="305" y="554" type="line"/>
			<point x="765" y="1376" type="line"/>
			<point x="943" y="552" type="line"/>
			<point x="944" y="546" type="line"/>
			<point x="1057" y="0" type="line"/>
			<point x="1081" y="0" type="line"/>
			<point x="773" y="1430" type="line"/>
		</contour>
		<contour>
			<point x="285" y="544" type="line"/>
			<point x="955" y="544" type="line"/>
			<point x="958" y="564" type="line"/>
			<point x="288" y="564" type="line"/>
		</contour>
		<contour>
			<point x="606" y="1590" type="curve" smooth="yes"/>
			<point x="617" y="1590"/>
			<point x="630" y="1601"/>
			<point x="631" y="1612" type="curve" smooth="yes"/>
			<point x="632" y="1624"/>
			<point x="623" y="1634"/>
			<point x="612" y="1634" type="curve" smooth="yes"/>
			<point x="601" y="1634"/>
			<point x="588" y="1623"/>
			<point x="587" y="1612" type="curve" smooth="yes"/>
			<point x="586" y="1600"/>
			<point x="595" y="1590"/>
		</contour>
		<contour>
			<point x="994" y="1590" type="curve" smooth="yes"/>
			<point x="1005" y="1590"/>
			<point x="1018" y="1601"/>
			<point x="1019" y="1612" type="curve" smooth="yes"/>
			<point x="1020" y="1624"/>
			<point x="1012" y="1634"/>
			<point x="1001" y="1634" type="curve" smooth="yes"/>
			<point x="990" y="1634"/>
			<point x="977" y="1623"/>
			<point x="976" y="1612" type="curve" smooth="yes"/>
			<point x="975" y="1600"/>
			<point x="983" y="1590"/>
		</contour>
	</outline>
</glyph>
<glyph name="Aring" format="2">
	<advance width="1164"/>
	<unicode hex="00C5"/>
	<outline>
		<contour>
			<point x="-27" y="0" type="line"/>
			<point x="-3" y="0" type="line"/>
			<point x="302" y="546" type="line"/>
			<point x="305" y="554" type="line"/>
			<point x="765" y="1376" type="line"/>
			<point x="943" y="552" type="line"/>
			<point x="944" y="546" type="line"/>
			<point x="1057" y="0" type="line"/>
			<point x="1081" y="0" type="line"/>
			<point x="773" y="1430" type="line"/>
		</contour>
		<contour>
			<point x="285" y="544" type="line"/>
			<point x="955" y="544" type="line"/>
			<point x="958" y="564" type="line"/>
			<point x="288" y="564" type="line"/>
		</contour>
		<contour>
			<point x="770" y="1417" type="curve" smooth="yes"/>
			<point x="877" y="1416"/>
			<point x="986" y="1504"/>
			<point x="1003" y="1615" type="curve" smooth="yes"/>
			<point x="1019" y="1723"/>
			<point x="944" y="1814"/>
			<point x="838" y="1815" type="curve" smooth="yes"/>
			<point x="731" y="1816"/>
			<point x="622" y="1728"/>
			<point x="605" y="1617" type="curve" smooth="yes"/>
			<point x="589" y="1509"/>
			<point x="664" y="1418"/>
		</contour>
		<contour>
			<point x="772" y="1437" type="curve" smooth="yes"/>
			<point x="676" y="1439"/>
			<point x="611" y="1521"/>
			<point x="625" y="1616" type="curve" smooth="yes"/>
			<point x="640" y="1714"/>
			<point x="739" y="1797"/>
			<point x="836" y="1795" type="curve" smooth="yes"/>
			<point x="932" y="1793"/>
			<point x="997" y="1711"/>
			<point x="983" y="1616" type="curve" smooth="yes"/>
			<point x="968" y="1518"/>
			<point x="869" y="1435"/>
		</contour>
	</outline>
</glyph>
<glyph name="AE" format="2">
	<advance width="1738"/>
	<unicode hex="00C6"/>
	<outline>
		<contour>
			<point x="-46" y="0" type="line"/>
			<point x="-20" y="0" type="line"/>
			<point x="1153" y="1398" type="line"/>
			<point x="1126" y="1400" type="line"/>
		</contour>
		<contour>
			<point x="910" y="0" type="line"/>
			<point x="1530" y="0" type="line"/>
			<point x="1533" y="20" type="line"/>
			<point x="914" y="20" type="line"/>
		</contour>
		<contour>
			<point x="443" y="560" type="line"/>
			<point x="1006" y="560" type="line"/>
			<point x="1010" y="580" type="line"/>
			<point x="446" y="580" type="line"/>
		</contour>
		<contour>
			<point x="895" y="0" type="line"/>
			<point x="917" y="0" type="line"/>
			<point x="1159" y="1399" type="line"/>
			<point x="1137" y="1399" type="line"/>
		</contour>
		<contour>
			<point x="1041" y="768" type="line"/>
			<point x="1622" y="768" type="line"/>
			<point x="1625" y="788" type="line"/>
			<point x="1045" y="788" type="line"/>
		</contour>
		<contour>
			<point x="1153" y="1380" type="line"/>
			<point x="1765" y="1380" type="line"/>
			<point x="1769" y="1400" type="line"/>
			<point x="1126" y="1400" type="line"/>
		</contour>
	</outline>
</glyph>
<glyph name="Ccedilla" format="2">
	<advance width="1328"/>
	<unicode hex="00C7"/>
	<outline>
		<contour>
			<point x="682" y="-15" type="curve" smooth="yes"/>
			<point x="871" y="-16"/>
			<point x="1013" y="46"/>
			<point x="1145" y="143" type="curve"/>
			<point x="1151" y="174" type="line"/>
			<point x="1020" y="70"/>
			<point x="872" y="8"/>
			<point x="684" y="9" type="curve" smooth="yes"/>
			<point x="306" y="12"/>
			<point x="134" y="347"/>
			<point x="186" y="700" type="curve" smooth="yes"/>
			<point x="246" y="1078"/>
			<point x="540" y="1390"/>
			<point x="922" y="1392" type="curve" smooth="yes"/>
			<point x="1090" y="1393"/>
			<point x="1227" y="1341"/>
			<point x="1330" y="1227" type="curve"/>
			<point x="1335" y="1257" type="line"/>
			<point x="1225" y="1363"/>
			<point x="1101" y="1417"/>
			<point x="924" y="1416" type="curve" smooth="yes"/>
			<point x="528" y="1414"/>
			<point x="223" y="1091"/>
			<point x="162" y="700" type="curve" smooth="yes"/>
			<point x="108" y="331"/>
			<point x="290" y="-13"/>
		</contour>
		<contour>
			<point x="581" y="-441" type="curve" smooth="yes"/>
			<point x="689" y="-442"/>
			<point x="807" y="-369"/>
			<point x="821" y="-255" type="curve" smooth="yes"/>
			<point x="831" y="-170"/>
			<point x="775" y="-111"/>
			<point x="703" y="-107" type="curve" smooth="yes"/>
			<point x="645" y="-104"/>
			<point x="607" y="-127"/>
			<point x="559" y="-153" type="curve"/>
			<point x="696" y="-3" type="line"/>
			<point x="672" y="-3" type="line"/>
			<point x="534" y="-177" type="line"/>
			<point x="583" y="-150"/>
			<point x="642" y="-123"/>
			<point x="701" y="-127" type="curve" smooth="yes"/>
			<point x="763" y="-131"/>
			<point x="810" y="-180"/>
			<point x="801" y="-254" type="curve" smooth="yes"/>
			<point x="787" y="-358"/>
			<point x="678" y="-421"/>
			<point x="583" y="-421" type="curve" smooth="yes"/>
			<point x="522" y="-421"/>
			<point x="482" y="-396"/>
			<point x="435" y="-354" type="curve"/>
			<point x="420" y="-366" type="line"/>
			<point x="469" y="-415"/>
			<point x="512" y="-441"/>
		</contour>
	</outline>
</glyph>
<glyph name="Egrave" format="2">
	<advance width="988"/>
	<unicode hex="00C8"/>
	<outline>
		<contour>
			<point x="119" y="0" type="line"/>
			<point x="141" y="0" type="line"/>
			<point x="382" y="1399" type="line"/>
			<point x="360" y="1399" type="line"/>
		</contour>
		<contour>
			<point x="124" y="0" type="line"/>
			<point x="781" y="0" type="line"/>
			<point x="784" y="20" type="line"/>
			<point x="127" y="20" type="line"/>
		</contour>
		<contour>
			<point x="255" y="768" type="line"/>
			<point x="873" y="768" type="line"/>
			<point x="876" y="788" type="line"/>
			<point x="259" y="788" type="line"/>
		</contour>
		<contour>
			<point x="360" y="1380" type="line"/>
			<point x="1016" y="1380" type="line"/>
			<point x="1019" y="1400" type="line"/>
			<point x="363" y="1400" type="line"/>
		</contour>
		<contour>
			<point x="749" y="1537" type="line"/>
			<point x="758" y="1546" type="line"/>
			<point x="480" y="1865" type="line"/>
			<point x="463" y="1850" type="line"/>
		</contour>
	</outline>
</glyph>
<glyph name="Ecircumflex" format="2">
	<advance width="988"/>
	<unicode hex="00CA"/>
	<outline>
		<contour>
			<point x="119" y="0" type="line"/>
			<point x="141" y="0" type="line"/>
			<point x="382" y="1399" type="line"/>
			<point x="360" y="1399" type="line"/>
		</contour>
		<contour>
			<point x="124" y="0" type="line"/>
			<point x="781" y="0" type="line"/>
			<point x="784" y="20" type="line"/>
			<point x="127" y="20" type="line"/>
		</contour>
		<contour>
			<point x="255" y="768" type="line"/>
			<point x="873" y="768" type="line"/>
			<point x="876" y="788" type="line"/>
			<point x="259" y="788" type="line"/>
		</contour>
		<contour>
			<point x="360" y="1380" type="line"/>
			<point x="1016" y="1380" type="line"/>
			<point x="1019" y="1400" type="line"/>
			<point x="363" y="1400" type="line"/>
		</contour>
		<contour>
			<point x="1011" y="1536" type="line"/>
			<point x="1026" y="1550" type="line"/>
			<point x="762" y="1829" type="line"/>
			<point x="403" y="1552" type="line"/>
			<point x="415" y="1538" type="line"/>
			<point x="760" y="1805" type="line"/>
		</contour>
	</outline>
</glyph>
<glyph name="Edieresis" format="2">
	<advance width="988"/>
	<unicode hex="00CB"/>
	<outline>
		<contour>
			<point x="119" y="0" type="line"/>
			<point x="141" y="0" type="line"/>
			<point x="382" y="1399" type="line"/>
			<point x="360" y="1399" type="line"/>
		</contour>
		<contour>
			<point x="124" y="0" type="line"/>
			<point x="781" y="0" type="line"/>
			<point x="784" y="20" type="line"/>
			<point x="127" y="20" type="line"/>
		</contour>
		<contour>
			<point x="255" y="768" type="line"/>
			<point x="873" y="768" type="line"/>
			<point x="876" y="788" type="line"/>
			<point x="259" y="788" type="line"/>
		</contour>
		<contour>
			<point x="360" y="1380" type="line"/>
			<point x="1016" y="1380" type="line"/>
			<point x="1019" y="1400" type="line"/>
			<point x="363" y="1400" type="line"/>
		</contour>
		<contour>
			<point x="526" y="1576" type="curve" smooth="yes"/>
			<point x="537" y="1576"/>
			<point x="550" y="1587"/>
			<point x="551" y="1598" type="curve" smooth="yes"/>
			<point x="552" y="1610"/>
			<point x="543" y="1620"/>
			<point x="532" y="1620" type="curve" smooth="yes"/>
			<point x="521" y="1620"/>
			<point x="508" y="1609"/>
			<point x="507" y="1598" type="curve" smooth="yes"/>
			<point x="506" y="1586"/>
			<point x="515" y="1576"/>
		</contour>
		<contour>
			<point x="914" y="1576" type="curve" smooth="yes"/>
			<point x="925" y="1576"/>
			<point x="938" y="1587"/>
			<point x="939" y="1598" type="curve" smooth="yes"/>
			<point x="940" y="1610"/>
			<point x="932" y="1620"/>
			<point x="921" y="1620" type="curve" smooth="yes"/>
			<point x="910" y="1620"/>
			<point x="897" y="1609"/>
			<point x="896" y="1598" type="curve" smooth="yes"/>
			<point x="895" y="1586"/>
			<point x="903" y="1576"/>
		</contour>
	</outline>
</glyph>
<glyph name="Igrave" format="2">
	<advance width="348"/>
	<unicode hex="00CC"/>
	<outline>
		<contour>
			<point x="109" y="0" type="line"/>
			<point x="129" y="0" type="line"/>
			<point x="371" y="1399" type="line"/>
			<point x="351" y="1399" type="line"/>
		</contour>
		<contour>
			<point x="419" y="1537" type="line"/>
			<point x="428" y="1546" type="line"/>
			<point x="150" y="1865" type="line"/>
			<point x="133" y="1850" type="line"/>
		</contour>
	</outline>
</glyph>
<glyph name="Iacute" format="2">
	<advance width="348"/>
	<unicode hex="00CD"/>
	<outline>
		<contour>
			<point x="109" y="0" type="line"/>
			<point x="129" y="0" type="line"/>
			<point x="371" y="1399" type="line"/>
			<point x="351" y="1399" type="line"/>
		</contour>
		<contour>
			<point x="347" y="1538" type="line"/>
			<point x="740" y="1848" type="line"/>
			<point x="727" y="1864" type="line"/>
			<point x="340" y="1548" type="line"/>
		</contour>
	</outline>
</glyph>
<glyph name="Icircumflex" format="2">
	<advance width="348"/>
	<unicode hex="00CE"/>
	<outline>
		<contour>
			<point x="109" y="0" type="line"/>
			<point x="129" y="0" type="line"/>
			<point x="371" y="1399" type="line"/>
			<point x="351" y="1399" type="line"/>
		</contour>
		<contour>
			<point x="681" y="1536" type="line"/>
			<point x="696" y="1550" type="line"/>
			<point x="432" y="1829" type="line"/>
			<point x="73" y="1552" type="line"/>
			<point x="85" y="1538" type="line"/>
			<point x="430" y="1805" type="line"/>
		</contour>
	</outline>
</glyph>
<glyph name="Idieresis" format="2">
	<advance width="348"/>
	<unicode hex="00CF"/>
	<outline>
		<contour>
			<point x="109" y="0" type="line"/>
			<point x="129" y="0" type="line"/>
			<point x="371" y="1399" type="line"/>
			<point x="351" y="1399" type="line"/>
		</contour>
		<contour>
			<point x="254" y="1576" type="curve" smooth="yes"/>
			<point x="265" y="1576"/>
			<point x="278" y="1587"/>
			<point x="279" y="1598" type="curve" smooth="yes"/>
			<point x="280" y="1610"/>
			<point x="272" y="1620"/>
			<point x="261" y="1620" type="curve" smooth="yes"/>
			<point x="250" y="1620"/>
			<point x="237" y="1609"/>
			<point x="236" y="1598" type="curve" smooth="yes"/>
			<point x="235" y="1586"/>
			<point x="243" y="1576"/>
		</contour>
		<contour>
			<point x="526" y="1576" type="curve" smooth="yes"/>
			<point x="537" y="1576"/>
			<point x="550" y="1587"/>
			<point x="551" y="1598" type="curve" smooth="yes"/>
			<point x="552" y="1610"/>
			<point x="543" y="1620"/>
			<point x="532" y="1620" type="curve" smooth="yes"/>
			<point x="521" y="1620"/>
			<point x="508" y="1609"/>
			<point x="507" y="1598" type="curve" smooth="yes"/>
			<point x="506" y="1586"/>
			<point x="515" y="1576"/>
		</contour>
	</outline>
</glyph>
<glyph name="Eth" format="2">
	<advance width="1318"/>
	<unicode hex="00D0"/>
	<outline>
		<contour>
			<point x="130" y="0" type="line"/>
			<point x="432" y="0" type="line"/>
			<point x="840" y="6"/>
			<point x="1138" y="304"/>
			<point x="1201" y="700" type="curve" smooth="yes"/>
			<point x="1258" y="1077"/>
			<point x="1071" y="1393"/>
			<point x="669" y="1400" type="curve"/>
			<point x="369" y="1400" type="line"/>
			<point x="365" y="1378" type="line"/>
			<point x="667" y="1378" type="line"/>
			<point x="1057" y="1370"/>
			<point x="1235" y="1065"/>
			<point x="1179" y="700" type="curve" smooth="yes"/>
			<point x="1117" y="316"/>
			<point x="829" y="29"/>
			<point x="434" y="22" type="curve"/>
			<point x="134" y="22" type="line"/>
		</contour>
		<contour>
			<point x="119" y="0" type="line"/>
			<point x="141" y="0" type="line"/>
			<point x="382" y="1399" type="line"/>
			<point x="360" y="1399" type="line"/>
		</contour>
		<contour>
			<point x="73" y="690" type="line"/>
			<point x="656" y="690" type="line"/>
			<point x="659" y="710" type="line"/>
			<point x="76" y="710" type="line"/>
		</contour>
	</outline>
</glyph>
<glyph name="Ntilde" format="2">
	<advance width="1290"/>
	<unicode hex="00D1"/>
	<outline>
		<contour>
			<point x="1095" y="-30" type="line"/>
			<point x="1341" y="1399" type="line"/>
			<point x="1319" y="1399" type="line"/>
			<point x="1084" y="34" type="line"/>
			<point x="287" y="1430" type="line"/>
			<point x="41" y="0" type="line"/>
			<point x="63" y="0" type="line"/>
			<point x="297" y="1356" type="line"/>
		</contour>
		<contour>
			<point x="618" y="1511" type="line"/>
			<point x="635" y="1560"/>
			<point x="669" y="1612"/>
			<point x="743" y="1611" type="curve" smooth="yes"/>
			<point x="827" y="1610"/>
			<point x="868" y="1519"/>
			<point x="962" y="1519" type="curve" smooth="yes"/>
			<point x="1026" y="1519"/>
			<point x="1072" y="1564"/>
			<point x="1109" y="1623" type="curve"/>
			<point x="1091" y="1629" type="line"/>
			<point x="1057" y="1578"/>
			<point x="1023" y="1536"/>
			<point x="965" y="1535" type="curve" smooth="yes"/>
			<point x="871" y="1533"/>
			<point x="835" y="1627"/>
			<point x="740" y="1627" type="curve" smooth="yes"/>
			<point x="658" y="1627"/>
			<point x="619" y="1569"/>
			<point x="600" y="1513" type="curve"/>
		</contour>
	</outline>
</glyph>
<glyph name="Oacute" format="2">
	<advance width="1502"/>
	<unicode hex="00D3"/>
	<outline>
		<contour>
			<point x="696" y="-16" type="curve" smooth="yes"/>
			<point x="1092" y="-17"/>
			<point x="1410" y="309"/>
			<point x="1471" y="700" type="curve" smooth="yes"/>
			<point x="1525" y="1071"/>
			<point x="1329" y="1415"/>
			<point x="937" y="1416" type="curve" smooth="yes"/>
			<point x="541" y="1417"/>
			<point x="223" y="1091"/>
			<point x="162" y="700" type="curve" smooth="yes"/>
			<point x="108" y="329"/>
			<point x="304" y="-15"/>
		</contour>
		<contour>
			<point x="697" y="6" type="curve" smooth="yes"/>
			<point x="313" y="7"/>
			<point x="131" y="343"/>
			<point x="184" y="700" type="curve" smooth="yes"/>
			<point x="244" y="1077"/>
			<point x="548" y="1395"/>
			<point x="936" y="1394" type="curve" smooth="yes"/>
			<point x="1320" y="1393"/>
			<point x="1502" y="1057"/>
			<point x="1449" y="700" type="curve" smooth="yes"/>
			<point x="1389" y="323"/>
			<point x="1085" y="5"/>
		</contour>
		<contour>
			<point x="887" y="1538" type="line"/>
			<point x="1276" y="1848" type="line"/>
			<point x="1262" y="1864" type="line"/>
			<point x="876" y="1548" type="line"/>
		</contour>
	</outline>
</glyph>
<glyph name="Otilde" format="2">
	<advance width="1502"/>
	<unicode hex="00D5"/>
	<outline>
		<contour>
			<point x="696" y="-16" type="curve" smooth="yes"/>
			<point x="1092" y="-17"/>
			<point x="1410" y="309"/>
			<point x="1471" y="700" type="curve" smooth="yes"/>
			<point x="1525" y="1071"/>
			<point x="1329" y="1415"/>
			<point x="937" y="1416" type="curve" smooth="yes"/>
			<point x="541" y="1417"/>
			<point x="223" y="1091"/>
			<point x="162" y="700" type="curve" smooth="yes"/>
			<point x="108" y="329"/>
			<point x="304" y="-15"/>
		</contour>
		<contour>
			<point x="697" y="6" type="curve" smooth="yes"/>
			<point x="313" y="7"/>
			<point x="131" y="343"/>
			<point x="184" y="700" type="curve" smooth="yes"/>
			<point x="244" y="1077"/>
			<point x="548" y="1395"/>
			<point x="936" y="1394" type="curve" smooth="yes"/>
			<point x="1320" y="1393"/>
			<point x="1502" y="1057"/>
			<point x="1449" y="700" type="curve" smooth="yes"/>
			<point x="1389" y="323"/>
			<point x="1085" y="5"/>
		</contour>
		<contour>
			<point x="738" y="1577" type="line"/>
			<point x="756" y="1626"/>
			<point x="791" y="1678"/>
			<point x="866" y="1677" type="curve" smooth="yes"/>
			<point x="949" y="1676"/>
			<point x="989" y="1585"/>
			<point x="1083" y="1585" type="curve" smooth="yes"/>
			<point x="1147" y="1585"/>
			<point x="1192" y="1630"/>
			<point x="1229" y="1689" type="curve"/>
			<point x="1214" y="1695" type="line"/>
			<point x="1180" y="1644"/>
			<point x="1145" y="1602"/>
			<point x="1087" y="1601" type="curve" smooth="yes"/>
			<point x="993" y="1599"/>
			<point x="958" y="1693"/>
			<point x="863" y="1693" type="curve" smooth="yes"/>
			<point x="780" y="1693"/>
			<point x="740" y="1634"/>
			<point x="722" y="1579" type="curve"/>
		</contour>
	</outline>
</glyph>
<glyph name="Odieresis" format="2">
	<advance width="1502"/>
	<unicode hex="00D6"/>
	<outline>
		<contour>
			<point x="696" y="-16" type="curve" smooth="yes"/>
			<point x="1092" y="-17"/>
			<point x="1410" y="309"/>
			<point x="1471" y="700" type="curve" smooth="yes"/>
			<point x="1525" y="1071"/>
			<point x="1329" y="1415"/>
			<point x="937" y="1416" type="curve" smooth="yes"/>
			<point x="541" y="1417"/>
			<point x="223" y="1091"/>
			<point x="162" y="700" type="curve" smooth="yes"/>
			<point x="108" y="329"/>
			<point x="304" y="-15"/>
		</contour>
		<contour>
			<point x="697" y="6" type="curve" smooth="yes"/>
			<point x="313" y="7"/>
			<point x="131" y="343"/>
			<point x="184" y="700" type="curve" smooth="yes"/>
			<point x="244" y="1077"/>
			<point x="548" y="1395"/>
			<point x="936" y="1394" type="curve" smooth="yes"/>
			<point x="1320" y="1393"/>
			<point x="1502" y="1057"/>
			<point x="1449" y="700" type="curve" smooth="yes"/>
			<point x="1389" y="323"/>
			<point x="1085" y="5"/>
		</contour>
		<contour>
			<point x="756" y="1596" type="curve" smooth="yes"/>
			<point x="767" y="1596"/>
			<point x="780" y="1607"/>
			<point x="781" y="1618" type="curve" smooth="yes"/>
			<point x="782" y="1630"/>
			<point x="774" y="1640"/>
			<point x="763" y="1640" type="curve" smooth="yes"/>
			<point x="752" y="1640"/>
			<point x="739" y="1629"/>
			<point x="738" y="1618" type="curve" smooth="yes"/>
			<point x="737" y="1606"/>
			<point x="745" y="1596"/>
		</contour>
		<contour>
			<point x="1183" y="1596" type="curve" smooth="yes"/>
			<point x="1194" y="1596"/>
			<point x="1207" y="1607"/>
			<point x="1208" y="1618" type="curve" smooth="yes"/>
			<point x="1209" y="1630"/>
			<point x="1201" y="1640"/>
			<point x="1190" y="1640" type="curve" smooth="yes"/>
			<point x="1179" y="1640"/>
			<point x="1166" y="1629"/>
			<point x="1165" y="1618" type="curve" smooth="yes"/>
			<point x="1164" y="1606"/>
			<point x="1172" y="1596"/>
		</contour>
	</outline>
</glyph>
<glyph name="multiply" format="2">
	<advance width="1120"/>
	<unicode hex="00D7"/>
	<outline>
		<contour>
			<point x="914" y="92" type="line"/>
			<point x="929" y="106" type="line"/>
			<point x="604" y="508" type="line"/>
			<point x="1069" y="910" type="line"/>
			<point x="1057" y="924" type="line"/>
			<point x="594" y="521" type="line"/>
			<point x="271" y="926" type="line"/>
			<point x="256" y="912" type="line"/>
			<point x="583" y="508" type="line"/>
			<point x="120" y="108" type="line"/>
			<point x="132" y="94" type="line"/>
			<point x="592" y="495" type="line"/>
		</contour>
	</outline>
</glyph>
<glyph name="Ugrave" format="2">
	<advance width="1116"/>
	<unicode hex="00D9"/>
	<outline>
		<contour>
			<point x="503" y="-19" type="curve" smooth="yes"/>
			<point x="772" y="-20"/>
			<point x="933" y="185"/>
			<point x="975" y="440" type="curve" smooth="yes"/>
			<point x="1139" y="1399" type="line"/>
			<point x="1117" y="1399" type="line"/>
			<point x="952" y="440" type="line" smooth="yes"/>
			<point x="912" y="196"/>
			<point x="750" y="2"/>
			<point x="504" y="3" type="curve" smooth="yes"/>
			<point x="258" y="4"/>
			<point x="177" y="208"/>
			<point x="207" y="440" type="curve" smooth="yes"/>
			<point x="372" y="1399" type="line"/>
			<point x="351" y="1399" type="line"/>
			<point x="186" y="440" type="line" smooth="yes"/>
			<point x="154" y="197"/>
			<point x="234" y="-18"/>
		</contour>
		<contour>
			<point x="842" y="1537" type="line"/>
			<point x="851" y="1546" type="line"/>
			<point x="573" y="1865" type="line"/>
			<point x="556" y="1850" type="line"/>
		</contour>
	</outline>
</glyph>
<glyph name="Ucircumflex" format="2">
	<advance width="1116"/>
	<unicode hex="00DB"/>
	<outline>
		<contour>
			<point x="503" y="-19" type="curve" smooth="yes"/>
			<point x="772" y="-20"/>
			<point x="933" y="185"/>
			<point x="975" y="440" type="curve" smooth="yes"/>
			<point x="1139" y="1399" type="line"/>
			<point x="1117" y="1399" type="line"/>
			<point x="952" y="440" type="line" smooth="yes"/>
			<point x="912" y="196"/>
			<point x="750" y="2"/>
			<point x="504" y="3" type="curve" smooth="yes"/>
			<point x="258" y="4"/>
			<point x="177" y="208"/>
			<point x="207" y="440" type="curve" smooth="yes"/>
			<point x="372" y="1399" type="line"/>
			<point x="351" y="1399" type="line"/>
			<point x="186" y="440" type="line" smooth="yes"/>
			<point x="154" y="197"/>
			<point x="234" y="-18"/>
		</contour>
		<contour>
			<point x="1065" y="1536" type="line"/>
			<point x="1081" y="1550" type="line"/>
			<point x="817" y="1829" type="line"/>
			<point x="458" y="1552" type="line"/>
			<point x="469" y="1538" type="line"/>
			<point x="814" y="1805" type="line"/>
		</contour>
	</outline>
</glyph>
<glyph name="Udieresis" format="2">
	<advance width="1116"/>
	<unicode hex="00DC"/>
	<outline>
		<contour>
			<point x="503" y="-19" type="curve" smooth="yes"/>
			<point x="772" y="-20"/>
			<point x="933" y="185"/>
			<point x="975" y="440" type="curve" smooth="yes"/>
			<point x="1139" y="1399" type="line"/>
			<point x="1117" y="1399" type="line"/>
			<point x="952" y="440" type="line" smooth="yes"/>
			<point x="912" y="196"/>
			<point x="750" y="2"/>
			<point x="504" y="3" type="curve" smooth="yes"/>
			<point x="258" y="4"/>
			<point x="177" y="208"/>
			<point x="207" y="440" type="curve" smooth="yes"/>
			<point x="372" y="1399" type="line"/>
			<point x="351" y="1399" type="line"/>
			<point x="186" y="440" type="line" smooth="yes"/>
			<point x="154" y="197"/>
			<point x="234" y="-18"/>
		</contour>
		<contour>
			<point x="593" y="1536" type="curve" smooth="yes"/>
			<point x="604" y="1536"/>
			<point x="617" y="1547"/>
			<point x="618" y="1558" type="curve" smooth="yes"/>
			<point x="619" y="1570"/>
			<point x="610" y="1580"/>
			<point x="599" y="1580" type="curve" smooth="yes"/>
			<point x="588" y="1580"/>
			<point x="575" y="1569"/>
			<point x="574" y="1558" type="curve" smooth="yes"/>
			<point x="573" y="1546"/>
			<point x="582" y="1536"/>
		</contour>
		<contour>
			<point x="942" y="1536" type="curve" smooth="yes"/>
			<point x="953" y="1536"/>
			<point x="966" y="1547"/>
			<point x="967" y="1558" type="curve" smooth="yes"/>
			<point x="968" y="1570"/>
			<point x="960" y="1580"/>
			<point x="949" y="1580" type="curve" smooth="yes"/>
			<point x="938" y="1580"/>
			<point x="925" y="1569"/>
			<point x="924" y="1558" type="curve" smooth="yes"/>
			<point x="923" y="1546"/>
			<point x="931" y="1536"/>
		</contour>
	</outline>
</glyph>
<glyph name="Thorn" format="2">
	<advance width="1008"/>
	<unicode hex="00DE"/>
	<outline>
		<contour>
			<point x="156" y="280" type="line"/>
			<point x="460" y="280" type="line"/>
			<point x="723" y="285"/>
			<point x="952" y="447"/>
			<point x="994" y="700" type="curve" smooth="yes"/>
			<point x="1034" y="947"/>
			<point x="856" y="1115"/>
			<point x="602" y="1120" type="curve"/>
			<point x="300" y="1120" type="line"/>
			<point x="296" y="1100" type="line"/>
			<point x="600" y="1100" type="line"/>
			<point x="838" y="1094"/>
			<point x="1011" y="938"/>
			<point x="972" y="700" type="curve" smooth="yes"/>
			<point x="932" y="468"/>
			<point x="707" y="306"/>
			<point x="462" y="300" type="curve"/>
			<point x="160" y="300" type="line"/>
		</contour>
		<contour>
			<point x="100" y="0" type="line"/>
			<point x="119" y="0" type="line"/>
			<point x="361" y="1399" type="line"/>
			<point x="341" y="1399" type="line"/>
		</contour>
	</outline>
</glyph>
<glyph name="germandbls" format="2">
	<advance width="1028"/>
	<unicode hex="00DF"/>
	<outline>
		<contour>
			<point x="100" y="0" type="line"/>
			<point x="119" y="0" type="line"/>
			<point x="327" y="1212" type="line" smooth="yes"/>
			<point x="361" y="1396"/>
			<point x="511" y="1559"/>
			<point x="712" y="1559" type="curve" smooth="yes"/>
			<point x="945" y="1559"/>
			<point x="1030" y="1398"/>
			<point x="997" y="1212" type="curve" smooth="yes"/>
			<point x="958" y="990"/>
			<point x="765" y="914"/>
			<point x="550" y="906" type="curve"/>
			<point x="548" y="891" type="line"/>
			<point x="814" y="899"/>
			<point x="977" y="998"/>
			<point x="1017" y="1211" type="curve" smooth="yes"/>
			<point x="1051" y="1417"/>
			<point x="959" y="1580"/>
			<point x="713" y="1579" type="curve" smooth="yes"/>
			<point x="500" y="1578"/>
			<point x="344" y="1416"/>
			<point x="307" y="1212" type="curve"/>
		</contour>
		<contour>
			<point x="431" y="-19" type="line"/>
			<point x="703" y="-5"/>
			<point x="921" y="178"/>
			<point x="965" y="450" type="curve" smooth="yes"/>
			<point x="1008" y="709"/>
			<point x="830" y="887"/>
			<point x="549" y="899" type="curve"/>
			<point x="547" y="886" type="line"/>
			<point x="778" y="873"/>
			<point x="987" y="728"/>
			<point x="945" y="450" type="curve" smooth="yes"/>
			<point x="902" y="191"/>
			<point x="694" y="16"/>
			<point x="434" y="0" type="curve"/>
		</contour>
	</outline>
</glyph>
<glyph name="atilde" format="2">
	<advance width="1050"/>
	<unicode hex="00E3"/>
	<outline>
		<contour>
			<point x="444" y="-19" type="curve" smooth="yes"/>
			<point x="694" y="-18"/>
			<point x="873" y="231"/>
			<point x="910" y="460" type="curve" smooth="yes"/>
			<point x="941" y="673"/>
			<point x="855" y="936"/>
			<point x="606" y="939" type="curve" smooth="yes"/>
			<point x="353" y="942"/>
			<point x="150" y="723"/>
			<point x="111" y="460" type="curve" smooth="yes"/>
			<point x="77" y="211"/>
			<point x="191" y="-20"/>
		</contour>
		<contour>
			<point x="451" y="1" type="curve" smooth="yes"/>
			<point x="207" y="-1"/>
			<point x="98" y="222"/>
			<point x="131" y="460" type="curve" smooth="yes"/>
			<point x="169" y="712"/>
			<point x="367" y="924"/>
			<point x="610" y="919" type="curve" smooth="yes"/>
			<point x="837" y="915"/>
			<point x="930" y="664"/>
			<point x="900" y="460" type="curve" smooth="yes"/>
			<point x="864" y="239"/>
			<point x="680" y="3"/>
		</contour>
		<contour>
			<point x="820" y="0" type="line"/>
			<point x="839" y="0" type="line"/>
			<point x="999" y="919" type="line"/>
			<point x="979" y="919" type="line"/>
		</contour>
		<contour>
			<point x="409" y="1101" type="line"/>
			<point x="427" y="1149"/>
			<point x="459" y="1200"/>
			<point x="532" y="1201" type="curve" smooth="yes"/>
			<point x="616" y="1202"/>
			<point x="659" y="1109"/>
			<point x="753" y="1109" type="curve" smooth="yes"/>
			<point x="816" y="1109"/>
			<point x="863" y="1154"/>
			<point x="900" y="1213" type="curve"/>
			<point x="880" y="1219" type="line"/>
			<point x="846" y="1168"/>
			<point x="812" y="1126"/>
			<point x="754" y="1125" type="curve" smooth="yes"/>
			<point x="660" y="1123"/>
			<point x="624" y="1218"/>
			<point x="529" y="1217" type="curve" smooth="yes"/>
			<point x="468" y="1217"/>
			<point x="375" y="1156"/>
			<point x="389" y="1103" type="curve"/>
		</contour>
	</outline>
</glyph>
<glyph name="adieresis" format="2">
	<advance width="1050"/>
	<unicode hex="00E4"/>
	<outline>
		<contour>
			<point x="444" y="-19" type="curve" smooth="yes"/>
			<point x="694" y="-18"/>
			<point x="873" y="231"/>
			<point x="910" y="460" type="curve" smooth="yes"/>
			<point x="941" y="673"/>
			<point x="855" y="936"/>
			<point x="606" y="939" type="curve" smooth="yes"/>
			<point x="353" y="942"/>
			<point x="150" y="723"/>
			<point x="111" y="460" type="curve" smooth="yes"/>
			<point x="77" y="211"/>
			<point x="191" y="-20"/>
		</contour>
		<contour>
			<point x="451" y="1" type="curve" smooth="yes"/>
			<point x="207" y="-1"/>
			<point x="98" y="222"/>
			<point x="131" y="460" type="curve" smooth="yes"/>
			<point x="169" y="712"/>
			<point x="367" y="924"/>
			<point x="610" y="919" type="curve" smooth="yes"/>
			<point x="837" y="915"/>
			<point x="930" y="664"/>
			<point x="900" y="460" type="curve" smooth="yes"/>
			<point x="864" y="239"/>
			<point x="680" y="3"/>
		</contour>
		<contour>
			<point x="820" y="0" type="line"/>
			<point x="839" y="0" type="line"/>
			<point x="999" y="919" type="line"/>
			<point x="979" y="919" type="line"/>
		</contour>
		<contour>
			<point x="470" y="1160" type="curve" smooth="yes"/>
			<point x="481" y="1160"/>
			<point x="494" y="1171"/>
			<point x="495" y="1182" type="curve" smooth="yes"/>
			<point x="496" y="1194"/>
			<point x="488" y="1204"/>
			<point x="477" y="1204" type="curve" smooth="yes"/>
			<point x="466" y="1204"/>
			<point x="453" y="1193"/>
			<point x="452" y="1182" type="curve" smooth="yes"/>
			<point x="451" y="1170"/>
			<point x="459" y="1160"/>
		</contour>
		<contour>
			<point x="858" y="1160" type="curve" smooth="yes"/>
			<point x="869" y="1160"/>
			<point x="882" y="1171"/>
			<point x="883" y="1182" type="curve" smooth="yes"/>
			<point x="884" y="1194"/>
			<point x="876" y="1204"/>
			<point x="865" y="1204" type="curve" smooth="yes"/>
			<point x="854" y="1204"/>
			<point x="841" y="1193"/>
			<point x="840" y="1182" type="curve" smooth="yes"/>
			<point x="839" y="1170"/>
			<point x="847" y="1160"/>
		</contour>
	</outline>
</glyph>
<glyph name="aring" format="2">
	<advance width="1050"/>
	<unicode hex="00E5"/>
	<outline>
		<contour>
			<point x="444" y="-19" type="curve" smooth="yes"/>
			<point x="694" y="-18"/>
			<point x="873" y="231"/>
			<point x="910" y="460" type="curve" smooth="yes"/>
			<point x="941" y="673"/>
			<point x="855" y="936"/>
			<point x="606" y="939" type="curve" smooth="yes"/>
			<point x="353" y="942"/>
			<point x="150" y="723"/>
			<point x="111" y="460" type="curve" smooth="yes"/>
			<point x="77" y="211"/>
			<point x="191" y="-20"/>
		</contour>
		<contour>
			<point x="451" y="1" type="curve" smooth="yes"/>
			<point x="207" y="-1"/>
			<point x="98" y="222"/>
			<point x="131" y="460" type="curve" smooth="yes"/>
			<point x="169" y="712"/>
			<point x="367" y="924"/>
			<point x="610" y="919" type="curve" smooth="yes"/>
			<point x="837" y="915"/>
			<point x="930" y="664"/>
			<point x="900" y="460" type="curve" smooth="yes"/>
			<point x="864" y="239"/>
			<point x="680" y="3"/>
		</contour>
		<contour>
			<point x="820" y="0" type="line"/>
			<point x="839" y="0" type="line"/>
			<point x="999" y="919" type="line"/>
			<point x="979" y="919" type="line"/>
		</contour>
		<contour>
			<point x="628" y="1061" type="curve" smooth="yes"/>
			<point x="735" y="1060"/>
			<point x="843" y="1148"/>
			<point x="860" y="1259" type="curve" smooth="yes"/>
			<point x="876" y="1367"/>
			<point x="801" y="1458"/>
			<point x="695" y="1459" type="curve" smooth="yes"/>
			<point x="588" y="1460"/>
			<point x="480" y="1372"/>
			<point x="463" y="1261" type="curve" smooth="yes"/>
			<point x="447" y="1153"/>
			<point x="522" y="1062"/>
		</contour>
		<contour>
			<point x="629" y="1081" type="curve" smooth="yes"/>
			<point x="533" y="1083"/>
			<point x="468" y="1165"/>
			<point x="482" y="1260" type="curve" smooth="yes"/>
			<point x="497" y="1358"/>
			<point x="597" y="1441"/>
			<point x="694" y="1439" type="curve" smooth="yes"/>
			<point x="790" y="1437"/>
			<point x="855" y="1355"/>
			<point x="841" y="1260" type="curve" smooth="yes"/>
			<point x="826" y="1162"/>
			<point x="726" y="1079"/>
		</contour>
	</outline>
</glyph>
<glyph name="ae" format="2">
	<advance width="1600"/>
	<unicode hex="00E6"/>
	<outline>
		<contour>
			<point x="1036" y="-20" type="curve" smooth="yes"/>
			<point x="1252" y="-22"/>
			<point x="1382" y="80"/>
			<point x="1496" y="212" type="curve"/>
			<point x="1482" y="224" type="line"/>
			<point x="1376" y="104"/>
			<point x="1248" y="-2"/>
			<point x="1038" y="2" type="curve" smooth="yes"/>
			<point x="798" y="7"/>
			<point x="710" y="240"/>
			<point x="736" y="470" type="curve"/>
			<point x="736" y="472" type="line"/>
			<point x="784" y="704"/>
			<point x="966" y="923"/>
			<point x="1228" y="920" type="curve" smooth="yes"/>
			<point x="1432" y="918"/>
			<point x="1572" y="726"/>
			<point x="1536" y="500" type="curve" smooth="yes"/>
			<point x="1530" y="462" type="line"/>
			<point x="1548" y="456" type="line"/>
			<point x="1552" y="472"/>
			<point x="1558" y="490"/>
			<point x="1560" y="506" type="curve" smooth="yes"/>
			<point x="1590" y="746"/>
			<point x="1432" y="938"/>
			<point x="1238" y="940" type="curve" smooth="yes"/>
			<point x="992" y="943"/>
			<point x="821" y="768"/>
			<point x="742" y="558" type="curve" smooth="yes"/>
			<point x="730" y="526"/>
			<point x="720" y="494"/>
			<point x="714" y="460" type="curve" smooth="yes"/>
			<point x="672" y="222"/>
			<point x="794" y="-18"/>
		</contour>
		<contour>
			<point x="320" y="-20" type="curve" smooth="yes"/>
			<point x="522" y="-20"/>
			<point x="682" y="158"/>
			<point x="710" y="330" type="curve"/>
			<point x="694" y="332" type="line"/>
			<point x="666" y="168"/>
			<point x="508" y="2"/>
			<point x="322" y="2" type="curve" smooth="yes"/>
			<point x="146" y="2"/>
			<point x="64" y="126"/>
			<point x="88" y="264" type="curve" smooth="yes"/>
			<point x="118" y="436"/>
			<point x="286" y="542"/>
			<point x="476" y="542" type="curve" smooth="yes"/>
			<point x="588" y="542"/>
			<point x="670" y="500"/>
			<point x="718" y="452" type="curve"/>
			<point x="722" y="470" type="line"/>
			<point x="676" y="514"/>
			<point x="600" y="562"/>
			<point x="478" y="562" type="curve" smooth="yes"/>
			<point x="278" y="562"/>
			<point x="97" y="452"/>
			<point x="68" y="266" type="curve" smooth="yes"/>
			<point x="43" y="112"/>
			<point x="136" y="-20"/>
		</contour>
		<contour>
			<point x="694" y="324" type="line"/>
			<point x="708" y="324" type="line"/>
			<point x="762" y="660" type="line"/>
			<point x="782" y="798"/>
			<point x="732" y="936"/>
			<point x="568" y="940" type="curve" smooth="yes"/>
			<point x="422" y="944"/>
			<point x="316" y="870"/>
			<point x="232" y="808" type="curve"/>
			<point x="244" y="792" type="line"/>
			<point x="324" y="850"/>
			<point x="424" y="925"/>
			<point x="560" y="920" type="curve" smooth="yes"/>
			<point x="732" y="915"/>
			<point x="768" y="774"/>
			<point x="746" y="640" type="curve" smooth="yes"/>
		</contour>
		<contour>
			<point x="726" y="456" type="line"/>
			<point x="1548" y="456" type="line"/>
			<point x="1540" y="476" type="line"/>
			<point x="730" y="476" type="line"/>
		</contour>
	</outline>
</glyph>
<glyph name="ccedilla" format="2">
	<advance width="946"/>
	<unicode hex="00E7"/>
	<outline>
		<contour>
			<point x="473" y="-19" type="curve" smooth="yes"/>
			<point x="606" y="-19"/>
			<point x="722" y="38"/>
			<point x="794" y="95" type="curve"/>
			<point x="798" y="120" type="line"/>
			<point x="726" y="64"/>
			<point x="610" y="1"/>
			<point x="475" y="1" type="curve" smooth="yes"/>
			<point x="223" y="2"/>
			<point x="85" y="221"/>
			<point x="121" y="460" type="curve" smooth="yes"/>
			<point x="162" y="712"/>
			<point x="379" y="919"/>
			<point x="634" y="919" type="curve" smooth="yes"/>
			<point x="759" y="919"/>
			<point x="861" y="862"/>
			<point x="914" y="799" type="curve"/>
			<point x="918" y="824" type="line"/>
			<point x="862" y="886"/>
			<point x="759" y="939"/>
			<point x="635" y="939" type="curve" smooth="yes"/>
			<point x="367" y="940"/>
			<point x="142" y="723"/>
			<point x="101" y="460" type="curve" smooth="yes"/>
			<point x="64" y="210"/>
			<point x="208" y="-19"/>
		</contour>
		<contour>
			<point x="373" y="-445" type="curve" smooth="yes"/>
			<point x="481" y="-446"/>
			<point x="599" y="-373"/>
			<point x="613" y="-259" type="curve" smooth="yes"/>
			<point x="623" y="-174"/>
			<point x="567" y="-115"/>
			<point x="495" y="-111" type="curve" smooth="yes"/>
			<point x="437" y="-108"/>
			<point x="399" y="-131"/>
			<point x="351" y="-157" type="curve"/>
			<point x="488" y="-7" type="line"/>
			<point x="463" y="-7" type="line"/>
			<point x="326" y="-181" type="line"/>
			<point x="375" y="-154"/>
			<point x="434" y="-127"/>
			<point x="493" y="-131" type="curve" smooth="yes"/>
			<point x="555" y="-135"/>
			<point x="602" y="-184"/>
			<point x="593" y="-258" type="curve" smooth="yes"/>
			<point x="579" y="-362"/>
			<point x="470" y="-425"/>
			<point x="375" y="-425" type="curve" smooth="yes"/>
			<point x="314" y="-425"/>
			<point x="274" y="-400"/>
			<point x="227" y="-358" type="curve"/>
			<point x="212" y="-370" type="line"/>
			<point x="261" y="-419"/>
			<point x="304" y="-445"/>
		</contour>
	</outline>
</glyph>
<glyph name="edieresis" format="2">
	<advance width="974"/>
	<unicode hex="00EB"/>
	<outline>
		<contour>
			<point x="449" y="-19" type="curve" smooth="yes"/>
			<point x="664" y="-20"/>
			<point x="781" y="103"/>
			<point x="872" y="212" type="curve"/>
			<point x="857" y="225" type="line"/>
			<point x="768" y="118"/>
			<point x="651" y="0"/>
			<point x="450" y="1" type="curve" smooth="yes"/>
			<point x="217" y="3"/>
			<point x="121" y="237"/>
			<point x="144" y="465" type="curve"/>
			<point x="143" y="466" type="line"/>
			<point x="180" y="714"/>
			<point x="374" y="920"/>
			<point x="604" y="918" type="curve" smooth="yes"/>
			<point x="832" y="916"/>
			<point x="948" y="687"/>
			<point x="903" y="476" type="curve"/>
			<point x="140" y="476" type="line"/>
			<point x="137" y="456" type="line"/>
			<point x="919" y="456" type="line"/>
			<point x="923" y="472"/>
			<point x="928" y="491"/>
			<point x="931" y="508" type="curve" smooth="yes"/>
			<point x="959" y="729"/>
			<point x="824" y="937"/>
			<point x="604" y="939" type="curve" smooth="yes"/>
			<point x="405" y="940"/>
			<point x="242" y="793"/>
			<point x="167" y="616" type="curve" smooth="yes"/>
			<point x="146" y="568"/>
			<point x="132" y="517"/>
			<point x="124" y="464" type="curve" smooth="yes"/>
			<point x="95" y="225"/>
			<point x="206" y="-18"/>
		</contour>
		<contour>
			<point x="418" y="1059" type="curve" smooth="yes"/>
			<point x="429" y="1059"/>
			<point x="442" y="1070"/>
			<point x="443" y="1081" type="curve" smooth="yes"/>
			<point x="444" y="1093"/>
			<point x="435" y="1103"/>
			<point x="424" y="1103" type="curve" smooth="yes"/>
			<point x="413" y="1103"/>
			<point x="401" y="1092"/>
			<point x="400" y="1081" type="curve" smooth="yes"/>
			<point x="399" y="1069"/>
			<point x="407" y="1059"/>
		</contour>
		<contour>
			<point x="806" y="1059" type="curve" smooth="yes"/>
			<point x="817" y="1059"/>
			<point x="830" y="1070"/>
			<point x="831" y="1081" type="curve" smooth="yes"/>
			<point x="832" y="1093"/>
			<point x="823" y="1103"/>
			<point x="812" y="1103" type="curve" smooth="yes"/>
			<point x="801" y="1103"/>
			<point x="789" y="1092"/>
			<point x="788" y="1081" type="curve" smooth="yes"/>
			<point x="787" y="1069"/>
			<point x="795" y="1059"/>
		</contour>
	</outline>
</glyph>
<glyph name="igrave" format="2">
	<advance width="368"/>
	<unicode hex="00EC"/>
	<outline>
		<contour>
			<point x="119" y="0" type="line"/>
			<point x="139" y="0" type="line"/>
			<point x="298" y="919" type="line"/>
			<point x="279" y="919" type="line"/>
		</contour>
		<contour>
			<point x="345" y="1061" type="line"/>
			<point x="358" y="1070" type="line"/>
			<point x="81" y="1389" type="line"/>
			<point x="63" y="1374" type="line"/>
		</contour>
	</outline>
</glyph>
<glyph name="iacute" format="2">
	<advance width="368"/>
	<unicode hex="00ED"/>
	<outline>
		<contour>
			<point x="119" y="0" type="line"/>
			<point x="139" y="0" type="line"/>
			<point x="298" y="919" type="line"/>
			<point x="279" y="919" type="line"/>
		</contour>
		<contour>
			<point x="278" y="1062" type="line"/>
			<point x="667" y="1372" type="line"/>
			<point x="653" y="1388" type="line"/>
			<point x="267" y="1072" type="line"/>
		</contour>
	</outline>
</glyph>
<glyph name="icircumflex" format="2">
	<advance width="368"/>
	<unicode hex="00EE"/>
	<outline>
		<contour>
			<point x="609" y="1060" type="line"/>
			<point x="625" y="1074" type="line"/>
			<point x="361" y="1353" type="line"/>
			<point x="2" y="1076" type="line"/>
			<point x="14" y="1062" type="line"/>
			<point x="358" y="1329" type="line"/>
		</contour>
		<contour>
			<point x="119" y="0" type="line"/>
			<point x="139" y="0" type="line"/>
			<point x="298" y="919" type="line"/>
			<point x="279" y="919" type="line"/>
		</contour>
	</outline>
</glyph>
<glyph name="idieresis" format="2">
	<advance width="368"/>
	<unicode hex="00EF"/>
	<outline>
		<contour>
			<point x="119" y="0" type="line"/>
			<point x="139" y="0" type="line"/>
			<point x="298" y="919" type="line"/>
			<point x="279" y="919" type="line"/>
		</contour>
		<contour>
			<point x="156" y="1060" type="curve" smooth="yes"/>
			<point x="167" y="1060"/>
			<point x="180" y="1071"/>
			<point x="181" y="1082" type="curve" smooth="yes"/>
			<point x="182" y="1094"/>
			<point x="174" y="1104"/>
			<point x="163" y="1104" type="curve" smooth="yes"/>
			<point x="152" y="1104"/>
			<point x="139" y="1093"/>
			<point x="138" y="1082" type="curve" smooth="yes"/>
			<point x="137" y="1070"/>
			<point x="145" y="1060"/>
		</contour>
		<contour>
			<point x="467" y="1060" type="curve" smooth="yes"/>
			<point x="478" y="1060"/>
			<point x="491" y="1071"/>
			<point x="492" y="1082" type="curve" smooth="yes"/>
			<point x="493" y="1094"/>
			<point x="484" y="1104"/>
			<point x="473" y="1104" type="curve" smooth="yes"/>
			<point x="462" y="1104"/>
			<point x="450" y="1093"/>
			<point x="449" y="1082" type="curve" smooth="yes"/>
			<point x="448" y="1070"/>
			<point x="456" y="1060"/>
		</contour>
	</outline>
</glyph>
<glyph name="eth" format="2">
	<advance width="1040"/>
	<unicode hex="00F0"/>
	<outline>
		<contour>
			<point x="464" y="-19" type="curve" smooth="yes"/>
			<point x="730" y="-20"/>
			<point x="927" y="187"/>
			<point x="965" y="440" type="curve" smooth="yes"/>
			<point x="982" y="549"/>
			<point x="952" y="669"/>
			<point x="910" y="758" type="curve" smooth="yes"/>
			<point x="584" y="1400" type="line"/>
			<point x="561" y="1400" type="line"/>
			<point x="912" y="710" type="line"/>
			<point x="912" y="709" type="line"/>
			<point x="837" y="812"/>
			<point x="730" y="873"/>
			<point x="593" y="873" type="curve" smooth="yes"/>
			<point x="358" y="873"/>
			<point x="155" y="669"/>
			<point x="117" y="441" type="curve" smooth="yes"/>
			<point x="80" y="200"/>
			<point x="199" y="-18"/>
		</contour>
		<contour>
			<point x="465" y="1" type="curve" smooth="yes"/>
			<point x="218" y="2"/>
			<point x="102" y="214"/>
			<point x="137" y="440" type="curve" smooth="yes"/>
			<point x="173" y="659"/>
			<point x="374" y="852"/>
			<point x="592" y="853" type="curve" smooth="yes"/>
			<point x="849" y="854"/>
			<point x="979" y="650"/>
			<point x="945" y="440" type="curve" smooth="yes"/>
			<point x="908" y="209"/>
			<point x="719" y="0"/>
		</contour>
		<contour>
			<point x="423" y="1150" type="line"/>
			<point x="948" y="1150" type="line"/>
			<point x="951" y="1170" type="line"/>
			<point x="427" y="1170" type="line"/>
		</contour>
	</outline>
</glyph>
<glyph name="ntilde" format="2">
	<advance width="920"/>
	<unicode hex="00F1"/>
	<outline>
		<contour>
			<point x="682" y="0" type="line"/>
			<point x="701" y="0" type="line"/>
			<point x="813" y="640" type="line" smooth="yes"/>
			<point x="834" y="798"/>
			<point x="788" y="938"/>
			<point x="604" y="939" type="curve" smooth="yes"/>
			<point x="401" y="940"/>
			<point x="255" y="758"/>
			<point x="214" y="562" type="curve"/>
			<point x="224" y="562" type="line"/>
			<point x="265" y="738"/>
			<point x="410" y="921"/>
			<point x="603" y="919" type="curve" smooth="yes"/>
			<point x="776" y="917"/>
			<point x="812" y="785"/>
			<point x="793" y="640" type="curve" smooth="yes"/>
		</contour>
		<contour>
			<point x="109" y="0" type="line"/>
			<point x="129" y="0" type="line"/>
			<point x="289" y="919" type="line"/>
			<point x="269" y="919" type="line"/>
		</contour>
		<contour>
			<point x="368" y="1101" type="line"/>
			<point x="385" y="1150"/>
			<point x="419" y="1202"/>
			<point x="493" y="1201" type="curve" smooth="yes"/>
			<point x="577" y="1200"/>
			<point x="618" y="1109"/>
			<point x="712" y="1109" type="curve" smooth="yes"/>
			<point x="776" y="1109"/>
			<point x="822" y="1154"/>
			<point x="859" y="1213" type="curve"/>
			<point x="841" y="1219" type="line"/>
			<point x="807" y="1168"/>
			<point x="773" y="1126"/>
			<point x="715" y="1125" type="curve" smooth="yes"/>
			<point x="621" y="1123"/>
			<point x="585" y="1217"/>
			<point x="490" y="1217" type="curve" smooth="yes"/>
			<point x="408" y="1217"/>
			<point x="369" y="1159"/>
			<point x="350" y="1103" type="curve"/>
		</contour>
	</outline>
</glyph>
<glyph name="ocircumflex" format="2">
	<advance width="1078"/>
	<unicode hex="00F4"/>
	<outline>
		<contour>
			<point x="483" y="-19" type="curve" smooth="yes"/>
			<point x="751" y="-20"/>
			<point x="976" y="198"/>
			<point x="1017" y="460" type="curve" smooth="yes"/>
			<point x="1054" y="710"/>
			<point x="909" y="938"/>
			<point x="644" y="939" type="curve" smooth="yes"/>
			<point x="376" y="940"/>
			<point x="152" y="722"/>
			<point x="111" y="460" type="curve" smooth="yes"/>
			<point x="74" y="210"/>
			<point x="218" y="-18"/>
		</contour>
		<contour>
			<point x="484" y="1" type="curve" smooth="yes"/>
			<point x="232" y="2"/>
			<point x="95" y="220"/>
			<point x="131" y="460" type="curve" smooth="yes"/>
			<point x="171" y="712"/>
			<point x="389" y="920"/>
			<point x="644" y="919" type="curve" smooth="yes"/>
			<point x="896" y="918"/>
			<point x="1033" y="700"/>
			<point x="997" y="460" type="curve" smooth="yes"/>
			<point x="957" y="208"/>
			<point x="739" y="0"/>
		</contour>
		<contour>
			<point x="971" y="1100" type="line"/>
			<point x="987" y="1114" type="line"/>
			<point x="723" y="1393" type="line"/>
			<point x="364" y="1116" type="line"/>
			<point x="376" y="1102" type="line"/>
			<point x="720" y="1369" type="line"/>
		</contour>
	</outline>
</glyph>
<glyph name="otilde" format="2">
	<advance width="1078"/>
	<unicode hex="00F5"/>
	<outline>
		<contour>
			<point x="483" y="-19" type="curve" smooth="yes"/>
			<point x="751" y="-20"/>
			<point x="976" y="198"/>
			<point x="1017" y="460" type="curve" smooth="yes"/>
			<point x="1054" y="710"/>
			<point x="909" y="938"/>
			<point x="644" y="939" type="curve" smooth="yes"/>
			<point x="376" y="940"/>
			<point x="152" y="722"/>
			<point x="111" y="460" type="curve" smooth="yes"/>
			<point x="74" y="210"/>
			<point x="218" y="-18"/>
		</contour>
		<contour>
			<point x="484" y="1" type="curve" smooth="yes"/>
			<point x="232" y="2"/>
			<point x="95" y="220"/>
			<point x="131" y="460" type="curve" smooth="yes"/>
			<point x="171" y="712"/>
			<point x="389" y="920"/>
			<point x="644" y="919" type="curve" smooth="yes"/>
			<point x="896" y="918"/>
			<point x="1033" y="700"/>
			<point x="997" y="460" type="curve" smooth="yes"/>
			<point x="957" y="208"/>
			<point x="739" y="0"/>
		</contour>
		<contour>
			<point x="447" y="1101" type="line"/>
			<point x="465" y="1149"/>
			<point x="498" y="1200"/>
			<point x="571" y="1201" type="curve" smooth="yes"/>
			<point x="655" y="1202"/>
			<point x="698" y="1109"/>
			<point x="792" y="1109" type="curve" smooth="yes"/>
			<point x="855" y="1109"/>
			<point x="901" y="1154"/>
			<point x="938" y="1213" type="curve"/>
			<point x="919" y="1219" type="line"/>
			<point x="885" y="1168"/>
			<point x="851" y="1126"/>
			<point x="793" y="1125" type="curve" smooth="yes"/>
			<point x="699" y="1123"/>
			<point x="663" y="1218"/>
			<point x="568" y="1217" type="curve" smooth="yes"/>
			<point x="507" y="1217"/>
			<point x="413" y="1156"/>
			<point x="427" y="1103" type="curve"/>
		</contour>
	</outline>
</glyph>
<glyph name="odieresis" format="2">
	<advance width="1078"/>
	<unicode hex="00F6"/>
	<outline>
		<contour>
			<point x="483" y="-19" type="curve" smooth="yes"/>
			<point x="751" y="-20"/>
			<point x="976" y="198"/>
			<point x="1017" y="460" type="curve" smooth="yes"/>
			<point x="1054" y="710"/>
			<point x="909" y="938"/>
			<point x="644" y="939" type="curve" smooth="yes"/>
			<point x="376" y="940"/>
			<point x="152" y="722"/>
			<point x="111" y="460" type="curve" smooth="yes"/>
			<point x="74" y="210"/>
			<point x="218" y="-18"/>
		</contour>
		<contour>
			<point x="484" y="1" type="curve" smooth="yes"/>
			<point x="232" y="2"/>
			<point x="95" y="220"/>
			<point x="131" y="460" type="curve" smooth="yes"/>
			<point x="171" y="712"/>
			<point x="389" y="920"/>
			<point x="644" y="919" type="curve" smooth="yes"/>
			<point x="896" y="918"/>
			<point x="1033" y="700"/>
			<point x="997" y="460" type="curve" smooth="yes"/>
			<point x="957" y="208"/>
			<point x="739" y="0"/>
		</contour>
		<contour>
			<point x="479" y="1100" type="curve" smooth="yes"/>
			<point x="490" y="1100"/>
			<point x="503" y="1111"/>
			<point x="504" y="1122" type="curve" smooth="yes"/>
			<point x="505" y="1134"/>
			<point x="497" y="1144"/>
			<point x="486" y="1144" type="curve" smooth="yes"/>
			<point x="475" y="1144"/>
			<point x="462" y="1133"/>
			<point x="461" y="1122" type="curve" smooth="yes"/>
			<point x="460" y="1110"/>
			<point x="468" y="1100"/>
		</contour>
		<contour>
			<point x="868" y="1100" type="curve" smooth="yes"/>
			<point x="879" y="1100"/>
			<point x="891" y="1111"/>
			<point x="892" y="1122" type="curve" smooth="yes"/>
			<point x="893" y="1134"/>
			<point x="885" y="1144"/>
			<point x="874" y="1144" type="curve" smooth="yes"/>
			<point x="863" y="1144"/>
			<point x="850" y="1133"/>
			<point x="849" y="1122" type="curve" smooth="yes"/>
			<point x="848" y="1110"/>
			<point x="857" y="1100"/>
		</contour>
	</outline>
</glyph>
<glyph name="divide" format="2">
	<advance width="1208"/>
	<unicode hex="00F7"/>
	<outline>
		<contour>
			<point x="142" y="470" type="line"/>
			<point x="1113" y="470" type="line"/>
			<point x="1116" y="490" type="line"/>
			<point x="146" y="490" type="line"/>
		</contour>
		<contour>
			<point x="555" y="40" type="curve" smooth="yes"/>
			<point x="566" y="40"/>
			<point x="579" y="51"/>
			<point x="580" y="62" type="curve" smooth="yes"/>
			<point x="581" y="74"/>
			<point x="572" y="84"/>
			<point x="561" y="84" type="curve" smooth="yes"/>
			<point x="550" y="84"/>
			<point x="537" y="73"/>
			<point x="536" y="62" type="curve" smooth="yes"/>
			<point x="535" y="50"/>
			<point x="544" y="40"/>
		</contour>
		<contour>
			<point x="698" y="880" type="curve" smooth="yes"/>
			<point x="709" y="880"/>
			<point x="722" y="891"/>
			<point x="723" y="902" type="curve" smooth="yes"/>
			<point x="724" y="914"/>
			<point x="716" y="924"/>
			<point x="705" y="924" type="curve" smooth="yes"/>
			<point x="694" y="924"/>
			<point x="681" y="913"/>
			<point x="680" y="902" type="curve" smooth="yes"/>
			<point x="679" y="890"/>
			<point x="687" y="880"/>
		</contour>
	</outline>
</glyph>
<glyph name="ugrave" format="2">
	<advance width="920"/>
	<unicode hex="00F9"/>
	<outline>
		<contour>
			<point x="366" y="-19" type="curve" smooth="yes"/>
			<point x="569" y="-21"/>
			<point x="716" y="162"/>
			<point x="757" y="358" type="curve"/>
			<point x="746" y="358" type="line"/>
			<point x="705" y="181"/>
			<point x="561" y="-1"/>
			<point x="368" y="1" type="curve" smooth="yes"/>
			<point x="190" y="2"/>
			<point x="161" y="145"/>
			<point x="181" y="300" type="curve" smooth="yes"/>
			<point x="289" y="919" type="line"/>
			<point x="269" y="919" type="line"/>
			<point x="161" y="300" type="line" smooth="yes"/>
			<point x="139" y="131"/>
			<point x="176" y="-18"/>
		</contour>
		<contour>
			<point x="682" y="0" type="line"/>
			<point x="702" y="0" type="line"/>
			<point x="861" y="919" type="line"/>
			<point x="841" y="919" type="line"/>
		</contour>
		<contour>
			<point x="626" y="1081" type="line"/>
			<point x="637" y="1090" type="line"/>
			<point x="360" y="1409" type="line"/>
			<point x="342" y="1394" type="line"/>
		</contour>
	</outline>
</glyph>
<glyph name="uacute" format="2">
	<advance width="920"/>
	<unicode hex="00FA"/>
	<outline>
		<contour>
			<point x="366" y="-19" type="curve" smooth="yes"/>
			<point x="569" y="-21"/>
			<point x="716" y="162"/>
			<point x="757" y="358" type="curve"/>
			<point x="746" y="358" type="line"/>
			<point x="705" y="181"/>
			<point x="561" y="-1"/>
			<point x="368" y="1" type="curve" smooth="yes"/>
			<point x="190" y="2"/>
			<point x="161" y="145"/>
			<point x="181" y="300" type="curve" smooth="yes"/>
			<point x="289" y="919" type="line"/>
			<point x="269" y="919" type="line"/>
			<point x="161" y="300" type="line" smooth="yes"/>
			<point x="139" y="131"/>
			<point x="176" y="-18"/>
		</contour>
		<contour>
			<point x="682" y="0" type="line"/>
			<point x="702" y="0" type="line"/>
			<point x="861" y="919" type="line"/>
			<point x="841" y="919" type="line"/>
		</contour>
		<contour>
			<point x="557" y="1082" type="line"/>
			<point x="948" y="1392" type="line"/>
			<point x="934" y="1408" type="line"/>
			<point x="548" y="1092" type="line"/>
		</contour>
	</outline>
</glyph>
<glyph name="ucircumflex" format="2">
	<advance width="920"/>
	<unicode hex="00FB"/>
	<outline>
		<contour>
			<point x="366" y="-19" type="curve" smooth="yes"/>
			<point x="569" y="-21"/>
			<point x="716" y="162"/>
			<point x="757" y="358" type="curve"/>
			<point x="746" y="358" type="line"/>
			<point x="705" y="181"/>
			<point x="561" y="-1"/>
			<point x="368" y="1" type="curve" smooth="yes"/>
			<point x="190" y="2"/>
			<point x="161" y="145"/>
			<point x="181" y="300" type="curve" smooth="yes"/>
			<point x="289" y="919" type="line"/>
			<point x="269" y="919" type="line"/>
			<point x="161" y="300" type="line" smooth="yes"/>
			<point x="139" y="131"/>
			<point x="176" y="-18"/>
		</contour>
		<contour>
			<point x="682" y="0" type="line"/>
			<point x="702" y="0" type="line"/>
			<point x="861" y="919" type="line"/>
			<point x="841" y="919" type="line"/>
		</contour>
		<contour>
			<point x="888" y="1080" type="line"/>
			<point x="906" y="1094" type="line"/>
			<point x="642" y="1373" type="line"/>
			<point x="283" y="1096" type="line"/>
			<point x="293" y="1082" type="line"/>
			<point x="639" y="1349" type="line"/>
		</contour>
	</outline>
</glyph>
<glyph name="udieresis" format="2">
	<advance width="920"/>
	<unicode hex="00FC"/>
	<outline>
		<contour>
			<point x="366" y="-19" type="curve" smooth="yes"/>
			<point x="569" y="-21"/>
			<point x="716" y="162"/>
			<point x="757" y="358" type="curve"/>
			<point x="746" y="358" type="line"/>
			<point x="705" y="181"/>
			<point x="561" y="-1"/>
			<point x="368" y="1" type="curve" smooth="yes"/>
			<point x="190" y="2"/>
			<point x="161" y="145"/>
			<point x="181" y="300" type="curve" smooth="yes"/>
			<point x="289" y="919" type="line"/>
			<point x="269" y="919" type="line"/>
			<point x="161" y="300" type="line" smooth="yes"/>
			<point x="139" y="131"/>
			<point x="176" y="-18"/>
		</contour>
		<contour>
			<point x="682" y="0" type="line"/>
			<point x="702" y="0" type="line"/>
			<point x="861" y="919" type="line"/>
			<point x="841" y="919" type="line"/>
		</contour>
		<contour>
			<point x="441" y="1100" type="curve" smooth="yes"/>
			<point x="452" y="1100"/>
			<point x="463" y="1111"/>
			<point x="464" y="1122" type="curve" smooth="yes"/>
			<point x="465" y="1134"/>
			<point x="458" y="1143"/>
			<point x="447" y="1144" type="curve" smooth="yes"/>
			<point x="436" y="1144"/>
			<point x="421" y="1134"/>
			<point x="420" y="1123" type="curve" smooth="yes"/>
			<point x="419" y="1111"/>
			<point x="430" y="1100"/>
		</contour>
		<contour>
			<point x="751" y="1100" type="curve" smooth="yes"/>
			<point x="762" y="1100"/>
			<point x="773" y="1111"/>
			<point x="774" y="1122" type="curve" smooth="yes"/>
			<point x="775" y="1134"/>
			<point x="769" y="1143"/>
			<point x="758" y="1144" type="curve" smooth="yes"/>
			<point x="747" y="1144"/>
			<point x="732" y="1134"/>
			<point x="731" y="1123" type="curve" smooth="yes"/>
			<point x="730" y="1111"/>
			<point x="740" y="1100"/>
		</contour>
	</outline>
</glyph>
<glyph name="yacute" format="2">
	<advance width="824"/>
	<unicode hex="00FD"/>
	<outline>
		<contour>
			<point x="93" y="-439" type="line"/>
			<point x="910" y="919" type="line"/>
			<point x="888" y="919" type="line"/>
			<point x="359" y="41" type="line"/>
			<point x="381" y="40" type="line"/>
			<point x="146" y="920" type="line"/>
			<point x="122" y="920" type="line"/>
			<point x="361" y="41" type="line"/>
			<point x="71" y="-438" type="line"/>
		</contour>
		<contour>
			<point x="505" y="1062" type="line"/>
			<point x="896" y="1372" type="line"/>
			<point x="882" y="1388" type="line"/>
			<point x="496" y="1072" type="line"/>
		</contour>
	</outline>
</glyph>
<glyph name="thorn" format="2">
	<advance width="1050"/>
	<unicode hex="00FE"/>
	<outline>
		<contour>
			<point x="493" y="-19" type="curve" smooth="yes"/>
			<point x="746" y="-22"/>
			<point x="949" y="197"/>
			<point x="988" y="460" type="curve" smooth="yes"/>
			<point x="1022" y="709"/>
			<point x="907" y="940"/>
			<point x="654" y="939" type="curve" smooth="yes"/>
			<point x="404" y="938"/>
			<point x="226" y="689"/>
			<point x="189" y="460" type="curve" smooth="yes"/>
			<point x="158" y="247"/>
			<point x="244" y="-16"/>
		</contour>
		<contour>
			<point x="25" y="-439" type="line"/>
			<point x="44" y="-439" type="line"/>
			<point x="388" y="1559" type="line"/>
			<point x="368" y="1559" type="line"/>
		</contour>
		<contour>
			<point x="488" y="1" type="curve" smooth="yes"/>
			<point x="261" y="5"/>
			<point x="169" y="256"/>
			<point x="199" y="460" type="curve" smooth="yes"/>
			<point x="235" y="681"/>
			<point x="418" y="917"/>
			<point x="647" y="919" type="curve" smooth="yes"/>
			<point x="891" y="921"/>
			<point x="1001" y="698"/>
			<point x="968" y="460" type="curve" smooth="yes"/>
			<point x="930" y="208"/>
			<point x="731" y="-4"/>
		</contour>
	</outline>
</glyph>
<glyph name="ydieresis" format="2">
	<advance width="824"/>
	<unicode hex="00FF"/>
	<outline>
		<contour>
			<point x="93" y="-439" type="line"/>
			<point x="910" y="919" type="line"/>
			<point x="888" y="919" type="line"/>
			<point x="359" y="41" type="line"/>
			<point x="381" y="40" type="line"/>
			<point x="146" y="920" type="line"/>
			<point x="122" y="920" type="line"/>
			<point x="361" y="41" type="line"/>
			<point x="71" y="-438" type="line"/>
		</contour>
		<contour>
			<point x="390" y="1100" type="curve" smooth="yes"/>
			<point x="401" y="1100"/>
			<point x="416" y="1110"/>
			<point x="417" y="1121" type="curve" smooth="yes"/>
			<point x="418" y="1133"/>
			<point x="408" y="1144"/>
			<point x="397" y="1144" type="curve" smooth="yes"/>
			<point x="386" y="1144"/>
			<point x="375" y="1133"/>
			<point x="374" y="1122" type="curve" smooth="yes"/>
			<point x="373" y="1110"/>
			<point x="379" y="1101"/>
		</contour>
		<contour>
			<point x="701" y="1100" type="curve" smooth="yes"/>
			<point x="712" y="1100"/>
			<point x="726" y="1110"/>
			<point x="727" y="1121" type="curve" smooth="yes"/>
			<point x="728" y="1133"/>
			<point x="718" y="1144"/>
			<point x="707" y="1144" type="curve" smooth="yes"/>
			<point x="696" y="1144"/>
			<point x="685" y="1133"/>
			<point x="684" y="1122" type="curve" smooth="yes"/>
			<point x="683" y="1110"/>
			<point x="690" y="1101"/>
		</contour>
	</outline>
</glyph>
<glyph name="Amacron" format="2">
	<advance width="1164"/>
	<unicode hex="0100"/>
	<outline>
		<contour>
			<point x="-27" y="0" type="line"/>
			<point x="-3" y="0" type="line"/>
			<point x="302" y="546" type="line"/>
			<point x="305" y="554" type="line"/>
			<point x="765" y="1376" type="line"/>
			<point x="943" y="552" type="line"/>
			<point x="944" y="546" type="line"/>
			<point x="1057" y="0" type="line"/>
			<point x="1081" y="0" type="line"/>
			<point x="773" y="1430" type="line"/>
		</contour>
		<contour>
			<point x="285" y="544" type="line"/>
			<point x="955" y="544" type="line"/>
			<point x="958" y="564" type="line"/>
			<point x="288" y="564" type="line"/>
		</contour>
		<contour>
			<point x="460" y="1590" type="line"/>
			<point x="1139" y="1590" type="line"/>
			<point x="1143" y="1610" type="line"/>
			<point x="463" y="1610" type="line"/>
		</contour>
	</outline>
</glyph>
<glyph name="abreve" format="2">
	<advance width="1050"/>
	<unicode hex="0103"/>
	<outline>
		<contour>
			<point x="444" y="-19" type="curve" smooth="yes"/>
			<point x="694" y="-18"/>
			<point x="873" y="231"/>
			<point x="910" y="460" type="curve" smooth="yes"/>
			<point x="941" y="673"/>
			<point x="855" y="936"/>
			<point x="606" y="939" type="curve" smooth="yes"/>
			<point x="353" y="942"/>
			<point x="150" y="723"/>
			<point x="111" y="460" type="curve" smooth="yes"/>
			<point x="77" y="211"/>
			<point x="191" y="-20"/>
		</contour>
		<contour>
			<point x="451" y="1" type="curve" smooth="yes"/>
			<point x="207" y="-1"/>
			<point x="98" y="222"/>
			<point x="131" y="460" type="curve" smooth="yes"/>
			<point x="169" y="712"/>
			<point x="367" y="924"/>
			<point x="610" y="919" type="curve" smooth="yes"/>
			<point x="837" y="915"/>
			<point x="930" y="664"/>
			<point x="900" y="460" type="curve" smooth="yes"/>
			<point x="864" y="239"/>
			<point x="680" y="3"/>
		</contour>
		<contour>
			<point x="820" y="0" type="line"/>
			<point x="839" y="0" type="line"/>
			<point x="999" y="919" type="line"/>
			<point x="979" y="919" type="line"/>
		</contour>
		<contour>
			<point x="635" y="1101" type="curve" smooth="yes"/>
			<point x="830" y="1100"/>
			<point x="951" y="1234"/>
			<point x="991" y="1378" type="curve"/>
			<point x="971" y="1378" type="line"/>
			<point x="932" y="1244"/>
			<point x="812" y="1120"/>
			<point x="636" y="1121" type="curve" smooth="yes"/>
			<point x="465" y="1122"/>
			<point x="383" y="1244"/>
			<point x="395" y="1380" type="curve"/>
			<point x="376" y="1380" type="line"/>
			<point x="362" y="1234"/>
			<point x="444" y="1102"/>
		</contour>
	</outline>
</glyph>
<glyph name="Aogonek" format="2">
	<advance width="1164"/>
	<unicode hex="0104"/>
	<outline>
		<contour>
			<point x="-27" y="0" type="line"/>
			<point x="-3" y="0" type="line"/>
			<point x="302" y="546" type="line"/>
			<point x="305" y="554" type="line"/>
			<point x="765" y="1376" type="line"/>
			<point x="943" y="552" type="line"/>
			<point x="944" y="546" type="line"/>
			<point x="1057" y="0" type="line"/>
			<point x="1081" y="0" type="line"/>
			<point x="773" y="1430" type="line"/>
		</contour>
		<contour>
			<point x="896" y="-439" type="curve" smooth="yes"/>
			<point x="978" y="-440"/>
			<point x="1053" y="-402"/>
			<point x="1100" y="-362" type="curve"/>
			<point x="1088" y="-347" type="line"/>
			<point x="1043" y="-382"/>
			<point x="974" y="-420"/>
			<point x="898" y="-419" type="curve" smooth="yes"/>
			<point x="808" y="-418"/>
			<point x="730" y="-370"/>
			<point x="742" y="-280" type="curve" smooth="yes"/>
			<point x="762" y="-147"/>
			<point x="952" y="-62"/>
			<point x="1082" y="0" type="curve"/>
			<point x="1071" y="19" type="line"/>
			<point x="934" y="-46"/>
			<point x="744" y="-130"/>
			<point x="722" y="-279" type="curve" smooth="yes"/>
			<point x="708" y="-379"/>
			<point x="785" y="-438"/>
		</contour>
		<contour>
			<point x="289" y="544" type="line"/>
			<point x="955" y="544" type="line"/>
			<point x="958" y="564" type="line"/>
			<point x="292" y="564" type="line"/>
		</contour>
	</outline>
</glyph>
<glyph name="aogonek" format="2">
	<advance width="1050"/>
	<unicode hex="0105"/>
	<outline>
		<contour>
			<point x="444" y="-19" type="curve" smooth="yes"/>
			<point x="694" y="-18"/>
			<point x="873" y="231"/>
			<point x="910" y="460" type="curve" smooth="yes"/>
			<point x="941" y="673"/>
			<point x="855" y="936"/>
			<point x="606" y="939" type="curve" smooth="yes"/>
			<point x="353" y="942"/>
			<point x="150" y="723"/>
			<point x="111" y="460" type="curve" smooth="yes"/>
			<point x="77" y="211"/>
			<point x="191" y="-20"/>
		</contour>
		<contour>
			<point x="655" y="-439" type="curve" smooth="yes"/>
			<point x="737" y="-440"/>
			<point x="812" y="-402"/>
			<point x="859" y="-362" type="curve"/>
			<point x="847" y="-347" type="line"/>
			<point x="802" y="-382"/>
			<point x="733" y="-420"/>
			<point x="657" y="-419" type="curve" smooth="yes"/>
			<point x="567" y="-418"/>
			<point x="489" y="-370"/>
			<point x="501" y="-280" type="curve" smooth="yes"/>
			<point x="521" y="-147"/>
			<point x="712" y="-62"/>
			<point x="842" y="0" type="curve"/>
			<point x="831" y="19" type="line"/>
			<point x="694" y="-47"/>
			<point x="503" y="-130"/>
			<point x="481" y="-279" type="curve" smooth="yes"/>
			<point x="467" y="-379"/>
			<point x="544" y="-438"/>
		</contour>
		<contour>
			<point x="451" y="1" type="curve" smooth="yes"/>
			<point x="207" y="-1"/>
			<point x="98" y="222"/>
			<point x="131" y="460" type="curve" smooth="yes"/>
			<point x="169" y="712"/>
			<point x="367" y="924"/>
			<point x="610" y="919" type="curve" smooth="yes"/>
			<point x="837" y="915"/>
			<point x="930" y="664"/>
			<point x="900" y="460" type="curve" smooth="yes"/>
			<point x="864" y="239"/>
			<point x="680" y="3"/>
		</contour>
		<contour>
			<point x="820" y="0" type="line"/>
			<point x="839" y="0" type="line"/>
			<point x="999" y="919" type="line"/>
			<point x="979" y="919" type="line"/>
		</contour>
	</outline>
</glyph>
<glyph name="ccircumflex" format="2">
	<advance width="946"/>
	<unicode hex="0109"/>
	<outline>
		<contour>
			<point x="473" y="-19" type="curve" smooth="yes"/>
			<point x="606" y="-19"/>
			<point x="722" y="38"/>
			<point x="794" y="95" type="curve"/>
			<point x="798" y="120" type="line"/>
			<point x="726" y="64"/>
			<point x="610" y="1"/>
			<point x="475" y="1" type="curve" smooth="yes"/>
			<point x="223" y="2"/>
			<point x="85" y="221"/>
			<point x="121" y="460" type="curve" smooth="yes"/>
			<point x="162" y="712"/>
			<point x="379" y="919"/>
			<point x="634" y="919" type="curve" smooth="yes"/>
			<point x="759" y="919"/>
			<point x="861" y="862"/>
			<point x="914" y="799" type="curve"/>
			<point x="918" y="824" type="line"/>
			<point x="862" y="886"/>
			<point x="759" y="939"/>
			<point x="635" y="939" type="curve" smooth="yes"/>
			<point x="367" y="940"/>
			<point x="142" y="723"/>
			<point x="101" y="460" type="curve" smooth="yes"/>
			<point x="64" y="210"/>
			<point x="208" y="-19"/>
		</contour>
		<contour>
			<point x="955" y="1060" type="line"/>
			<point x="970" y="1074" type="line"/>
			<point x="706" y="1353" type="line"/>
			<point x="347" y="1076" type="line"/>
			<point x="359" y="1062" type="line"/>
			<point x="704" y="1329" type="line"/>
		</contour>
	</outline>
</glyph>
<glyph name="Cdotaccent" format="2">
	<advance width="1328"/>
	<unicode hex="010A"/>
	<outline>
		<contour>
			<point x="682" y="-15" type="curve" smooth="yes"/>
			<point x="871" y="-16"/>
			<point x="1013" y="46"/>
			<point x="1145" y="143" type="curve"/>
			<point x="1151" y="174" type="line"/>
			<point x="1020" y="70"/>
			<point x="872" y="8"/>
			<point x="684" y="9" type="curve" smooth="yes"/>
			<point x="306" y="12"/>
			<point x="134" y="347"/>
			<point x="186" y="700" type="curve" smooth="yes"/>
			<point x="246" y="1078"/>
			<point x="540" y="1390"/>
			<point x="922" y="1392" type="curve" smooth="yes"/>
			<point x="1090" y="1393"/>
			<point x="1227" y="1341"/>
			<point x="1330" y="1227" type="curve"/>
			<point x="1335" y="1257" type="line"/>
			<point x="1225" y="1363"/>
			<point x="1101" y="1417"/>
			<point x="924" y="1416" type="curve" smooth="yes"/>
			<point x="528" y="1414"/>
			<point x="223" y="1091"/>
			<point x="162" y="700" type="curve" smooth="yes"/>
			<point x="108" y="331"/>
			<point x="290" y="-13"/>
		</contour>
		<contour>
			<point x="949" y="1556" type="curve" smooth="yes"/>
			<point x="960" y="1556"/>
			<point x="973" y="1567"/>
			<point x="974" y="1578" type="curve" smooth="yes"/>
			<point x="975" y="1590"/>
			<point x="967" y="1600"/>
			<point x="956" y="1600" type="curve" smooth="yes"/>
			<point x="945" y="1600"/>
			<point x="932" y="1589"/>
			<point x="931" y="1578" type="curve" smooth="yes"/>
			<point x="930" y="1566"/>
			<point x="938" y="1556"/>
		</contour>
	</outline>
</glyph>
<glyph name="cdotaccent" format="2">
	<advance width="946"/>
	<unicode hex="010B"/>
	<outline>
		<contour>
			<point x="473" y="-19" type="curve" smooth="yes"/>
			<point x="606" y="-19"/>
			<point x="722" y="38"/>
			<point x="794" y="95" type="curve"/>
			<point x="798" y="120" type="line"/>
			<point x="726" y="64"/>
			<point x="610" y="1"/>
			<point x="475" y="1" type="curve" smooth="yes"/>
			<point x="223" y="2"/>
			<point x="85" y="221"/>
			<point x="121" y="460" type="curve" smooth="yes"/>
			<point x="162" y="712"/>
			<point x="379" y="919"/>
			<point x="634" y="919" type="curve" smooth="yes"/>
			<point x="759" y="919"/>
			<point x="861" y="862"/>
			<point x="914" y="799" type="curve"/>
			<point x="918" y="824" type="line"/>
			<point x="862" y="886"/>
			<point x="759" y="939"/>
			<point x="635" y="939" type="curve" smooth="yes"/>
			<point x="367" y="940"/>
			<point x="142" y="723"/>
			<point x="101" y="460" type="curve" smooth="yes"/>
			<point x="64" y="210"/>
			<point x="208" y="-19"/>
		</contour>
		<contour>
			<point x="660" y="1080" type="curve" smooth="yes"/>
			<point x="671" y="1080"/>
			<point x="684" y="1091"/>
			<point x="685" y="1102" type="curve" smooth="yes"/>
			<point x="686" y="1114"/>
			<point x="678" y="1124"/>
			<point x="667" y="1124" type="curve" smooth="yes"/>
			<point x="656" y="1124"/>
			<point x="643" y="1113"/>
			<point x="642" y="1102" type="curve" smooth="yes"/>
			<point x="641" y="1090"/>
			<point x="649" y="1080"/>
		</contour>
	</outline>
</glyph>
<glyph name="Ccaron" format="2">
	<advance width="1328"/>
	<unicode hex="010C"/>
	<outline>
		<contour>
			<point x="682" y="-15" type="curve" smooth="yes"/>
			<point x="871" y="-16"/>
			<point x="1013" y="46"/>
			<point x="1145" y="143" type="curve"/>
			<point x="1151" y="174" type="line"/>
			<point x="1020" y="70"/>
			<point x="872" y="8"/>
			<point x="684" y="9" type="curve" smooth="yes"/>
			<point x="306" y="12"/>
			<point x="134" y="347"/>
			<point x="186" y="700" type="curve" smooth="yes"/>
			<point x="246" y="1078"/>
			<point x="540" y="1390"/>
			<point x="922" y="1392" type="curve" smooth="yes"/>
			<point x="1090" y="1393"/>
			<point x="1227" y="1341"/>
			<point x="1330" y="1227" type="curve"/>
			<point x="1335" y="1257" type="line"/>
			<point x="1225" y="1363"/>
			<point x="1101" y="1417"/>
			<point x="924" y="1416" type="curve" smooth="yes"/>
			<point x="528" y="1414"/>
			<point x="223" y="1091"/>
			<point x="162" y="700" type="curve" smooth="yes"/>
			<point x="108" y="331"/>
			<point x="290" y="-12"/>
		</contour>
		<contour>
			<point x="949" y="1557" type="line"/>
			<point x="1308" y="1834" type="line"/>
			<point x="1295" y="1850" type="line"/>
			<point x="952" y="1581" type="line"/>
			<point x="703" y="1852" type="line"/>
			<point x="685" y="1836" type="line"/>
		</contour>
	</outline>
</glyph>
<glyph name="Dcaron" format="2">
	<advance width="1232"/>
	<unicode hex="010E"/>
	<outline>
		<contour>
			<point x="130" y="0" type="line"/>
			<point x="432" y="0" type="line"/>
			<point x="840" y="6"/>
			<point x="1138" y="304"/>
			<point x="1201" y="700" type="curve" smooth="yes"/>
			<point x="1258" y="1077"/>
			<point x="1071" y="1393"/>
			<point x="669" y="1400" type="curve"/>
			<point x="369" y="1400" type="line"/>
			<point x="365" y="1378" type="line"/>
			<point x="667" y="1378" type="line"/>
			<point x="1059" y="1370"/>
			<point x="1235" y="1066"/>
			<point x="1179" y="700" type="curve" smooth="yes"/>
			<point x="1117" y="314"/>
			<point x="832" y="28"/>
			<point x="434" y="22" type="curve"/>
			<point x="134" y="22" type="line"/>
		</contour>
		<contour>
			<point x="119" y="0" type="line"/>
			<point x="141" y="0" type="line"/>
			<point x="382" y="1399" type="line"/>
			<point x="360" y="1399" type="line"/>
		</contour>
		<contour>
			<point x="836" y="1597" type="line"/>
			<point x="1195" y="1874" type="line"/>
			<point x="1181" y="1890" type="line"/>
			<point x="838" y="1621" type="line"/>
			<point x="589" y="1892" type="line"/>
			<point x="572" y="1876" type="line"/>
		</contour>
	</outline>
</glyph>
<glyph name="dcaron" format="2">
	<advance width="1106"/>
	<unicode hex="010F"/>
	<outline>
		<contour>
			<point x="444" y="-19" type="curve" smooth="yes"/>
			<point x="694" y="-18"/>
			<point x="873" y="231"/>
			<point x="910" y="460" type="curve" smooth="yes"/>
			<point x="941" y="673"/>
			<point x="855" y="936"/>
			<point x="606" y="939" type="curve" smooth="yes"/>
			<point x="353" y="942"/>
			<point x="150" y="723"/>
			<point x="111" y="460" type="curve" smooth="yes"/>
			<point x="77" y="211"/>
			<point x="191" y="-20"/>
		</contour>
		<contour>
			<point x="451" y="1" type="curve" smooth="yes"/>
			<point x="207" y="-1"/>
			<point x="98" y="222"/>
			<point x="131" y="460" type="curve" smooth="yes"/>
			<point x="169" y="712"/>
			<point x="367" y="924"/>
			<point x="610" y="919" type="curve" smooth="yes"/>
			<point x="837" y="915"/>
			<point x="930" y="664"/>
			<point x="900" y="460" type="curve" smooth="yes"/>
			<point x="864" y="239"/>
			<point x="680" y="3"/>
		</contour>
		<contour>
			<point x="820" y="0" type="line"/>
			<point x="839" y="0" type="line"/>
			<point x="1108" y="1559" type="line"/>
			<point x="1088" y="1559" type="line"/>
		</contour>
		<contour>
			<point x="1197" y="1020" type="line"/>
			<point x="1500" y="1516" type="line"/>
			<point x="1479" y="1526" type="line"/>
			<point x="1185" y="1024" type="line"/>
		</contour>
	</outline>
</glyph>
<glyph name="dcroat" format="2">
	<advance width="1050"/>
	<unicode hex="0111"/>
	<outline>
		<contour>
			<point x="444" y="-19" type="curve" smooth="yes"/>
			<point x="686" y="-18"/>
			<point x="873" y="221"/>
			<point x="910" y="460" type="curve" smooth="yes"/>
			<point x="941" y="683"/>
			<point x="847" y="936"/>
			<point x="606" y="939" type="curve" smooth="yes"/>
			<point x="353" y="942"/>
			<point x="150" y="726"/>
			<point x="111" y="460" type="curve" smooth="yes"/>
			<point x="76" y="208"/>
			<point x="191" y="-20"/>
		</contour>
		<contour>
			<point x="451" y="1" type="curve" smooth="yes"/>
			<point x="209" y="-1"/>
			<point x="98" y="222"/>
			<point x="131" y="460" type="curve" smooth="yes"/>
			<point x="169" y="711"/>
			<point x="368" y="924"/>
			<point x="610" y="919" type="curve" smooth="yes"/>
			<point x="842" y="914"/>
			<point x="930" y="653"/>
			<point x="900" y="460" type="curve" smooth="yes"/>
			<point x="864" y="249"/>
			<point x="685" y="3"/>
		</contour>
		<contour>
			<point x="820" y="0" type="line"/>
			<point x="839" y="0" type="line"/>
			<point x="1108" y="1559" type="line"/>
			<point x="1088" y="1559" type="line"/>
		</contour>
		<contour>
			<point x="742" y="1310" type="line"/>
			<point x="1324" y="1310" type="line"/>
			<point x="1328" y="1330" type="line"/>
			<point x="745" y="1330" type="line"/>
		</contour>
	</outline>
</glyph>
<glyph name="Emacron" format="2">
	<advance width="988"/>
	<unicode hex="0112"/>
	<outline>
		<contour>
			<point x="119" y="0" type="line"/>
			<point x="141" y="0" type="line"/>
			<point x="382" y="1399" type="line"/>
			<point x="360" y="1399" type="line"/>
		</contour>
		<contour>
			<point x="124" y="0" type="line"/>
			<point x="781" y="0" type="line"/>
			<point x="784" y="20" type="line"/>
			<point x="127" y="20" type="line"/>
		</contour>
		<contour>
			<point x="255" y="768" type="line"/>
			<point x="873" y="768" type="line"/>
			<point x="876" y="788" type="line"/>
			<point x="259" y="788" type="line"/>
		</contour>
		<contour>
			<point x="360" y="1380" type="line"/>
			<point x="1016" y="1380" type="line"/>
			<point x="1019" y="1400" type="line"/>
			<point x="363" y="1400" type="line"/>
		</contour>
		<contour>
			<point x="434" y="1670" type="line"/>
			<point x="1114" y="1670" type="line"/>
			<point x="1117" y="1690" type="line"/>
			<point x="438" y="1690" type="line"/>
		</contour>
	</outline>
</glyph>
<glyph name="emacron" format="2">
	<advance width="974"/>
	<unicode hex="0113"/>
	<outline>
		<contour>
			<point x="449" y="-19" type="curve" smooth="yes"/>
			<point x="664" y="-20"/>
			<point x="781" y="103"/>
			<point x="872" y="212" type="curve"/>
			<point x="857" y="225" type="line"/>
			<point x="768" y="118"/>
			<point x="651" y="0"/>
			<point x="450" y="1" type="curve" smooth="yes"/>
			<point x="217" y="3"/>
			<point x="121" y="237"/>
			<point x="144" y="465" type="curve"/>
			<point x="143" y="466" type="line"/>
			<point x="180" y="714"/>
			<point x="374" y="920"/>
			<point x="604" y="918" type="curve" smooth="yes"/>
			<point x="832" y="916"/>
			<point x="948" y="687"/>
			<point x="903" y="476" type="curve"/>
			<point x="140" y="476" type="line"/>
			<point x="137" y="456" type="line"/>
			<point x="919" y="456" type="line"/>
			<point x="923" y="472"/>
			<point x="928" y="491"/>
			<point x="931" y="508" type="curve" smooth="yes"/>
			<point x="959" y="729"/>
			<point x="824" y="937"/>
			<point x="604" y="939" type="curve" smooth="yes"/>
			<point x="405" y="940"/>
			<point x="242" y="793"/>
			<point x="167" y="616" type="curve" smooth="yes"/>
			<point x="146" y="568"/>
			<point x="132" y="517"/>
			<point x="124" y="464" type="curve" smooth="yes"/>
			<point x="95" y="225"/>
			<point x="206" y="-18"/>
		</contour>
		<contour>
			<point x="274" y="1059" type="line"/>
			<point x="953" y="1059" type="line"/>
			<point x="956" y="1079" type="line"/>
			<point x="277" y="1079" type="line"/>
		</contour>
	</outline>
</glyph>
<glyph name="Ebreve" format="2">
	<advance width="988"/>
	<unicode hex="0114"/>
	<outline>
		<contour>
			<point x="119" y="0" type="line"/>
			<point x="141" y="0" type="line"/>
			<point x="382" y="1399" type="line"/>
			<point x="360" y="1399" type="line"/>
		</contour>
		<contour>
			<point x="124" y="0" type="line"/>
			<point x="781" y="0" type="line"/>
			<point x="784" y="20" type="line"/>
			<point x="127" y="20" type="line"/>
		</contour>
		<contour>
			<point x="255" y="768" type="line"/>
			<point x="873" y="768" type="line"/>
			<point x="876" y="788" type="line"/>
			<point x="259" y="788" type="line"/>
		</contour>
		<contour>
			<point x="360" y="1380" type="line"/>
			<point x="1016" y="1380" type="line"/>
			<point x="1019" y="1400" type="line"/>
			<point x="363" y="1400" type="line"/>
		</contour>
		<contour>
			<point x="733" y="1537" type="curve" smooth="yes"/>
			<point x="928" y="1536"/>
			<point x="1048" y="1670"/>
			<point x="1088" y="1814" type="curve"/>
			<point x="1068" y="1814" type="line"/>
			<point x="1029" y="1680"/>
			<point x="910" y="1556"/>
			<point x="734" y="1557" type="curve" smooth="yes"/>
			<point x="563" y="1558"/>
			<point x="481" y="1680"/>
			<point x="493" y="1816" type="curve"/>
			<point x="473" y="1816" type="line"/>
			<point x="459" y="1670"/>
			<point x="542" y="1538"/>
		</contour>
	</outline>
</glyph>
<glyph name="Edotaccent" format="2">
	<advance width="988"/>
	<unicode hex="0116"/>
	<outline>
		<contour>
			<point x="119" y="0" type="line"/>
			<point x="141" y="0" type="line"/>
			<point x="382" y="1399" type="line"/>
			<point x="360" y="1399" type="line"/>
		</contour>
		<contour>
			<point x="124" y="0" type="line"/>
			<point x="781" y="0" type="line"/>
			<point x="784" y="20" type="line"/>
			<point x="127" y="20" type="line"/>
		</contour>
		<contour>
			<point x="255" y="768" type="line"/>
			<point x="873" y="768" type="line"/>
			<point x="876" y="788" type="line"/>
			<point x="259" y="788" type="line"/>
		</contour>
		<contour>
			<point x="360" y="1380" type="line"/>
			<point x="1016" y="1380" type="line"/>
			<point x="1019" y="1400" type="line"/>
			<point x="363" y="1400" type="line"/>
		</contour>
		<contour>
			<point x="713" y="1536" type="curve" smooth="yes"/>
			<point x="724" y="1536"/>
			<point x="737" y="1547"/>
			<point x="738" y="1558" type="curve" smooth="yes"/>
			<point x="739" y="1570"/>
			<point x="731" y="1580"/>
			<point x="720" y="1580" type="curve" smooth="yes"/>
			<point x="709" y="1580"/>
			<point x="696" y="1569"/>
			<point x="695" y="1558" type="curve" smooth="yes"/>
			<point x="694" y="1546"/>
			<point x="702" y="1536"/>
		</contour>
	</outline>
</glyph>
<glyph name="Eogonek" format="2">
	<advance width="988"/>
	<unicode hex="0118"/>
	<outline>
		<contour>
			<point x="119" y="0" type="line"/>
			<point x="141" y="0" type="line"/>
			<point x="382" y="1399" type="line"/>
			<point x="360" y="1399" type="line"/>
		</contour>
		<contour>
			<point x="595" y="-439" type="curve" smooth="yes"/>
			<point x="677" y="-440"/>
			<point x="752" y="-402"/>
			<point x="799" y="-362" type="curve"/>
			<point x="787" y="-347" type="line"/>
			<point x="742" y="-382"/>
			<point x="673" y="-420"/>
			<point x="597" y="-419" type="curve" smooth="yes"/>
			<point x="507" y="-418"/>
			<point x="429" y="-370"/>
			<point x="441" y="-280" type="curve" smooth="yes"/>
			<point x="461" y="-147"/>
			<point x="651" y="-62"/>
			<point x="781" y="0" type="curve"/>
			<point x="770" y="19" type="line"/>
			<point x="633" y="-47"/>
			<point x="443" y="-130"/>
			<point x="421" y="-279" type="curve" smooth="yes"/>
			<point x="407" y="-379"/>
			<point x="484" y="-438"/>
		</contour>
		<contour>
			<point x="124" y="0" type="line"/>
			<point x="781" y="0" type="line"/>
			<point x="784" y="20" type="line"/>
			<point x="127" y="20" type="line"/>
		</contour>
		<contour>
			<point x="255" y="768" type="line"/>
			<point x="873" y="768" type="line"/>
			<point x="876" y="788" type="line"/>
			<point x="259" y="788" type="line"/>
		</contour>
		<contour>
			<point x="360" y="1380" type="line"/>
			<point x="1016" y="1380" type="line"/>
			<point x="1019" y="1400" type="line"/>
			<point x="363" y="1400" type="line"/>
		</contour>
	</outline>
</glyph>
<glyph name="ecaron" format="2">
	<advance width="974"/>
	<unicode hex="011B"/>
	<outline>
		<contour>
			<point x="449" y="-19" type="curve" smooth="yes"/>
			<point x="664" y="-20"/>
			<point x="781" y="103"/>
			<point x="872" y="212" type="curve"/>
			<point x="857" y="225" type="line"/>
			<point x="768" y="118"/>
			<point x="651" y="0"/>
			<point x="450" y="1" type="curve" smooth="yes"/>
			<point x="217" y="3"/>
			<point x="121" y="237"/>
			<point x="144" y="465" type="curve"/>
			<point x="143" y="466" type="line"/>
			<point x="180" y="714"/>
			<point x="374" y="920"/>
			<point x="604" y="918" type="curve" smooth="yes"/>
			<point x="832" y="916"/>
			<point x="948" y="687"/>
			<point x="903" y="476" type="curve"/>
			<point x="140" y="476" type="line"/>
			<point x="137" y="456" type="line"/>
			<point x="919" y="456" type="line"/>
			<point x="923" y="472"/>
			<point x="928" y="491"/>
			<point x="931" y="508" type="curve" smooth="yes"/>
			<point x="959" y="729"/>
			<point x="824" y="937"/>
			<point x="604" y="939" type="curve" smooth="yes"/>
			<point x="405" y="940"/>
			<point x="242" y="793"/>
			<point x="167" y="616" type="curve" smooth="yes"/>
			<point x="146" y="568"/>
			<point x="132" y="517"/>
			<point x="124" y="464" type="curve" smooth="yes"/>
			<point x="95" y="225"/>
			<point x="206" y="-18"/>
		</contour>
		<contour>
			<point x="591" y="1059" type="line"/>
			<point x="950" y="1336" type="line"/>
			<point x="936" y="1352" type="line"/>
			<point x="593" y="1083" type="line"/>
			<point x="344" y="1354" type="line"/>
			<point x="326" y="1338" type="line"/>
		</contour>
	</outline>
</glyph>
<glyph name="gcircumflex" format="2">
	<advance width="1050"/>
	<unicode hex="011D"/>
	<outline>
		<contour>
			<point x="358" y="-459" type="curve" smooth="yes"/>
			<point x="609" y="-460"/>
			<point x="802" y="-256"/>
			<point x="845" y="20" type="curve" smooth="yes"/>
			<point x="999" y="919" type="line"/>
			<point x="979" y="919" type="line"/>
			<point x="824" y="20" type="line" smooth="yes"/>
			<point x="783" y="-246"/>
			<point x="596" y="-441"/>
			<point x="359" y="-439" type="curve" smooth="yes"/>
			<point x="139" y="-437"/>
			<point x="50" y="-266"/>
			<point x="73" y="-60" type="curve"/>
			<point x="53" y="-60" type="line"/>
			<point x="29" y="-274"/>
			<point x="125" y="-458"/>
		</contour>
		<contour>
			<point x="444" y="-19" type="curve" smooth="yes"/>
			<point x="694" y="-18"/>
			<point x="873" y="231"/>
			<point x="910" y="460" type="curve" smooth="yes"/>
			<point x="941" y="673"/>
			<point x="855" y="936"/>
			<point x="606" y="939" type="curve" smooth="yes"/>
			<point x="353" y="942"/>
			<point x="150" y="723"/>
			<point x="111" y="460" type="curve" smooth="yes"/>
			<point x="77" y="211"/>
			<point x="191" y="-20"/>
		</contour>
		<contour>
			<point x="451" y="1" type="curve" smooth="yes"/>
			<point x="207" y="0"/>
			<point x="97" y="221"/>
			<point x="131" y="460" type="curve" smooth="yes"/>
			<point x="169" y="712"/>
			<point x="367" y="924"/>
			<point x="610" y="919" type="curve" smooth="yes"/>
			<point x="835" y="915"/>
			<point x="930" y="663"/>
			<point x="901" y="470" type="curve" smooth="yes"/>
			<point x="866" y="243"/>
			<point x="683" y="2"/>
		</contour>
		<contour>
			<point x="926" y="1060" type="line"/>
			<point x="941" y="1074" type="line"/>
			<point x="677" y="1353" type="line"/>
			<point x="318" y="1076" type="line"/>
			<point x="330" y="1062" type="line"/>
			<point x="675" y="1329" type="line"/>
		</contour>
	</outline>
</glyph>
<glyph name="Gbreve" format="2">
	<advance width="1484"/>
	<unicode hex="011E"/>
	<outline>
		<contour>
			<point x="701" y="-15" type="curve" smooth="yes"/>
			<point x="1095" y="-15"/>
			<point x="1370" y="325"/>
			<point x="1440" y="679" type="curve"/>
			<point x="877" y="680" type="line"/>
			<point x="874" y="660" type="line"/>
			<point x="1416" y="659" type="line"/>
			<point x="1341" y="324"/>
			<point x="1078" y="7"/>
			<point x="703" y="7" type="curve" smooth="yes"/>
			<point x="318" y="7"/>
			<point x="131" y="344"/>
			<point x="184" y="700" type="curve" smooth="yes"/>
			<point x="245" y="1081"/>
			<point x="553" y="1395"/>
			<point x="942" y="1394" type="curve" smooth="yes"/>
			<point x="1162" y="1394"/>
			<point x="1331" y="1275"/>
			<point x="1412" y="1100" type="curve"/>
			<point x="1433" y="1112" type="line"/>
			<point x="1335" y="1292"/>
			<point x="1175" y="1416"/>
			<point x="943" y="1416" type="curve" smooth="yes"/>
			<point x="546" y="1417"/>
			<point x="223" y="1092"/>
			<point x="162" y="700" type="curve" smooth="yes"/>
			<point x="108" y="329"/>
			<point x="309" y="-15"/>
		</contour>
		<contour>
			<point x="966" y="1537" type="curve" smooth="yes"/>
			<point x="1161" y="1536"/>
			<point x="1281" y="1670"/>
			<point x="1321" y="1814" type="curve"/>
			<point x="1301" y="1814" type="line"/>
			<point x="1262" y="1680"/>
			<point x="1143" y="1556"/>
			<point x="967" y="1557" type="curve" smooth="yes"/>
			<point x="796" y="1558"/>
			<point x="714" y="1680"/>
			<point x="726" y="1816" type="curve"/>
			<point x="706" y="1816" type="line"/>
			<point x="692" y="1670"/>
			<point x="775" y="1538"/>
		</contour>
	</outline>
</glyph>
<glyph name="gdotaccent" format="2">
	<advance width="1050"/>
	<unicode hex="0121"/>
	<outline>
		<contour>
			<point x="358" y="-459" type="curve" smooth="yes"/>
			<point x="609" y="-460"/>
			<point x="802" y="-256"/>
			<point x="845" y="20" type="curve" smooth="yes"/>
			<point x="999" y="919" type="line"/>
			<point x="979" y="919" type="line"/>
			<point x="824" y="20" type="line" smooth="yes"/>
			<point x="783" y="-246"/>
			<point x="596" y="-441"/>
			<point x="359" y="-439" type="curve" smooth="yes"/>
			<point x="139" y="-437"/>
			<point x="50" y="-266"/>
			<point x="73" y="-60" type="curve"/>
			<point x="53" y="-60" type="line"/>
			<point x="29" y="-274"/>
			<point x="125" y="-458"/>
		</contour>
		<contour>
			<point x="444" y="-19" type="curve" smooth="yes"/>
			<point x="694" y="-18"/>
			<point x="873" y="231"/>
			<point x="910" y="460" type="curve" smooth="yes"/>
			<point x="941" y="673"/>
			<point x="855" y="936"/>
			<point x="606" y="939" type="curve" smooth="yes"/>
			<point x="353" y="942"/>
			<point x="150" y="723"/>
			<point x="111" y="460" type="curve" smooth="yes"/>
			<point x="77" y="211"/>
			<point x="191" y="-20"/>
		</contour>
		<contour>
			<point x="451" y="1" type="curve" smooth="yes"/>
			<point x="207" y="0"/>
			<point x="97" y="221"/>
			<point x="131" y="460" type="curve" smooth="yes"/>
			<point x="169" y="712"/>
			<point x="367" y="924"/>
			<point x="610" y="919" type="curve" smooth="yes"/>
			<point x="835" y="915"/>
			<point x="930" y="663"/>
			<point x="901" y="470" type="curve" smooth="yes"/>
			<point x="866" y="243"/>
			<point x="683" y="2"/>
		</contour>
		<contour>
			<point x="628" y="1060" type="curve" smooth="yes"/>
			<point x="639" y="1060"/>
			<point x="652" y="1071"/>
			<point x="653" y="1082" type="curve" smooth="yes"/>
			<point x="654" y="1094"/>
			<point x="646" y="1104"/>
			<point x="635" y="1104" type="curve" smooth="yes"/>
			<point x="624" y="1104"/>
			<point x="611" y="1093"/>
			<point x="610" y="1082" type="curve" smooth="yes"/>
			<point x="609" y="1070"/>
			<point x="617" y="1060"/>
		</contour>
	</outline>
</glyph>
<glyph name="uni0122" format="2">
	<advance width="1484"/>
	<unicode hex="0122"/>
	<outline>
		<contour>
			<point x="701" y="-15" type="curve" smooth="yes"/>
			<point x="1095" y="-15"/>
			<point x="1370" y="325"/>
			<point x="1440" y="679" type="curve"/>
			<point x="877" y="680" type="line"/>
			<point x="874" y="660" type="line"/>
			<point x="1416" y="659" type="line"/>
			<point x="1341" y="324"/>
			<point x="1078" y="7"/>
			<point x="703" y="7" type="curve" smooth="yes"/>
			<point x="318" y="7"/>
			<point x="131" y="344"/>
			<point x="184" y="700" type="curve" smooth="yes"/>
			<point x="245" y="1081"/>
			<point x="553" y="1395"/>
			<point x="942" y="1394" type="curve" smooth="yes"/>
			<point x="1162" y="1394"/>
			<point x="1331" y="1275"/>
			<point x="1412" y="1100" type="curve"/>
			<point x="1433" y="1112" type="line"/>
			<point x="1335" y="1292"/>
			<point x="1175" y="1416"/>
			<point x="943" y="1416" type="curve" smooth="yes"/>
			<point x="546" y="1417"/>
			<point x="223" y="1092"/>
			<point x="162" y="700" type="curve" smooth="yes"/>
			<point x="108" y="329"/>
			<point x="309" y="-15"/>
		</contour>
		<contour>
			<point x="490" y="-644" type="line"/>
			<point x="793" y="-148" type="line"/>
			<point x="772" y="-138" type="line"/>
			<point x="478" y="-640" type="line"/>
		</contour>
	</outline>
</glyph>
<glyph name="Hcircumflex" format="2">
	<advance width="1254"/>
	<unicode hex="0124"/>
	<outline>
		<contour>
			<point x="1004" y="0" type="line"/>
			<point x="1026" y="0" type="line"/>
			<point x="1267" y="1399" type="line"/>
			<point x="1245" y="1399" type="line"/>
		</contour>
		<contour>
			<point x="119" y="0" type="line"/>
			<point x="141" y="0" type="line"/>
			<point x="382" y="1399" type="line"/>
			<point x="360" y="1399" type="line"/>
		</contour>
		<contour>
			<point x="255" y="754" type="line"/>
			<point x="1148" y="754" type="line"/>
			<point x="1151" y="774" type="line"/>
			<point x="258" y="774" type="line"/>
		</contour>
		<contour>
			<point x="1133" y="1536" type="line"/>
			<point x="1151" y="1550" type="line"/>
			<point x="886" y="1829" type="line"/>
			<point x="527" y="1552" type="line"/>
			<point x="537" y="1538" type="line"/>
			<point x="884" y="1805" type="line"/>
		</contour>
	</outline>
</glyph>
<glyph name="hbar" format="2">
	<advance width="1018"/>
	<unicode hex="0127"/>
	<outline>
		<contour>
			<point x="682" y="0" type="line"/>
			<point x="701" y="0" type="line"/>
			<point x="813" y="640" type="line" smooth="yes"/>
			<point x="834" y="798"/>
			<point x="788" y="938"/>
			<point x="604" y="939" type="curve" smooth="yes"/>
			<point x="401" y="940"/>
			<point x="255" y="758"/>
			<point x="214" y="562" type="curve"/>
			<point x="224" y="562" type="line"/>
			<point x="265" y="738"/>
			<point x="410" y="921"/>
			<point x="603" y="919" type="curve" smooth="yes"/>
			<point x="776" y="917"/>
			<point x="812" y="785"/>
			<point x="793" y="640" type="curve" smooth="yes"/>
		</contour>
		<contour>
			<point x="109" y="0" type="line"/>
			<point x="129" y="0" type="line"/>
			<point x="398" y="1559" type="line"/>
			<point x="378" y="1559" type="line"/>
		</contour>
		<contour>
			<point x="191" y="1380" type="line"/>
			<point x="797" y="1380" type="line"/>
			<point x="800" y="1400" type="line"/>
			<point x="194" y="1400" type="line"/>
		</contour>
	</outline>
</glyph>
<glyph name="Itilde" format="2">
	<advance width="348"/>
	<unicode hex="0128"/>
	<outline>
		<contour>
			<point x="109" y="0" type="line"/>
			<point x="129" y="0" type="line"/>
			<point x="371" y="1399" type="line"/>
			<point x="351" y="1399" type="line"/>
		</contour>
		<contour>
			<point x="197" y="1661" type="line"/>
			<point x="214" y="1710"/>
			<point x="249" y="1762"/>
			<point x="323" y="1761" type="curve" smooth="yes"/>
			<point x="407" y="1760"/>
			<point x="448" y="1669"/>
			<point x="542" y="1669" type="curve" smooth="yes"/>
			<point x="606" y="1669"/>
			<point x="652" y="1714"/>
			<point x="689" y="1773" type="curve"/>
			<point x="671" y="1779" type="line"/>
			<point x="637" y="1728"/>
			<point x="603" y="1686"/>
			<point x="545" y="1685" type="curve" smooth="yes"/>
			<point x="451" y="1683"/>
			<point x="415" y="1777"/>
			<point x="320" y="1777" type="curve" smooth="yes"/>
			<point x="238" y="1777"/>
			<point x="198" y="1719"/>
			<point x="179" y="1663" type="curve"/>
		</contour>
	</outline>
</glyph>
<glyph name="itilde" format="2">
	<advance width="368"/>
	<unicode hex="0129"/>
	<outline>
		<contour>
			<point x="119" y="0" type="line"/>
			<point x="139" y="0" type="line"/>
			<point x="298" y="919" type="line"/>
			<point x="279" y="919" type="line"/>
		</contour>
		<contour>
			<point x="129" y="1181" type="line"/>
			<point x="146" y="1230"/>
			<point x="181" y="1282"/>
			<point x="255" y="1281" type="curve" smooth="yes"/>
			<point x="339" y="1280"/>
			<point x="380" y="1189"/>
			<point x="474" y="1189" type="curve" smooth="yes"/>
			<point x="538" y="1189"/>
			<point x="583" y="1234"/>
			<point x="620" y="1293" type="curve"/>
			<point x="603" y="1299" type="line"/>
			<point x="569" y="1248"/>
			<point x="534" y="1206"/>
			<point x="476" y="1205" type="curve" smooth="yes"/>
			<point x="382" y="1203"/>
			<point x="347" y="1297"/>
			<point x="252" y="1297" type="curve" smooth="yes"/>
			<point x="170" y="1297"/>
			<point x="130" y="1239"/>
			<point x="111" y="1183" type="curve"/>
		</contour>
	</outline>
</glyph>
<glyph name="Imacron" format="2">
	<advance width="348"/>
	<unicode hex="012A"/>
	<outline>
		<contour>
			<point x="109" y="0" type="line"/>
			<point x="129" y="0" type="line"/>
			<point x="371" y="1399" type="line"/>
			<point x="351" y="1399" type="line"/>
		</contour>
		<contour>
			<point x="130" y="1670" type="line"/>
			<point x="809" y="1670" type="line"/>
			<point x="813" y="1690" type="line"/>
			<point x="133" y="1690" type="line"/>
		</contour>
	</outline>
</glyph>
<glyph name="imacron" format="2">
	<advance width="368"/>
	<unicode hex="012B"/>
	<outline>
		<contour>
			<point x="119" y="0" type="line"/>
			<point x="139" y="0" type="line"/>
			<point x="298" y="919" type="line"/>
			<point x="279" y="919" type="line"/>
		</contour>
		<contour>
			<point x="61" y="1190" type="line"/>
			<point x="741" y="1190" type="line"/>
			<point x="744" y="1210" type="line"/>
			<point x="65" y="1210" type="line"/>
		</contour>
	</outline>
</glyph>
<glyph name="Ibreve" format="2">
	<advance width="348"/>
	<unicode hex="012C"/>
	<outline>
		<contour>
			<point x="109" y="0" type="line"/>
			<point x="129" y="0" type="line"/>
			<point x="371" y="1399" type="line"/>
			<point x="351" y="1399" type="line"/>
		</contour>
		<contour>
			<point x="380" y="1541" type="curve" smooth="yes"/>
			<point x="575" y="1540"/>
			<point x="696" y="1674"/>
			<point x="736" y="1818" type="curve"/>
			<point x="716" y="1818" type="line"/>
			<point x="677" y="1684"/>
			<point x="557" y="1560"/>
			<point x="381" y="1561" type="curve" smooth="yes"/>
			<point x="210" y="1562"/>
			<point x="128" y="1684"/>
			<point x="140" y="1820" type="curve"/>
			<point x="121" y="1820" type="line"/>
			<point x="107" y="1674"/>
			<point x="189" y="1542"/>
		</contour>
	</outline>
</glyph>
<glyph name="ibreve" format="2">
	<advance width="368"/>
	<unicode hex="012D"/>
	<outline>
		<contour>
			<point x="312" y="1061" type="curve" smooth="yes"/>
			<point x="507" y="1060"/>
			<point x="627" y="1194"/>
			<point x="667" y="1338" type="curve"/>
			<point x="647" y="1338" type="line"/>
			<point x="608" y="1204"/>
			<point x="489" y="1080"/>
			<point x="313" y="1081" type="curve" smooth="yes"/>
			<point x="142" y="1082"/>
			<point x="60" y="1204"/>
			<point x="72" y="1340" type="curve"/>
			<point x="52" y="1340" type="line"/>
			<point x="38" y="1194"/>
			<point x="121" y="1062"/>
		</contour>
		<contour>
			<point x="119" y="0" type="line"/>
			<point x="139" y="0" type="line"/>
			<point x="298" y="919" type="line"/>
			<point x="279" y="919" type="line"/>
		</contour>
	</outline>
</glyph>
